solid OpenSCAD_Model
  facet normal 1 -0 0
    outer loop
      vertex -57 -27 54.2725
      vertex -57 -1.20509e-14 -54.2725
      vertex -57 1.20509e-14 54.2725
    endloop
  endfacet
  facet normal 1 0 0
    outer loop
      vertex -57 -1.20509e-14 -54.2725
      vertex -57 -27 54.2725
      vertex -57 -27 -54.2725
    endloop
  endfacet
  facet normal 0 1 -0
    outer loop
      vertex 57 -27 -54.2725
      vertex -57 -27 54.2725
      vertex 57 -27 54.2725
    endloop
  endfacet
  facet normal 0 1 0
    outer loop
      vertex -57 -27 54.2725
      vertex 57 -27 -54.2725
      vertex -57 -27 -54.2725
    endloop
  endfacet
  facet normal -1 0 0
    outer loop
      vertex 57 -27 -54.2725
      vertex 57 -14.5 26.7275
      vertex 57 -1.20509e-14 -54.2725
    endloop
  endfacet
  facet normal -1 -0 0
    outer loop
      vertex 57 -14.5 26.7275
      vertex 57 -27 -54.2725
      vertex 57 -22.5 26.7275
    endloop
  endfacet
  facet normal -1 0 0
    outer loop
      vertex 57 -27 54.2725
      vertex 57 -22.5 26.7275
      vertex 57 -27 -54.2725
    endloop
  endfacet
  facet normal -1 0 0
    outer loop
      vertex 57 -22.5 26.7275
      vertex 57 -27 54.2725
      vertex 57 -22.5 54.2725
    endloop
  endfacet
  facet normal -1 0 0
    outer loop
      vertex 57 -14.5 26.7275
      vertex 57 1.20509e-14 54.2725
      vertex 57 -1.20509e-14 -54.2725
    endloop
  endfacet
  facet normal -1 -0 0
    outer loop
      vertex 57 1.20509e-14 54.2725
      vertex 57 -14.5 26.7275
      vertex 57 -14.5 54.2725
    endloop
  endfacet
  facet normal 0 1 -2.22045e-16
    outer loop
      vertex -57 -1.20509e-14 -54.2725
      vertex -62 1.20509e-14 54.2725
      vertex -57 1.20509e-14 54.2725
    endloop
  endfacet
  facet normal 0 1 -2.22045e-16
    outer loop
      vertex -62 1.20509e-14 54.2725
      vertex -57 -1.20509e-14 -54.2725
      vertex -62 -1.20509e-14 -54.2725
    endloop
  endfacet
  facet normal 0 1 -2.22045e-16
    outer loop
      vertex 62 -1.20509e-14 -54.2725
      vertex 57 1.20509e-14 54.2725
      vertex 62 1.20509e-14 54.2725
    endloop
  endfacet
  facet normal 0 1 -2.22045e-16
    outer loop
      vertex 57 1.20509e-14 54.2725
      vertex 62 -1.20509e-14 -54.2725
      vertex 57 -1.20509e-14 -54.2725
    endloop
  endfacet
  facet normal 0 1 -0
    outer loop
      vertex 62 -22.5 26.7275
      vertex 57 -22.5 54.2725
      vertex 62 -22.5 54.2725
    endloop
  endfacet
  facet normal 0 1 0
    outer loop
      vertex 57 -22.5 54.2725
      vertex 62 -22.5 26.7275
      vertex 57 -22.5 26.7275
    endloop
  endfacet
  facet normal 0 -1 0
    outer loop
      vertex 57 -14.5 26.7275
      vertex 62 -14.5 54.2725
      vertex 57 -14.5 54.2725
    endloop
  endfacet
  facet normal 0 -1 -0
    outer loop
      vertex 62 -14.5 54.2725
      vertex 57 -14.5 26.7275
      vertex 62 -14.5 26.7275
    endloop
  endfacet
  facet normal -0 0 1
    outer loop
      vertex 57 -14.5 26.7275
      vertex 62 -22.5 26.7275
      vertex 62 -14.5 26.7275
    endloop
  endfacet
  facet normal 0 0 1
    outer loop
      vertex 62 -22.5 26.7275
      vertex 57 -14.5 26.7275
      vertex 57 -22.5 26.7275
    endloop
  endfacet
  facet normal -1 0 0
    outer loop
      vertex -62 -37 -54.2725
      vertex -62 1.20509e-14 54.2725
      vertex -62 -1.20509e-14 -54.2725
    endloop
  endfacet
  facet normal -1 -0 0
    outer loop
      vertex -62 1.20509e-14 54.2725
      vertex -62 -37 -54.2725
      vertex -62 -37 54.2725
    endloop
  endfacet
  facet normal 0 -1 0
    outer loop
      vertex -62 -37 -54.2725
      vertex 62 -37 54.2725
      vertex -62 -37 54.2725
    endloop
  endfacet
  facet normal 0 -1 -0
    outer loop
      vertex 62 -37 54.2725
      vertex -62 -37 -54.2725
      vertex 62 -37 -54.2725
    endloop
  endfacet
  facet normal 1 0 0
    outer loop
      vertex 62 -22.5 54.2725
      vertex 62 -37 54.2725
      vertex 62 -22.5 26.7275
    endloop
  endfacet
  facet normal 1 0 0
    outer loop
      vertex 62 -14.5 26.7275
      vertex 62 1.20509e-14 54.2725
      vertex 62 -14.5 54.2725
    endloop
  endfacet
  facet normal 1 0 0
    outer loop
      vertex 62 1.20509e-14 54.2725
      vertex 62 -14.5 26.7275
      vertex 62 -1.20509e-14 -54.2725
    endloop
  endfacet
  facet normal 1 -0 0
    outer loop
      vertex 62 -22.5 26.7275
      vertex 62 -1.20509e-14 -54.2725
      vertex 62 -14.5 26.7275
    endloop
  endfacet
  facet normal 1 0 0
    outer loop
      vertex 62 -37 -54.2725
      vertex 62 -22.5 26.7275
      vertex 62 -37 54.2725
    endloop
  endfacet
  facet normal 1 0 0
    outer loop
      vertex 62 -22.5 26.7275
      vertex 62 -37 -54.2725
      vertex 62 -1.20509e-14 -54.2725
    endloop
  endfacet
  facet normal 0 0 1
    outer loop
      vertex -57 1.20509e-14 54.2725
      vertex -62 1.20509e-14 54.2725
      vertex -57 -27 54.2725
    endloop
  endfacet
  facet normal 0 0 1
    outer loop
      vertex 57 -27 54.2725
      vertex 62 -22.5 54.2725
      vertex 57 -22.5 54.2725
    endloop
  endfacet
  facet normal 0 0 1
    outer loop
      vertex 62 -22.5 54.2725
      vertex 57 -27 54.2725
      vertex 62 -37 54.2725
    endloop
  endfacet
  facet normal -0 0 1
    outer loop
      vertex -57 -27 54.2725
      vertex 62 -37 54.2725
      vertex 57 -27 54.2725
    endloop
  endfacet
  facet normal 0 0 1
    outer loop
      vertex -57 -27 54.2725
      vertex -62 -37 54.2725
      vertex 62 -37 54.2725
    endloop
  endfacet
  facet normal 0 0 1
    outer loop
      vertex -62 -37 54.2725
      vertex -57 -27 54.2725
      vertex -62 1.20509e-14 54.2725
    endloop
  endfacet
  facet normal -0 0 1
    outer loop
      vertex 57 1.20509e-14 54.2725
      vertex 62 -14.5 54.2725
      vertex 62 1.20509e-14 54.2725
    endloop
  endfacet
  facet normal 0 0 1
    outer loop
      vertex 62 -14.5 54.2725
      vertex 57 1.20509e-14 54.2725
      vertex 57 -14.5 54.2725
    endloop
  endfacet
  facet normal 0 0 -1
    outer loop
      vertex 62 -37 -54.2725
      vertex 57 -27 -54.2725
      vertex 62 -1.20509e-14 -54.2725
    endloop
  endfacet
  facet normal 0 0 -1
    outer loop
      vertex 62 -37 -54.2725
      vertex -57 -27 -54.2725
      vertex 57 -27 -54.2725
    endloop
  endfacet
  facet normal 0 0 -1
    outer loop
      vertex -62 -37 -54.2725
      vertex -57 -27 -54.2725
      vertex 62 -37 -54.2725
    endloop
  endfacet
  facet normal 0 0 -1
    outer loop
      vertex -62 -1.20509e-14 -54.2725
      vertex -57 -27 -54.2725
      vertex -62 -37 -54.2725
    endloop
  endfacet
  facet normal 0 0 -1
    outer loop
      vertex -57 -27 -54.2725
      vertex -62 -1.20509e-14 -54.2725
      vertex -57 -1.20509e-14 -54.2725
    endloop
  endfacet
  facet normal -0 0 -1
    outer loop
      vertex 62 -1.20509e-14 -54.2725
      vertex 57 -27 -54.2725
      vertex 57 -1.20509e-14 -54.2725
    endloop
  endfacet
  facet normal -1 0 0
    outer loop
      vertex -52.75 5.22 -49.75
      vertex -52.75 8.55 49.75
      vertex -52.75 8.55 -49.75
    endloop
  endfacet
  facet normal -1 -0 0
    outer loop
      vertex -52.75 8.55 49.75
      vertex -52.75 5.22 -49.75
      vertex -52.75 5.22 49.75
    endloop
  endfacet
  facet normal -0.998026 0 -0.0627981
    outer loop
      vertex -52.7263 5.22 -50.126
      vertex -52.75 8.55 -49.75
      vertex -52.7263 8.55 -50.126
    endloop
  endfacet
  facet normal -0.998026 -0 -0.0627981
    outer loop
      vertex -52.75 8.55 -49.75
      vertex -52.7263 5.22 -50.126
      vertex -52.75 5.22 -49.75
    endloop
  endfacet
  facet normal 0.684548 0 0.728968
    outer loop
      vertex 51.6623 8.55 52.0615
      vertex 51.9369 5.22 51.8036
      vertex 51.9369 8.55 51.8036
    endloop
  endfacet
  facet normal 0.684548 0 0.728968
    outer loop
      vertex 51.9369 5.22 51.8036
      vertex 51.6623 8.55 52.0615
      vertex 51.6623 5.22 52.0615
    endloop
  endfacet
  facet normal 0.998026 0 -0.0627981
    outer loop
      vertex 52.75 5.22 -49.75
      vertex 52.7263 8.55 -50.126
      vertex 52.75 8.55 -49.75
    endloop
  endfacet
  facet normal 0.998026 0 -0.0627981
    outer loop
      vertex 52.7263 8.55 -50.126
      vertex 52.75 5.22 -49.75
      vertex 52.7263 5.22 -50.126
    endloop
  endfacet
  facet normal 1 -0 0
    outer loop
      vertex 52.75 5.22 49.75
      vertex 52.75 8.55 -49.75
      vertex 52.75 8.55 49.75
    endloop
  endfacet
  facet normal 1 0 0
    outer loop
      vertex 52.75 8.55 -49.75
      vertex 52.75 5.22 49.75
      vertex 52.75 5.22 -49.75
    endloop
  endfacet
  facet normal 0 1 0
    outer loop
      vertex 49.6874 8.55 50.4823
      vertex 49.9384 8.55 52.7441
      vertex 50.3121 8.55 52.6969
    endloop
  endfacet
  facet normal 0 1 0
    outer loop
      vertex 49.9384 8.55 52.7441
      vertex 49.5628 8.55 50.498
      vertex -49.9384 8.55 52.7441
    endloop
  endfacet
  facet normal 0 1 0
    outer loop
      vertex 49.809 8.55 50.4511
      vertex 50.3121 8.55 52.6969
      vertex 50.6771 8.55 52.6032
    endloop
  endfacet
  facet normal 0 1 -0
    outer loop
      vertex -49.5628 8.55 50.498
      vertex -49.9384 8.55 52.7441
      vertex 49.5628 8.55 50.498
    endloop
  endfacet
  facet normal 0 1 0
    outer loop
      vertex 49.9258 8.55 50.4048
      vertex 50.6771 8.55 52.6032
      vertex 51.0273 8.55 52.4645
    endloop
  endfacet
  facet normal 0 1 -0
    outer loop
      vertex -49.6874 8.55 50.4823
      vertex -49.9384 8.55 52.7441
      vertex -49.5628 8.55 50.498
    endloop
  endfacet
  facet normal 0 1 0
    outer loop
      vertex 50.0358 8.55 50.3443
      vertex 51.0273 8.55 52.4645
      vertex 51.3575 8.55 52.283
    endloop
  endfacet
  facet normal 0 1 0
    outer loop
      vertex -49.9384 8.55 52.7441
      vertex -49.6874 8.55 50.4823
      vertex -50.3121 8.55 52.6969
    endloop
  endfacet
  facet normal 0 1 0
    outer loop
      vertex 50.1374 8.55 50.2705
      vertex 51.3575 8.55 52.283
      vertex 51.6623 8.55 52.0615
    endloop
  endfacet
  facet normal 0 1 -0
    outer loop
      vertex -49.809 8.55 50.4511
      vertex -50.3121 8.55 52.6969
      vertex -49.6874 8.55 50.4823
    endloop
  endfacet
  facet normal 0 1 0
    outer loop
      vertex 50.1374 8.55 50.2705
      vertex 51.6623 8.55 52.0615
      vertex 51.9369 8.55 51.8036
    endloop
  endfacet
  facet normal 0 1 0
    outer loop
      vertex -50.3121 8.55 52.6969
      vertex -49.809 8.55 50.4511
      vertex -50.6771 8.55 52.6032
    endloop
  endfacet
  facet normal 0 1 0
    outer loop
      vertex 50.229 8.55 50.1845
      vertex 51.9369 8.55 51.8036
      vertex 52.1771 8.55 51.5134
    endloop
  endfacet
  facet normal 0 1 -0
    outer loop
      vertex -49.9258 8.55 50.4048
      vertex -50.6771 8.55 52.6032
      vertex -49.809 8.55 50.4511
    endloop
  endfacet
  facet normal 0 1 0
    outer loop
      vertex 50.309 8.55 50.0878
      vertex 52.1771 8.55 51.5134
      vertex 52.3789 8.55 51.1953
    endloop
  endfacet
  facet normal 0 1 0
    outer loop
      vertex -50.6771 8.55 52.6032
      vertex -49.9258 8.55 50.4048
      vertex -51.0273 8.55 52.4645
    endloop
  endfacet
  facet normal 0 1 0
    outer loop
      vertex 50.3763 8.55 49.9818
      vertex 52.3789 8.55 51.1953
      vertex 52.5393 8.55 50.8544
    endloop
  endfacet
  facet normal 0 1 -0
    outer loop
      vertex -50.0358 8.55 50.3443
      vertex -51.0273 8.55 52.4645
      vertex -49.9258 8.55 50.4048
    endloop
  endfacet
  facet normal 0 1 0
    outer loop
      vertex -51.0273 8.55 52.4645
      vertex -50.0358 8.55 50.3443
      vertex -51.3575 8.55 52.283
    endloop
  endfacet
  facet normal 0 1 0
    outer loop
      vertex 50.4298 8.55 49.8681
      vertex 52.5393 8.55 50.8544
      vertex 52.6558 8.55 50.4961
    endloop
  endfacet
  facet normal 0 1 0
    outer loop
      vertex 49.9384 8.55 52.7441
      vertex 49.6874 8.55 50.4823
      vertex 49.5628 8.55 50.498
    endloop
  endfacet
  facet normal 0 1 0
    outer loop
      vertex 50.3121 8.55 52.6969
      vertex 49.809 8.55 50.4511
      vertex 49.6874 8.55 50.4823
    endloop
  endfacet
  facet normal 0 1 0
    outer loop
      vertex 50.6771 8.55 52.6032
      vertex 49.9258 8.55 50.4048
      vertex 49.809 8.55 50.4511
    endloop
  endfacet
  facet normal 0 1 0
    outer loop
      vertex 51.0273 8.55 52.4645
      vertex 50.0358 8.55 50.3443
      vertex 49.9258 8.55 50.4048
    endloop
  endfacet
  facet normal 0 1 0
    outer loop
      vertex 51.3575 8.55 52.283
      vertex 50.1374 8.55 50.2705
      vertex 50.0358 8.55 50.3443
    endloop
  endfacet
  facet normal 0 1 0
    outer loop
      vertex 51.9369 8.55 51.8036
      vertex 50.229 8.55 50.1845
      vertex 50.1374 8.55 50.2705
    endloop
  endfacet
  facet normal 0 1 0
    outer loop
      vertex 50.4686 8.55 49.7487
      vertex 52.6558 8.55 50.4961
      vertex 52.7263 8.55 50.126
    endloop
  endfacet
  facet normal 0 1 0
    outer loop
      vertex 52.1771 8.55 51.5134
      vertex 50.309 8.55 50.0878
      vertex 50.229 8.55 50.1845
    endloop
  endfacet
  facet normal 0 1 0
    outer loop
      vertex 52.3789 8.55 51.1953
      vertex 50.3763 8.55 49.9818
      vertex 50.309 8.55 50.0878
    endloop
  endfacet
  facet normal 0 1 0
    outer loop
      vertex 52.5393 8.55 50.8544
      vertex 50.4298 8.55 49.8681
      vertex 50.3763 8.55 49.9818
    endloop
  endfacet
  facet normal 0 1 0
    outer loop
      vertex 50.4921 8.55 49.6253
      vertex 52.7263 8.55 50.126
      vertex 52.75 8.55 49.75
    endloop
  endfacet
  facet normal 0 1 0
    outer loop
      vertex 52.6558 8.55 50.4961
      vertex 50.4686 8.55 49.7487
      vertex 50.4298 8.55 49.8681
    endloop
  endfacet
  facet normal 0 1 0
    outer loop
      vertex 52.7263 8.55 50.126
      vertex 50.4921 8.55 49.6253
      vertex 50.4686 8.55 49.7487
    endloop
  endfacet
  facet normal 0 1 0
    outer loop
      vertex 52.75 8.55 49.75
      vertex 50.5 8.55 49.5
      vertex 50.4921 8.55 49.6253
    endloop
  endfacet
  facet normal 0 1 0
    outer loop
      vertex 52.75 8.55 49.75
      vertex 50.5 8.55 -49.5
      vertex 50.5 8.55 49.5
    endloop
  endfacet
  facet normal 0 1 -0
    outer loop
      vertex 52.75 8.55 -49.75
      vertex 50.5 8.55 -49.5
      vertex 52.75 8.55 49.75
    endloop
  endfacet
  facet normal 0 1 0
    outer loop
      vertex 52.75 8.55 -49.75
      vertex 50.4921 8.55 -49.6253
      vertex 50.5 8.55 -49.5
    endloop
  endfacet
  facet normal 0 1 -0
    outer loop
      vertex 52.7263 8.55 -50.126
      vertex 50.4921 8.55 -49.6253
      vertex 52.75 8.55 -49.75
    endloop
  endfacet
  facet normal 0 1 0
    outer loop
      vertex 50.4921 8.55 -49.6253
      vertex 52.7263 8.55 -50.126
      vertex 50.4686 8.55 -49.7487
    endloop
  endfacet
  facet normal 0 1 -0
    outer loop
      vertex 52.6558 8.55 -50.4961
      vertex 50.4686 8.55 -49.7487
      vertex 52.7263 8.55 -50.126
    endloop
  endfacet
  facet normal 0 1 0
    outer loop
      vertex 50.4686 8.55 -49.7487
      vertex 52.6558 8.55 -50.4961
      vertex 50.4298 8.55 -49.8681
    endloop
  endfacet
  facet normal 0 1 -0
    outer loop
      vertex 52.5393 8.55 -50.8544
      vertex 50.4298 8.55 -49.8681
      vertex 52.6558 8.55 -50.4961
    endloop
  endfacet
  facet normal 0 1 0
    outer loop
      vertex 50.4298 8.55 -49.8681
      vertex 52.5393 8.55 -50.8544
      vertex 50.3763 8.55 -49.9818
    endloop
  endfacet
  facet normal 0 1 -0
    outer loop
      vertex 52.3789 8.55 -51.1953
      vertex 50.3763 8.55 -49.9818
      vertex 52.5393 8.55 -50.8544
    endloop
  endfacet
  facet normal 0 1 0
    outer loop
      vertex 50.3763 8.55 -49.9818
      vertex 52.3789 8.55 -51.1953
      vertex 50.309 8.55 -50.0878
    endloop
  endfacet
  facet normal 0 1 -0
    outer loop
      vertex 52.1771 8.55 -51.5134
      vertex 50.309 8.55 -50.0878
      vertex 52.3789 8.55 -51.1953
    endloop
  endfacet
  facet normal 0 1 0
    outer loop
      vertex 50.309 8.55 -50.0878
      vertex 52.1771 8.55 -51.5134
      vertex 50.229 8.55 -50.1845
    endloop
  endfacet
  facet normal 0 1 -0
    outer loop
      vertex 51.9369 8.55 -51.8036
      vertex 50.229 8.55 -50.1845
      vertex 52.1771 8.55 -51.5134
    endloop
  endfacet
  facet normal 0 1 0
    outer loop
      vertex 50.229 8.55 -50.1845
      vertex 51.9369 8.55 -51.8036
      vertex 50.1374 8.55 -50.2705
    endloop
  endfacet
  facet normal 0 1 -0
    outer loop
      vertex 51.6623 8.55 -52.0615
      vertex 50.1374 8.55 -50.2705
      vertex 51.9369 8.55 -51.8036
    endloop
  endfacet
  facet normal 0 1 0
    outer loop
      vertex 50.1374 8.55 -50.2705
      vertex 51.3575 8.55 -52.283
      vertex 50.0358 8.55 -50.3443
    endloop
  endfacet
  facet normal 0 1 -0
    outer loop
      vertex 51.3575 8.55 -52.283
      vertex 50.1374 8.55 -50.2705
      vertex 51.6623 8.55 -52.0615
    endloop
  endfacet
  facet normal 0 1 -0
    outer loop
      vertex -50.1374 8.55 50.2705
      vertex -51.3575 8.55 52.283
      vertex -50.0358 8.55 50.3443
    endloop
  endfacet
  facet normal 0 1 0
    outer loop
      vertex -51.3575 8.55 52.283
      vertex -50.1374 8.55 50.2705
      vertex -51.6623 8.55 52.0615
    endloop
  endfacet
  facet normal 0 1 0
    outer loop
      vertex -51.6623 8.55 52.0615
      vertex -50.1374 8.55 50.2705
      vertex -51.9369 8.55 51.8036
    endloop
  endfacet
  facet normal 0 1 -0
    outer loop
      vertex -50.229 8.55 50.1845
      vertex -51.9369 8.55 51.8036
      vertex -50.1374 8.55 50.2705
    endloop
  endfacet
  facet normal 0 1 0
    outer loop
      vertex -51.9369 8.55 51.8036
      vertex -50.229 8.55 50.1845
      vertex -52.1771 8.55 51.5134
    endloop
  endfacet
  facet normal 0 1 -0
    outer loop
      vertex -50.309 8.55 50.0878
      vertex -52.1771 8.55 51.5134
      vertex -50.229 8.55 50.1845
    endloop
  endfacet
  facet normal 0 1 0
    outer loop
      vertex -52.1771 8.55 51.5134
      vertex -50.309 8.55 50.0878
      vertex -52.3789 8.55 51.1953
    endloop
  endfacet
  facet normal 0 1 -0
    outer loop
      vertex -50.3763 8.55 49.9818
      vertex -52.3789 8.55 51.1953
      vertex -50.309 8.55 50.0878
    endloop
  endfacet
  facet normal 0 1 0
    outer loop
      vertex -52.3789 8.55 51.1953
      vertex -50.3763 8.55 49.9818
      vertex -52.5393 8.55 50.8544
    endloop
  endfacet
  facet normal 0 1 -0
    outer loop
      vertex -50.4298 8.55 49.8681
      vertex -52.5393 8.55 50.8544
      vertex -50.3763 8.55 49.9818
    endloop
  endfacet
  facet normal 0 1 0
    outer loop
      vertex -52.5393 8.55 50.8544
      vertex -50.4298 8.55 49.8681
      vertex -52.6558 8.55 50.4961
    endloop
  endfacet
  facet normal 0 1 -0
    outer loop
      vertex -50.4686 8.55 49.7487
      vertex -52.6558 8.55 50.4961
      vertex -50.4298 8.55 49.8681
    endloop
  endfacet
  facet normal 0 1 0
    outer loop
      vertex -52.6558 8.55 50.4961
      vertex -50.4686 8.55 49.7487
      vertex -52.7263 8.55 50.126
    endloop
  endfacet
  facet normal 0 1 -0
    outer loop
      vertex -50.4921 8.55 49.6253
      vertex -52.7263 8.55 50.126
      vertex -50.4686 8.55 49.7487
    endloop
  endfacet
  facet normal 0 1 0
    outer loop
      vertex -52.7263 8.55 50.126
      vertex -50.4921 8.55 49.6253
      vertex -52.75 8.55 49.75
    endloop
  endfacet
  facet normal 0 1 -0
    outer loop
      vertex -50.5 8.55 49.5
      vertex -52.75 8.55 49.75
      vertex -50.4921 8.55 49.6253
    endloop
  endfacet
  facet normal 0 1 -0
    outer loop
      vertex -50.5 8.55 -49.5
      vertex -52.75 8.55 49.75
      vertex -50.5 8.55 49.5
    endloop
  endfacet
  facet normal 0 1 0
    outer loop
      vertex -50.5 8.55 -49.5
      vertex -52.75 8.55 -49.75
      vertex -52.75 8.55 49.75
    endloop
  endfacet
  facet normal 0 1 0
    outer loop
      vertex -50.4921 8.55 -49.6253
      vertex -52.75 8.55 -49.75
      vertex -50.5 8.55 -49.5
    endloop
  endfacet
  facet normal 0 1 0
    outer loop
      vertex -52.7263 8.55 -50.126
      vertex -50.4921 8.55 -49.6253
      vertex -50.4686 8.55 -49.7487
    endloop
  endfacet
  facet normal 0 1 0
    outer loop
      vertex -52.6558 8.55 -50.4961
      vertex -50.4686 8.55 -49.7487
      vertex -50.4298 8.55 -49.8681
    endloop
  endfacet
  facet normal 0 1 0
    outer loop
      vertex -52.5393 8.55 -50.8544
      vertex -50.4298 8.55 -49.8681
      vertex -50.3763 8.55 -49.9818
    endloop
  endfacet
  facet normal 0 1 0
    outer loop
      vertex -52.3789 8.55 -51.1953
      vertex -50.3763 8.55 -49.9818
      vertex -50.309 8.55 -50.0878
    endloop
  endfacet
  facet normal 0 1 0
    outer loop
      vertex -50.4921 8.55 -49.6253
      vertex -52.7263 8.55 -50.126
      vertex -52.75 8.55 -49.75
    endloop
  endfacet
  facet normal 0 1 0
    outer loop
      vertex -52.1771 8.55 -51.5134
      vertex -50.309 8.55 -50.0878
      vertex -50.229 8.55 -50.1845
    endloop
  endfacet
  facet normal 0 1 0
    outer loop
      vertex -51.9369 8.55 -51.8036
      vertex -50.229 8.55 -50.1845
      vertex -50.1374 8.55 -50.2705
    endloop
  endfacet
  facet normal 0 1 0
    outer loop
      vertex -51.3575 8.55 -52.283
      vertex -50.1374 8.55 -50.2705
      vertex -50.0358 8.55 -50.3443
    endloop
  endfacet
  facet normal 0 1 0
    outer loop
      vertex -51.0273 8.55 -52.4645
      vertex -50.0358 8.55 -50.3443
      vertex -49.9258 8.55 -50.4048
    endloop
  endfacet
  facet normal 0 1 0
    outer loop
      vertex -50.6771 8.55 -52.6032
      vertex -49.9258 8.55 -50.4048
      vertex -49.809 8.55 -50.4511
    endloop
  endfacet
  facet normal 0 1 0
    outer loop
      vertex -50.3121 8.55 -52.6969
      vertex -49.809 8.55 -50.4511
      vertex -49.6874 8.55 -50.4823
    endloop
  endfacet
  facet normal 0 1 0
    outer loop
      vertex -50.4686 8.55 -49.7487
      vertex -52.6558 8.55 -50.4961
      vertex -52.7263 8.55 -50.126
    endloop
  endfacet
  facet normal 0 1 0
    outer loop
      vertex -49.9384 8.55 -52.7441
      vertex -49.6874 8.55 -50.4823
      vertex -49.5628 8.55 -50.498
    endloop
  endfacet
  facet normal 0 1 0
    outer loop
      vertex 49.5628 8.55 -50.498
      vertex 49.9384 8.55 -52.7441
      vertex -49.5628 8.55 -50.498
    endloop
  endfacet
  facet normal 0 1 0
    outer loop
      vertex -49.9384 8.55 -52.7441
      vertex -49.5628 8.55 -50.498
      vertex 49.9384 8.55 -52.7441
    endloop
  endfacet
  facet normal 0 1 -0
    outer loop
      vertex 51.0273 8.55 -52.4645
      vertex 50.0358 8.55 -50.3443
      vertex 51.3575 8.55 -52.283
    endloop
  endfacet
  facet normal 0 1 0
    outer loop
      vertex -49.6874 8.55 -50.4823
      vertex -49.9384 8.55 -52.7441
      vertex -50.3121 8.55 -52.6969
    endloop
  endfacet
  facet normal 0 1 0
    outer loop
      vertex 50.0358 8.55 -50.3443
      vertex 51.0273 8.55 -52.4645
      vertex 49.9258 8.55 -50.4048
    endloop
  endfacet
  facet normal 0 1 0
    outer loop
      vertex -50.4298 8.55 -49.8681
      vertex -52.5393 8.55 -50.8544
      vertex -52.6558 8.55 -50.4961
    endloop
  endfacet
  facet normal 0 1 -0
    outer loop
      vertex 50.6771 8.55 -52.6032
      vertex 49.9258 8.55 -50.4048
      vertex 51.0273 8.55 -52.4645
    endloop
  endfacet
  facet normal 0 1 0
    outer loop
      vertex -50.3763 8.55 -49.9818
      vertex -52.3789 8.55 -51.1953
      vertex -52.5393 8.55 -50.8544
    endloop
  endfacet
  facet normal 0 1 0
    outer loop
      vertex 49.9258 8.55 -50.4048
      vertex 50.6771 8.55 -52.6032
      vertex 49.809 8.55 -50.4511
    endloop
  endfacet
  facet normal 0 1 0
    outer loop
      vertex -50.309 8.55 -50.0878
      vertex -52.1771 8.55 -51.5134
      vertex -52.3789 8.55 -51.1953
    endloop
  endfacet
  facet normal 0 1 -0
    outer loop
      vertex 50.3121 8.55 -52.6969
      vertex 49.809 8.55 -50.4511
      vertex 50.6771 8.55 -52.6032
    endloop
  endfacet
  facet normal 0 1 0
    outer loop
      vertex -50.229 8.55 -50.1845
      vertex -51.9369 8.55 -51.8036
      vertex -52.1771 8.55 -51.5134
    endloop
  endfacet
  facet normal 0 1 0
    outer loop
      vertex 49.809 8.55 -50.4511
      vertex 50.3121 8.55 -52.6969
      vertex 49.6874 8.55 -50.4823
    endloop
  endfacet
  facet normal 0 1 0
    outer loop
      vertex -50.1374 8.55 -50.2705
      vertex -51.6623 8.55 -52.0615
      vertex -51.9369 8.55 -51.8036
    endloop
  endfacet
  facet normal 0 1 -0
    outer loop
      vertex 49.9384 8.55 -52.7441
      vertex 49.6874 8.55 -50.4823
      vertex 50.3121 8.55 -52.6969
    endloop
  endfacet
  facet normal 0 1 0
    outer loop
      vertex -50.1374 8.55 -50.2705
      vertex -51.3575 8.55 -52.283
      vertex -51.6623 8.55 -52.0615
    endloop
  endfacet
  facet normal 0 1 0
    outer loop
      vertex 49.6874 8.55 -50.4823
      vertex 49.9384 8.55 -52.7441
      vertex 49.5628 8.55 -50.498
    endloop
  endfacet
  facet normal 0 1 0
    outer loop
      vertex -50.0358 8.55 -50.3443
      vertex -51.0273 8.55 -52.4645
      vertex -51.3575 8.55 -52.283
    endloop
  endfacet
  facet normal 0 1 0
    outer loop
      vertex -49.9258 8.55 -50.4048
      vertex -50.6771 8.55 -52.6032
      vertex -51.0273 8.55 -52.4645
    endloop
  endfacet
  facet normal 0 1 0
    outer loop
      vertex -49.809 8.55 -50.4511
      vertex -50.3121 8.55 -52.6969
      vertex -50.6771 8.55 -52.6032
    endloop
  endfacet
  facet normal 0.368124 0 -0.929777
    outer loop
      vertex 50.6771 5.22 -52.6032
      vertex 51.0273 8.55 -52.4645
      vertex 51.0273 5.22 -52.4645
    endloop
  endfacet
  facet normal 0.368124 0 -0.929777
    outer loop
      vertex 51.0273 8.55 -52.4645
      vertex 50.6771 5.22 -52.6032
      vertex 50.6771 8.55 -52.6032
    endloop
  endfacet
  facet normal -0.770513 0 -0.637425
    outer loop
      vertex -51.9369 5.22 -51.8036
      vertex -52.1771 8.55 -51.5134
      vertex -51.9369 8.55 -51.8036
    endloop
  endfacet
  facet normal -0.770513 -0 -0.637425
    outer loop
      vertex -52.1771 8.55 -51.5134
      vertex -51.9369 5.22 -51.8036
      vertex -52.1771 5.22 -51.5134
    endloop
  endfacet
  facet normal 0 0 -1
    outer loop
      vertex -49.9384 5.22 -52.7441
      vertex 49.9384 8.55 -52.7441
      vertex 49.9384 5.22 -52.7441
    endloop
  endfacet
  facet normal -0 0 -1
    outer loop
      vertex 49.9384 8.55 -52.7441
      vertex -49.9384 5.22 -52.7441
      vertex -49.9384 8.55 -52.7441
    endloop
  endfacet
  facet normal -0 0 1
    outer loop
      vertex -49.9384 8.55 52.7441
      vertex 49.9384 5.22 52.7441
      vertex 49.9384 8.55 52.7441
    endloop
  endfacet
  facet normal 0 0 1
    outer loop
      vertex 49.9384 5.22 52.7441
      vertex -49.9384 8.55 52.7441
      vertex -49.9384 5.22 52.7441
    endloop
  endfacet
  facet normal -0.951056 0 -0.309019
    outer loop
      vertex -52.5393 5.22 -50.8544
      vertex -52.6558 8.55 -50.4961
      vertex -52.5393 8.55 -50.8544
    endloop
  endfacet
  facet normal -0.951056 -0 -0.309019
    outer loop
      vertex -52.6558 8.55 -50.4961
      vertex -52.5393 5.22 -50.8544
      vertex -52.6558 5.22 -50.4961
    endloop
  endfacet
  facet normal -0.481757 0 -0.876305
    outer loop
      vertex -51.3575 5.22 -52.283
      vertex -51.0273 8.55 -52.4645
      vertex -51.0273 5.22 -52.4645
    endloop
  endfacet
  facet normal -0.481757 0 -0.876305
    outer loop
      vertex -51.0273 8.55 -52.4645
      vertex -51.3575 5.22 -52.283
      vertex -51.3575 8.55 -52.283
    endloop
  endfacet
  facet normal 0.904827 0 -0.425779
    outer loop
      vertex 52.5393 5.22 -50.8544
      vertex 52.3789 8.55 -51.1953
      vertex 52.5393 8.55 -50.8544
    endloop
  endfacet
  facet normal 0.904827 0 -0.425779
    outer loop
      vertex 52.3789 8.55 -51.1953
      vertex 52.5393 5.22 -50.8544
      vertex 52.3789 5.22 -51.1953
    endloop
  endfacet
  facet normal 0.770513 0 -0.637425
    outer loop
      vertex 52.1771 5.22 -51.5134
      vertex 51.9369 8.55 -51.8036
      vertex 52.1771 8.55 -51.5134
    endloop
  endfacet
  facet normal 0.770513 0 -0.637425
    outer loop
      vertex 51.9369 8.55 -51.8036
      vertex 52.1771 5.22 -51.5134
      vertex 51.9369 5.22 -51.8036
    endloop
  endfacet
  facet normal 0.684542 0 -0.728973
    outer loop
      vertex 51.6623 5.22 -52.0615
      vertex 51.9369 8.55 -51.8036
      vertex 51.9369 5.22 -51.8036
    endloop
  endfacet
  facet normal 0.684542 0 -0.728973
    outer loop
      vertex 51.9369 8.55 -51.8036
      vertex 51.6623 5.22 -52.0615
      vertex 51.6623 8.55 -52.0615
    endloop
  endfacet
  facet normal 0.904827 -0 0.425779
    outer loop
      vertex 52.3789 5.22 51.1953
      vertex 52.5393 8.55 50.8544
      vertex 52.3789 8.55 51.1953
    endloop
  endfacet
  facet normal 0.904827 0 0.425779
    outer loop
      vertex 52.5393 8.55 50.8544
      vertex 52.3789 5.22 51.1953
      vertex 52.5393 5.22 50.8544
    endloop
  endfacet
  facet normal 0.368124 0 0.929777
    outer loop
      vertex 50.6771 8.55 52.6032
      vertex 51.0273 5.22 52.4645
      vertex 51.0273 8.55 52.4645
    endloop
  endfacet
  facet normal 0.368124 0 0.929777
    outer loop
      vertex 51.0273 5.22 52.4645
      vertex 50.6771 8.55 52.6032
      vertex 50.6771 5.22 52.6032
    endloop
  endfacet
  facet normal -0.951057 0 0.309016
    outer loop
      vertex -52.6558 5.22 50.4961
      vertex -52.5393 8.55 50.8544
      vertex -52.6558 8.55 50.4961
    endloop
  endfacet
  facet normal -0.951057 0 0.309016
    outer loop
      vertex -52.5393 8.55 50.8544
      vertex -52.6558 5.22 50.4961
      vertex -52.5393 5.22 50.8544
    endloop
  endfacet
  facet normal -0.770509 0 0.637429
    outer loop
      vertex -52.1771 5.22 51.5134
      vertex -51.9369 8.55 51.8036
      vertex -52.1771 8.55 51.5134
    endloop
  endfacet
  facet normal -0.770509 0 0.637429
    outer loop
      vertex -51.9369 8.55 51.8036
      vertex -52.1771 5.22 51.5134
      vertex -51.9369 5.22 51.8036
    endloop
  endfacet
  facet normal -0.982289 0 -0.187371
    outer loop
      vertex -52.6558 5.22 -50.4961
      vertex -52.7263 8.55 -50.126
      vertex -52.6558 8.55 -50.4961
    endloop
  endfacet
  facet normal -0.982289 -0 -0.187371
    outer loop
      vertex -52.7263 8.55 -50.126
      vertex -52.6558 5.22 -50.4961
      vertex -52.7263 5.22 -50.126
    endloop
  endfacet
  facet normal -0.904824 0 -0.425787
    outer loop
      vertex -52.3789 5.22 -51.1953
      vertex -52.5393 8.55 -50.8544
      vertex -52.3789 8.55 -51.1953
    endloop
  endfacet
  facet normal -0.904824 -0 -0.425787
    outer loop
      vertex -52.5393 8.55 -50.8544
      vertex -52.3789 5.22 -51.1953
      vertex -52.5393 5.22 -50.8544
    endloop
  endfacet
  facet normal -0.368124 0 -0.929777
    outer loop
      vertex -51.0273 5.22 -52.4645
      vertex -50.6771 8.55 -52.6032
      vertex -50.6771 5.22 -52.6032
    endloop
  endfacet
  facet normal -0.368124 0 -0.929777
    outer loop
      vertex -50.6771 8.55 -52.6032
      vertex -51.0273 5.22 -52.4645
      vertex -51.0273 8.55 -52.4645
    endloop
  endfacet
  facet normal -0.684542 0 -0.728973
    outer loop
      vertex -51.9369 5.22 -51.8036
      vertex -51.6623 8.55 -52.0615
      vertex -51.6623 5.22 -52.0615
    endloop
  endfacet
  facet normal -0.684542 0 -0.728973
    outer loop
      vertex -51.6623 8.55 -52.0615
      vertex -51.9369 5.22 -51.8036
      vertex -51.9369 8.55 -51.8036
    endloop
  endfacet
  facet normal 0.951056 0 -0.309019
    outer loop
      vertex 52.6558 5.22 -50.4961
      vertex 52.5393 8.55 -50.8544
      vertex 52.6558 8.55 -50.4961
    endloop
  endfacet
  facet normal 0.951056 0 -0.309019
    outer loop
      vertex 52.5393 8.55 -50.8544
      vertex 52.6558 5.22 -50.4961
      vertex 52.5393 5.22 -50.8544
    endloop
  endfacet
  facet normal 0 -1 0
    outer loop
      vertex -50.75 3.8147e-07 50.75
      vertex -49.5628 3.8147e-07 50.498
      vertex 50.75 3.8147e-07 50.75
    endloop
  endfacet
  facet normal 0 -1 0
    outer loop
      vertex -50.75 3.8147e-07 50.75
      vertex -49.6874 3.8147e-07 50.4823
      vertex -49.5628 3.8147e-07 50.498
    endloop
  endfacet
  facet normal 0 -1 0
    outer loop
      vertex -50.75 3.8147e-07 50.75
      vertex -49.809 3.8147e-07 50.4511
      vertex -49.6874 3.8147e-07 50.4823
    endloop
  endfacet
  facet normal 0 -1 0
    outer loop
      vertex -50.75 3.8147e-07 50.75
      vertex -49.9258 3.8147e-07 50.4048
      vertex -49.809 3.8147e-07 50.4511
    endloop
  endfacet
  facet normal 0 -1 0
    outer loop
      vertex -50.75 3.8147e-07 50.75
      vertex -50.0358 3.8147e-07 50.3443
      vertex -49.9258 3.8147e-07 50.4048
    endloop
  endfacet
  facet normal 0 -1 0
    outer loop
      vertex -50.75 3.8147e-07 50.75
      vertex -50.1374 3.8147e-07 50.2705
      vertex -50.0358 3.8147e-07 50.3443
    endloop
  endfacet
  facet normal 0 -1 0
    outer loop
      vertex -50.75 3.8147e-07 50.75
      vertex -50.229 3.8147e-07 50.1845
      vertex -50.1374 3.8147e-07 50.2705
    endloop
  endfacet
  facet normal 0 -1 0
    outer loop
      vertex -50.75 3.8147e-07 50.75
      vertex -50.309 3.8147e-07 50.0878
      vertex -50.229 3.8147e-07 50.1845
    endloop
  endfacet
  facet normal 0 -1 0
    outer loop
      vertex -50.75 3.8147e-07 50.75
      vertex -50.3763 3.8147e-07 49.9818
      vertex -50.309 3.8147e-07 50.0878
    endloop
  endfacet
  facet normal 0 -1 0
    outer loop
      vertex -50.75 3.8147e-07 50.75
      vertex -50.4298 3.8147e-07 49.8681
      vertex -50.3763 3.8147e-07 49.9818
    endloop
  endfacet
  facet normal 0 -1 0
    outer loop
      vertex -50.75 3.8147e-07 50.75
      vertex -50.4686 3.8147e-07 49.7487
      vertex -50.4298 3.8147e-07 49.8681
    endloop
  endfacet
  facet normal 0 -1 0
    outer loop
      vertex -50.75 3.8147e-07 50.75
      vertex -50.4921 3.8147e-07 49.6253
      vertex -50.4686 3.8147e-07 49.7487
    endloop
  endfacet
  facet normal 0 -1 0
    outer loop
      vertex -50.75 3.8147e-07 50.75
      vertex -50.5 3.8147e-07 49.5
      vertex -50.4921 3.8147e-07 49.6253
    endloop
  endfacet
  facet normal 0 -1 0
    outer loop
      vertex -50.75 3.8147e-07 50.75
      vertex -50.5 3.8147e-07 -49.5
      vertex -50.5 3.8147e-07 49.5
    endloop
  endfacet
  facet normal -2.86724e-16 -1 1.35093e-15
    outer loop
      vertex -49.5628 3.8147e-07 -50.498
      vertex -50.75 3.8147e-07 -50.75
      vertex 49.5628 3.8147e-07 -50.498
    endloop
  endfacet
  facet normal 0 -1 -0
    outer loop
      vertex -49.6874 3.8147e-07 -50.4823
      vertex -50.75 3.8147e-07 -50.75
      vertex -49.5628 3.8147e-07 -50.498
    endloop
  endfacet
  facet normal 0 -1 -0
    outer loop
      vertex -49.809 3.8147e-07 -50.4511
      vertex -50.75 3.8147e-07 -50.75
      vertex -49.6874 3.8147e-07 -50.4823
    endloop
  endfacet
  facet normal 0 -1 -0
    outer loop
      vertex -49.9258 3.8147e-07 -50.4048
      vertex -50.75 3.8147e-07 -50.75
      vertex -49.809 3.8147e-07 -50.4511
    endloop
  endfacet
  facet normal 0 -1 -0
    outer loop
      vertex -50.0358 3.8147e-07 -50.3443
      vertex -50.75 3.8147e-07 -50.75
      vertex -49.9258 3.8147e-07 -50.4048
    endloop
  endfacet
  facet normal 0 -1 -0
    outer loop
      vertex -50.1374 3.8147e-07 -50.2705
      vertex -50.75 3.8147e-07 -50.75
      vertex -50.0358 3.8147e-07 -50.3443
    endloop
  endfacet
  facet normal 0 -1 -0
    outer loop
      vertex -50.229 3.8147e-07 -50.1845
      vertex -50.75 3.8147e-07 -50.75
      vertex -50.1374 3.8147e-07 -50.2705
    endloop
  endfacet
  facet normal 0 -1 -0
    outer loop
      vertex -50.309 3.8147e-07 -50.0878
      vertex -50.75 3.8147e-07 -50.75
      vertex -50.229 3.8147e-07 -50.1845
    endloop
  endfacet
  facet normal 0 -1 -0
    outer loop
      vertex -50.3763 3.8147e-07 -49.9818
      vertex -50.75 3.8147e-07 -50.75
      vertex -50.309 3.8147e-07 -50.0878
    endloop
  endfacet
  facet normal 0 -1 -0
    outer loop
      vertex -50.4298 3.8147e-07 -49.8681
      vertex -50.75 3.8147e-07 -50.75
      vertex -50.3763 3.8147e-07 -49.9818
    endloop
  endfacet
  facet normal 0 -1 -0
    outer loop
      vertex -50.4686 3.8147e-07 -49.7487
      vertex -50.75 3.8147e-07 -50.75
      vertex -50.4298 3.8147e-07 -49.8681
    endloop
  endfacet
  facet normal 0 -1 -0
    outer loop
      vertex -50.4921 3.8147e-07 -49.6253
      vertex -50.75 3.8147e-07 -50.75
      vertex -50.4686 3.8147e-07 -49.7487
    endloop
  endfacet
  facet normal 0 -1 -0
    outer loop
      vertex -50.5 3.8147e-07 -49.5
      vertex -50.75 3.8147e-07 -50.75
      vertex -50.4921 3.8147e-07 -49.6253
    endloop
  endfacet
  facet normal 0 -1 0
    outer loop
      vertex -50.75 3.8147e-07 -50.75
      vertex -50.5 3.8147e-07 -49.5
      vertex -50.75 3.8147e-07 50.75
    endloop
  endfacet
  facet normal 0 -1 0
    outer loop
      vertex 49.5628 3.8147e-07 50.498
      vertex 50.75 3.8147e-07 50.75
      vertex -49.5628 3.8147e-07 50.498
    endloop
  endfacet
  facet normal 0 -1 0
    outer loop
      vertex 49.6874 3.8147e-07 50.4823
      vertex 50.75 3.8147e-07 50.75
      vertex 49.5628 3.8147e-07 50.498
    endloop
  endfacet
  facet normal 0 -1 0
    outer loop
      vertex 49.809 3.8147e-07 50.4511
      vertex 50.75 3.8147e-07 50.75
      vertex 49.6874 3.8147e-07 50.4823
    endloop
  endfacet
  facet normal 0 -1 0
    outer loop
      vertex 49.9258 3.8147e-07 50.4048
      vertex 50.75 3.8147e-07 50.75
      vertex 49.809 3.8147e-07 50.4511
    endloop
  endfacet
  facet normal 0 -1 0
    outer loop
      vertex 50.0358 3.8147e-07 50.3443
      vertex 50.75 3.8147e-07 50.75
      vertex 49.9258 3.8147e-07 50.4048
    endloop
  endfacet
  facet normal 0 -1 0
    outer loop
      vertex 50.1374 3.8147e-07 50.2705
      vertex 50.75 3.8147e-07 50.75
      vertex 50.0358 3.8147e-07 50.3443
    endloop
  endfacet
  facet normal 0 -1 0
    outer loop
      vertex 50.229 3.8147e-07 50.1845
      vertex 50.75 3.8147e-07 50.75
      vertex 50.1374 3.8147e-07 50.2705
    endloop
  endfacet
  facet normal 0 -1 0
    outer loop
      vertex 50.309 3.8147e-07 50.0878
      vertex 50.75 3.8147e-07 50.75
      vertex 50.229 3.8147e-07 50.1845
    endloop
  endfacet
  facet normal 0 -1 0
    outer loop
      vertex 50.3763 3.8147e-07 49.9818
      vertex 50.75 3.8147e-07 50.75
      vertex 50.309 3.8147e-07 50.0878
    endloop
  endfacet
  facet normal 0 -1 0
    outer loop
      vertex 50.4298 3.8147e-07 49.8681
      vertex 50.75 3.8147e-07 50.75
      vertex 50.3763 3.8147e-07 49.9818
    endloop
  endfacet
  facet normal 0 -1 0
    outer loop
      vertex 50.4686 3.8147e-07 49.7487
      vertex 50.75 3.8147e-07 50.75
      vertex 50.4298 3.8147e-07 49.8681
    endloop
  endfacet
  facet normal 0 -1 0
    outer loop
      vertex 50.4921 3.8147e-07 49.6253
      vertex 50.75 3.8147e-07 50.75
      vertex 50.4686 3.8147e-07 49.7487
    endloop
  endfacet
  facet normal 0 -1 0
    outer loop
      vertex 50.5 3.8147e-07 49.5
      vertex 50.75 3.8147e-07 50.75
      vertex 50.4921 3.8147e-07 49.6253
    endloop
  endfacet
  facet normal -1.43544e-15 -1 2.87088e-16
    outer loop
      vertex 50.5 3.8147e-07 -49.5
      vertex 50.75 3.8147e-07 50.75
      vertex 50.5 3.8147e-07 49.5
    endloop
  endfacet
  facet normal 1.40008e-15 -1 2.80017e-16
    outer loop
      vertex 50.5 3.8147e-07 -49.5
      vertex 50.75 3.8147e-07 -50.75
      vertex 50.75 3.8147e-07 50.75
    endloop
  endfacet
  facet normal 0 -1 0
    outer loop
      vertex 50.4921 3.8147e-07 -49.6253
      vertex 50.75 3.8147e-07 -50.75
      vertex 50.5 3.8147e-07 -49.5
    endloop
  endfacet
  facet normal 0 -1 0
    outer loop
      vertex 50.4686 3.8147e-07 -49.7487
      vertex 50.75 3.8147e-07 -50.75
      vertex 50.4921 3.8147e-07 -49.6253
    endloop
  endfacet
  facet normal 0 -1 0
    outer loop
      vertex 50.4298 3.8147e-07 -49.8681
      vertex 50.75 3.8147e-07 -50.75
      vertex 50.4686 3.8147e-07 -49.7487
    endloop
  endfacet
  facet normal 0 -1 0
    outer loop
      vertex 50.3763 3.8147e-07 -49.9818
      vertex 50.75 3.8147e-07 -50.75
      vertex 50.4298 3.8147e-07 -49.8681
    endloop
  endfacet
  facet normal 0 -1 0
    outer loop
      vertex 50.309 3.8147e-07 -50.0878
      vertex 50.75 3.8147e-07 -50.75
      vertex 50.3763 3.8147e-07 -49.9818
    endloop
  endfacet
  facet normal 0 -1 0
    outer loop
      vertex 50.229 3.8147e-07 -50.1845
      vertex 50.75 3.8147e-07 -50.75
      vertex 50.309 3.8147e-07 -50.0878
    endloop
  endfacet
  facet normal 0 -1 0
    outer loop
      vertex 50.1374 3.8147e-07 -50.2705
      vertex 50.75 3.8147e-07 -50.75
      vertex 50.229 3.8147e-07 -50.1845
    endloop
  endfacet
  facet normal 0 -1 0
    outer loop
      vertex 50.0358 3.8147e-07 -50.3443
      vertex 50.75 3.8147e-07 -50.75
      vertex 50.1374 3.8147e-07 -50.2705
    endloop
  endfacet
  facet normal 0 -1 0
    outer loop
      vertex 49.9258 3.8147e-07 -50.4048
      vertex 50.75 3.8147e-07 -50.75
      vertex 50.0358 3.8147e-07 -50.3443
    endloop
  endfacet
  facet normal 0 -1 0
    outer loop
      vertex 49.809 3.8147e-07 -50.4511
      vertex 50.75 3.8147e-07 -50.75
      vertex 49.9258 3.8147e-07 -50.4048
    endloop
  endfacet
  facet normal 0 -1 0
    outer loop
      vertex 49.6874 3.8147e-07 -50.4823
      vertex 50.75 3.8147e-07 -50.75
      vertex 49.809 3.8147e-07 -50.4511
    endloop
  endfacet
  facet normal 0 -1 0
    outer loop
      vertex 49.5628 3.8147e-07 -50.498
      vertex 50.75 3.8147e-07 -50.75
      vertex 49.6874 3.8147e-07 -50.4823
    endloop
  endfacet
  facet normal -2.80017e-16 -1 -1.31933e-15
    outer loop
      vertex 50.75 3.8147e-07 -50.75
      vertex 49.5628 3.8147e-07 -50.498
      vertex -50.75 3.8147e-07 -50.75
    endloop
  endfacet
  facet normal 0.844328 0 -0.535827
    outer loop
      vertex 52.3789 5.22 -51.1953
      vertex 52.1771 8.55 -51.5134
      vertex 52.3789 8.55 -51.1953
    endloop
  endfacet
  facet normal 0.844328 0 -0.535827
    outer loop
      vertex 52.1771 8.55 -51.5134
      vertex 52.3789 5.22 -51.1953
      vertex 52.1771 5.22 -51.5134
    endloop
  endfacet
  facet normal 0.587785 0 -0.809017
    outer loop
      vertex 51.3575 5.22 -52.283
      vertex 51.6623 8.55 -52.0615
      vertex 51.6623 5.22 -52.0615
    endloop
  endfacet
  facet normal 0.587785 0 -0.809017
    outer loop
      vertex 51.6623 8.55 -52.0615
      vertex 51.3575 5.22 -52.283
      vertex 51.3575 8.55 -52.283
    endloop
  endfacet
  facet normal 0.982289 -0 0.187373
    outer loop
      vertex 52.6558 5.22 50.4961
      vertex 52.7263 8.55 50.126
      vertex 52.6558 8.55 50.4961
    endloop
  endfacet
  facet normal 0.982289 0 0.187373
    outer loop
      vertex 52.7263 8.55 50.126
      vertex 52.6558 5.22 50.4961
      vertex 52.7263 5.22 50.126
    endloop
  endfacet
  facet normal 0.998026 -0 0.0627981
    outer loop
      vertex 52.7263 5.22 50.126
      vertex 52.75 8.55 49.75
      vertex 52.7263 8.55 50.126
    endloop
  endfacet
  facet normal 0.998026 0 0.0627981
    outer loop
      vertex 52.75 8.55 49.75
      vertex 52.7263 5.22 50.126
      vertex 52.75 5.22 49.75
    endloop
  endfacet
  facet normal 0.951057 -0 0.309016
    outer loop
      vertex 52.5393 5.22 50.8544
      vertex 52.6558 8.55 50.4961
      vertex 52.5393 8.55 50.8544
    endloop
  endfacet
  facet normal 0.951057 0 0.309016
    outer loop
      vertex 52.6558 8.55 50.4961
      vertex 52.5393 5.22 50.8544
      vertex 52.6558 5.22 50.4961
    endloop
  endfacet
  facet normal -0.998026 0 0.0627981
    outer loop
      vertex -52.75 5.22 49.75
      vertex -52.7263 8.55 50.126
      vertex -52.75 8.55 49.75
    endloop
  endfacet
  facet normal -0.998026 0 0.0627981
    outer loop
      vertex -52.7263 8.55 50.126
      vertex -52.75 5.22 49.75
      vertex -52.7263 5.22 50.126
    endloop
  endfacet
  facet normal -0.904824 0 0.425787
    outer loop
      vertex -52.5393 5.22 50.8544
      vertex -52.3789 8.55 51.1953
      vertex -52.5393 8.55 50.8544
    endloop
  endfacet
  facet normal -0.904824 0 0.425787
    outer loop
      vertex -52.3789 8.55 51.1953
      vertex -52.5393 5.22 50.8544
      vertex -52.3789 5.22 51.1953
    endloop
  endfacet
  facet normal -0.684548 0 0.728968
    outer loop
      vertex -51.9369 8.55 51.8036
      vertex -51.6623 5.22 52.0615
      vertex -51.6623 8.55 52.0615
    endloop
  endfacet
  facet normal -0.684548 0 0.728968
    outer loop
      vertex -51.6623 5.22 52.0615
      vertex -51.9369 8.55 51.8036
      vertex -51.9369 5.22 51.8036
    endloop
  endfacet
  facet normal 0.248689 0 0.968583
    outer loop
      vertex 50.3121 8.55 52.6969
      vertex 50.6771 5.22 52.6032
      vertex 50.6771 8.55 52.6032
    endloop
  endfacet
  facet normal 0.248689 0 0.968583
    outer loop
      vertex 50.6771 5.22 52.6032
      vertex 50.3121 8.55 52.6969
      vertex 50.3121 5.22 52.6969
    endloop
  endfacet
  facet normal 0.481757 0 0.876305
    outer loop
      vertex 51.0273 8.55 52.4645
      vertex 51.3575 5.22 52.283
      vertex 51.3575 8.55 52.283
    endloop
  endfacet
  facet normal 0.481757 0 0.876305
    outer loop
      vertex 51.3575 5.22 52.283
      vertex 51.0273 8.55 52.4645
      vertex 51.0273 5.22 52.4645
    endloop
  endfacet
  facet normal 0.587785 0 0.809017
    outer loop
      vertex 51.3575 8.55 52.283
      vertex 51.6623 5.22 52.0615
      vertex 51.6623 8.55 52.0615
    endloop
  endfacet
  facet normal 0.587785 0 0.809017
    outer loop
      vertex 51.6623 5.22 52.0615
      vertex 51.3575 8.55 52.283
      vertex 51.3575 5.22 52.283
    endloop
  endfacet
  facet normal -0.844333 0 -0.53582
    outer loop
      vertex -52.1771 5.22 -51.5134
      vertex -52.3789 8.55 -51.1953
      vertex -52.1771 8.55 -51.5134
    endloop
  endfacet
  facet normal -0.844333 -0 -0.53582
    outer loop
      vertex -52.3789 8.55 -51.1953
      vertex -52.1771 5.22 -51.5134
      vertex -52.3789 5.22 -51.1953
    endloop
  endfacet
  facet normal -0.248689 0 -0.968583
    outer loop
      vertex -50.6771 5.22 -52.6032
      vertex -50.3121 8.55 -52.6969
      vertex -50.3121 5.22 -52.6969
    endloop
  endfacet
  facet normal -0.248689 0 -0.968583
    outer loop
      vertex -50.3121 8.55 -52.6969
      vertex -50.6771 5.22 -52.6032
      vertex -50.6771 8.55 -52.6032
    endloop
  endfacet
  facet normal -0.125333 0 -0.992115
    outer loop
      vertex -50.3121 5.22 -52.6969
      vertex -49.9384 8.55 -52.7441
      vertex -49.9384 5.22 -52.7441
    endloop
  endfacet
  facet normal -0.125333 0 -0.992115
    outer loop
      vertex -49.9384 8.55 -52.7441
      vertex -50.3121 5.22 -52.6969
      vertex -50.3121 8.55 -52.6969
    endloop
  endfacet
  facet normal -0.587785 0 -0.809017
    outer loop
      vertex -51.6623 5.22 -52.0615
      vertex -51.3575 8.55 -52.283
      vertex -51.3575 5.22 -52.283
    endloop
  endfacet
  facet normal -0.587785 0 -0.809017
    outer loop
      vertex -51.3575 8.55 -52.283
      vertex -51.6623 5.22 -52.0615
      vertex -51.6623 8.55 -52.0615
    endloop
  endfacet
  facet normal 0.982289 0 -0.187371
    outer loop
      vertex 52.7263 5.22 -50.126
      vertex 52.6558 8.55 -50.4961
      vertex 52.7263 8.55 -50.126
    endloop
  endfacet
  facet normal 0.982289 0 -0.187371
    outer loop
      vertex 52.6558 8.55 -50.4961
      vertex 52.7263 5.22 -50.126
      vertex 52.6558 5.22 -50.4961
    endloop
  endfacet
  facet normal 0.481757 0 -0.876305
    outer loop
      vertex 51.0273 5.22 -52.4645
      vertex 51.3575 8.55 -52.283
      vertex 51.3575 5.22 -52.283
    endloop
  endfacet
  facet normal 0.481757 0 -0.876305
    outer loop
      vertex 51.3575 8.55 -52.283
      vertex 51.0273 5.22 -52.4645
      vertex 51.0273 8.55 -52.4645
    endloop
  endfacet
  facet normal 0.125333 0 -0.992115
    outer loop
      vertex 49.9384 5.22 -52.7441
      vertex 50.3121 8.55 -52.6969
      vertex 50.3121 5.22 -52.6969
    endloop
  endfacet
  facet normal 0.125333 0 -0.992115
    outer loop
      vertex 50.3121 8.55 -52.6969
      vertex 49.9384 5.22 -52.7441
      vertex 49.9384 8.55 -52.7441
    endloop
  endfacet
  facet normal 0.248689 0 -0.968583
    outer loop
      vertex 50.3121 5.22 -52.6969
      vertex 50.6771 8.55 -52.6032
      vertex 50.6771 5.22 -52.6032
    endloop
  endfacet
  facet normal 0.248689 0 -0.968583
    outer loop
      vertex 50.6771 8.55 -52.6032
      vertex 50.3121 5.22 -52.6969
      vertex 50.3121 8.55 -52.6969
    endloop
  endfacet
  facet normal 0.844328 -0 0.535827
    outer loop
      vertex 52.1771 5.22 51.5134
      vertex 52.3789 8.55 51.1953
      vertex 52.1771 8.55 51.5134
    endloop
  endfacet
  facet normal 0.844328 0 0.535827
    outer loop
      vertex 52.3789 8.55 51.1953
      vertex 52.1771 5.22 51.5134
      vertex 52.3789 5.22 51.1953
    endloop
  endfacet
  facet normal 0.770509 -0 0.637429
    outer loop
      vertex 51.9369 5.22 51.8036
      vertex 52.1771 8.55 51.5134
      vertex 51.9369 8.55 51.8036
    endloop
  endfacet
  facet normal 0.770509 0 0.637429
    outer loop
      vertex 52.1771 8.55 51.5134
      vertex 51.9369 5.22 51.8036
      vertex 52.1771 5.22 51.5134
    endloop
  endfacet
  facet normal -0.982289 0 0.187373
    outer loop
      vertex -52.7263 5.22 50.126
      vertex -52.6558 8.55 50.4961
      vertex -52.7263 8.55 50.126
    endloop
  endfacet
  facet normal -0.982289 0 0.187373
    outer loop
      vertex -52.6558 8.55 50.4961
      vertex -52.7263 5.22 50.126
      vertex -52.6558 5.22 50.4961
    endloop
  endfacet
  facet normal -0.844333 0 0.53582
    outer loop
      vertex -52.3789 5.22 51.1953
      vertex -52.1771 8.55 51.5134
      vertex -52.3789 8.55 51.1953
    endloop
  endfacet
  facet normal -0.844333 0 0.53582
    outer loop
      vertex -52.1771 8.55 51.5134
      vertex -52.3789 5.22 51.1953
      vertex -52.1771 5.22 51.5134
    endloop
  endfacet
  facet normal -0.368124 0 0.929777
    outer loop
      vertex -51.0273 8.55 52.4645
      vertex -50.6771 5.22 52.6032
      vertex -50.6771 8.55 52.6032
    endloop
  endfacet
  facet normal -0.368124 0 0.929777
    outer loop
      vertex -50.6771 5.22 52.6032
      vertex -51.0273 8.55 52.4645
      vertex -51.0273 5.22 52.4645
    endloop
  endfacet
  facet normal -0.125333 0 0.992115
    outer loop
      vertex -50.3121 8.55 52.6969
      vertex -49.9384 5.22 52.7441
      vertex -49.9384 8.55 52.7441
    endloop
  endfacet
  facet normal -0.125333 0 0.992115
    outer loop
      vertex -49.9384 5.22 52.7441
      vertex -50.3121 8.55 52.6969
      vertex -50.3121 5.22 52.6969
    endloop
  endfacet
  facet normal -0.481757 0 0.876305
    outer loop
      vertex -51.3575 8.55 52.283
      vertex -51.0273 5.22 52.4645
      vertex -51.0273 8.55 52.4645
    endloop
  endfacet
  facet normal -0.481757 0 0.876305
    outer loop
      vertex -51.0273 5.22 52.4645
      vertex -51.3575 8.55 52.283
      vertex -51.3575 5.22 52.283
    endloop
  endfacet
  facet normal 0.125333 0 0.992115
    outer loop
      vertex 49.9384 8.55 52.7441
      vertex 50.3121 5.22 52.6969
      vertex 50.3121 8.55 52.6969
    endloop
  endfacet
  facet normal 0.125333 0 0.992115
    outer loop
      vertex 50.3121 5.22 52.6969
      vertex 49.9384 8.55 52.7441
      vertex 49.9384 5.22 52.7441
    endloop
  endfacet
  facet normal -0.248689 0 0.968583
    outer loop
      vertex -50.6771 8.55 52.6032
      vertex -50.3121 5.22 52.6969
      vertex -50.3121 8.55 52.6969
    endloop
  endfacet
  facet normal -0.248689 0 0.968583
    outer loop
      vertex -50.3121 5.22 52.6969
      vertex -50.6771 8.55 52.6032
      vertex -50.6771 5.22 52.6032
    endloop
  endfacet
  facet normal -0.587785 0 0.809017
    outer loop
      vertex -51.6623 8.55 52.0615
      vertex -51.3575 5.22 52.283
      vertex -51.3575 8.55 52.283
    endloop
  endfacet
  facet normal -0.587785 0 0.809017
    outer loop
      vertex -51.3575 5.22 52.283
      vertex -51.6623 8.55 52.0615
      vertex -51.6623 5.22 52.0615
    endloop
  endfacet
  facet normal 1 -0 0
    outer loop
      vertex -50.5 3.8147e-07 49.5
      vertex -50.5 8.55 -49.5
      vertex -50.5 8.55 49.5
    endloop
  endfacet
  facet normal 1 0 0
    outer loop
      vertex -50.5 8.55 -49.5
      vertex -50.5 3.8147e-07 49.5
      vertex -50.5 3.8147e-07 -49.5
    endloop
  endfacet
  facet normal 0.998027 -0 0.0627887
    outer loop
      vertex -50.5 3.8147e-07 -49.5
      vertex -50.4921 8.55 -49.6253
      vertex -50.5 8.55 -49.5
    endloop
  endfacet
  facet normal 0.998027 0 0.0627887
    outer loop
      vertex -50.4921 8.55 -49.6253
      vertex -50.5 3.8147e-07 -49.5
      vertex -50.4921 3.8147e-07 -49.6253
    endloop
  endfacet
  facet normal 0.125332 0 0.992115
    outer loop
      vertex -49.6874 8.55 -50.4823
      vertex -49.5628 3.8147e-07 -50.498
      vertex -49.5628 8.55 -50.498
    endloop
  endfacet
  facet normal 0.125332 0 0.992115
    outer loop
      vertex -49.5628 3.8147e-07 -50.498
      vertex -49.6874 8.55 -50.4823
      vertex -49.6874 3.8147e-07 -50.4823
    endloop
  endfacet
  facet normal -0.684537 0 -0.728978
    outer loop
      vertex 50.1374 3.8147e-07 50.2705
      vertex 50.229 8.55 50.1845
      vertex 50.229 3.8147e-07 50.1845
    endloop
  endfacet
  facet normal -0.684537 0 -0.728978
    outer loop
      vertex 50.229 8.55 50.1845
      vertex 50.1374 3.8147e-07 50.2705
      vertex 50.1374 8.55 50.2705
    endloop
  endfacet
  facet normal -1 0 0
    outer loop
      vertex 50.5 8.55 -49.5
      vertex 50.5 3.8147e-07 49.5
      vertex 50.5 8.55 49.5
    endloop
  endfacet
  facet normal -1 0 -0
    outer loop
      vertex 50.5 3.8147e-07 49.5
      vertex 50.5 8.55 -49.5
      vertex 50.5 3.8147e-07 -49.5
    endloop
  endfacet
  facet normal -0.368136 0 0.929772
    outer loop
      vertex 49.809 8.55 -50.4511
      vertex 49.9258 3.8147e-07 -50.4048
      vertex 49.9258 8.55 -50.4048
    endloop
  endfacet
  facet normal -0.368136 0 0.929772
    outer loop
      vertex 49.9258 3.8147e-07 -50.4048
      vertex 49.809 8.55 -50.4511
      vertex 49.809 3.8147e-07 -50.4511
    endloop
  endfacet
  facet normal 0.770522 -0 0.637414
    outer loop
      vertex -50.309 3.8147e-07 -50.0878
      vertex -50.229 8.55 -50.1845
      vertex -50.309 8.55 -50.0878
    endloop
  endfacet
  facet normal 0.770522 0 0.637414
    outer loop
      vertex -50.229 8.55 -50.1845
      vertex -50.309 3.8147e-07 -50.0878
      vertex -50.229 3.8147e-07 -50.1845
    endloop
  endfacet
  facet normal -0 0 1
    outer loop
      vertex -49.5628 8.55 -50.498
      vertex 49.5628 3.8147e-07 -50.498
      vertex 49.5628 8.55 -50.498
    endloop
  endfacet
  facet normal 0 0 1
    outer loop
      vertex 49.5628 3.8147e-07 -50.498
      vertex -49.5628 8.55 -50.498
      vertex -49.5628 3.8147e-07 -50.498
    endloop
  endfacet
  facet normal 0 0 -1
    outer loop
      vertex -49.5628 3.8147e-07 50.498
      vertex 49.5628 8.55 50.498
      vertex 49.5628 3.8147e-07 50.498
    endloop
  endfacet
  facet normal -0 0 -1
    outer loop
      vertex 49.5628 8.55 50.498
      vertex -49.5628 3.8147e-07 50.498
      vertex -49.5628 8.55 50.498
    endloop
  endfacet
  facet normal 0.951059 -0 0.309011
    outer loop
      vertex -50.4686 3.8147e-07 -49.7487
      vertex -50.4298 8.55 -49.8681
      vertex -50.4686 8.55 -49.7487
    endloop
  endfacet
  facet normal 0.951059 0 0.309011
    outer loop
      vertex -50.4298 8.55 -49.8681
      vertex -50.4686 3.8147e-07 -49.7487
      vertex -50.4298 3.8147e-07 -49.8681
    endloop
  endfacet
  facet normal 0.481757 0 0.876305
    outer loop
      vertex -50.0358 8.55 -50.3443
      vertex -49.9258 3.8147e-07 -50.4048
      vertex -49.9258 8.55 -50.4048
    endloop
  endfacet
  facet normal 0.481757 0 0.876305
    outer loop
      vertex -49.9258 3.8147e-07 -50.4048
      vertex -50.0358 8.55 -50.3443
      vertex -50.0358 3.8147e-07 -50.3443
    endloop
  endfacet
  facet normal -0.904824 0 0.425787
    outer loop
      vertex 50.3763 3.8147e-07 -49.9818
      vertex 50.4298 8.55 -49.8681
      vertex 50.3763 8.55 -49.9818
    endloop
  endfacet
  facet normal -0.904824 0 0.425787
    outer loop
      vertex 50.4298 8.55 -49.8681
      vertex 50.3763 3.8147e-07 -49.9818
      vertex 50.4298 3.8147e-07 -49.8681
    endloop
  endfacet
  facet normal -0.770522 0 0.637414
    outer loop
      vertex 50.229 3.8147e-07 -50.1845
      vertex 50.309 8.55 -50.0878
      vertex 50.229 8.55 -50.1845
    endloop
  endfacet
  facet normal -0.770522 0 0.637414
    outer loop
      vertex 50.309 8.55 -50.0878
      vertex 50.229 3.8147e-07 -50.1845
      vertex 50.309 3.8147e-07 -50.0878
    endloop
  endfacet
  facet normal -0.481757 0 0.876305
    outer loop
      vertex 49.9258 8.55 -50.4048
      vertex 50.0358 3.8147e-07 -50.3443
      vertex 50.0358 8.55 -50.3443
    endloop
  endfacet
  facet normal -0.481757 0 0.876305
    outer loop
      vertex 50.0358 3.8147e-07 -50.3443
      vertex 49.9258 8.55 -50.4048
      vertex 49.9258 3.8147e-07 -50.4048
    endloop
  endfacet
  facet normal -0.904829 0 -0.425775
    outer loop
      vertex 50.4298 3.8147e-07 49.8681
      vertex 50.3763 8.55 49.9818
      vertex 50.4298 8.55 49.8681
    endloop
  endfacet
  facet normal -0.904829 -0 -0.425775
    outer loop
      vertex 50.3763 8.55 49.9818
      vertex 50.4298 3.8147e-07 49.8681
      vertex 50.3763 3.8147e-07 49.9818
    endloop
  endfacet
  facet normal -0.368136 0 -0.929772
    outer loop
      vertex 49.809 3.8147e-07 50.4511
      vertex 49.9258 8.55 50.4048
      vertex 49.9258 3.8147e-07 50.4048
    endloop
  endfacet
  facet normal -0.368136 0 -0.929772
    outer loop
      vertex 49.9258 8.55 50.4048
      vertex 49.809 3.8147e-07 50.4511
      vertex 49.809 8.55 50.4511
    endloop
  endfacet
  facet normal 0.770522 0 -0.637414
    outer loop
      vertex -50.229 3.8147e-07 50.1845
      vertex -50.309 8.55 50.0878
      vertex -50.229 8.55 50.1845
    endloop
  endfacet
  facet normal 0.770522 0 -0.637414
    outer loop
      vertex -50.309 8.55 50.0878
      vertex -50.229 3.8147e-07 50.1845
      vertex -50.309 3.8147e-07 50.0878
    endloop
  endfacet
  facet normal -0.481757 0 -0.876305
    outer loop
      vertex 49.9258 3.8147e-07 50.4048
      vertex 50.0358 8.55 50.3443
      vertex 50.0358 3.8147e-07 50.3443
    endloop
  endfacet
  facet normal -0.481757 0 -0.876305
    outer loop
      vertex 50.0358 8.55 50.3443
      vertex 49.9258 3.8147e-07 50.4048
      vertex 49.9258 8.55 50.4048
    endloop
  endfacet
  facet normal 0.982285 -0 0.187393
    outer loop
      vertex -50.4921 3.8147e-07 -49.6253
      vertex -50.4686 8.55 -49.7487
      vertex -50.4921 8.55 -49.6253
    endloop
  endfacet
  facet normal 0.982285 0 0.187393
    outer loop
      vertex -50.4686 8.55 -49.7487
      vertex -50.4921 3.8147e-07 -49.6253
      vertex -50.4686 3.8147e-07 -49.7487
    endloop
  endfacet
  facet normal 0.904824 -0 0.425787
    outer loop
      vertex -50.4298 3.8147e-07 -49.8681
      vertex -50.3763 8.55 -49.9818
      vertex -50.4298 8.55 -49.8681
    endloop
  endfacet
  facet normal 0.904824 0 0.425787
    outer loop
      vertex -50.3763 8.55 -49.9818
      vertex -50.4298 3.8147e-07 -49.8681
      vertex -50.3763 3.8147e-07 -49.9818
    endloop
  endfacet
  facet normal 0.368136 0 0.929772
    outer loop
      vertex -49.9258 8.55 -50.4048
      vertex -49.809 3.8147e-07 -50.4511
      vertex -49.809 8.55 -50.4511
    endloop
  endfacet
  facet normal 0.368136 0 0.929772
    outer loop
      vertex -49.809 3.8147e-07 -50.4511
      vertex -49.9258 8.55 -50.4048
      vertex -49.9258 3.8147e-07 -50.4048
    endloop
  endfacet
  facet normal -0.951059 0 0.309011
    outer loop
      vertex 50.4298 3.8147e-07 -49.8681
      vertex 50.4686 8.55 -49.7487
      vertex 50.4298 8.55 -49.8681
    endloop
  endfacet
  facet normal -0.951059 0 0.309011
    outer loop
      vertex 50.4686 8.55 -49.7487
      vertex 50.4298 3.8147e-07 -49.8681
      vertex 50.4686 3.8147e-07 -49.7487
    endloop
  endfacet
  facet normal -0.844331 0 0.535822
    outer loop
      vertex 50.309 3.8147e-07 -50.0878
      vertex 50.3763 8.55 -49.9818
      vertex 50.309 8.55 -50.0878
    endloop
  endfacet
  facet normal -0.844331 0 0.535822
    outer loop
      vertex 50.3763 8.55 -49.9818
      vertex 50.309 3.8147e-07 -50.0878
      vertex 50.3763 3.8147e-07 -49.9818
    endloop
  endfacet
  facet normal -0.684537 0 0.728978
    outer loop
      vertex 50.1374 8.55 -50.2705
      vertex 50.229 3.8147e-07 -50.1845
      vertex 50.229 8.55 -50.1845
    endloop
  endfacet
  facet normal -0.684537 0 0.728978
    outer loop
      vertex 50.229 3.8147e-07 -50.1845
      vertex 50.1374 8.55 -50.2705
      vertex 50.1374 3.8147e-07 -50.2705
    endloop
  endfacet
  facet normal -0.982285 0 -0.187393
    outer loop
      vertex 50.4921 3.8147e-07 49.6253
      vertex 50.4686 8.55 49.7487
      vertex 50.4921 8.55 49.6253
    endloop
  endfacet
  facet normal -0.982285 -0 -0.187393
    outer loop
      vertex 50.4686 8.55 49.7487
      vertex 50.4921 3.8147e-07 49.6253
      vertex 50.4686 3.8147e-07 49.7487
    endloop
  endfacet
  facet normal -0.998027 0 -0.0627887
    outer loop
      vertex 50.5 3.8147e-07 49.5
      vertex 50.4921 8.55 49.6253
      vertex 50.5 8.55 49.5
    endloop
  endfacet
  facet normal -0.998027 -0 -0.0627887
    outer loop
      vertex 50.4921 8.55 49.6253
      vertex 50.5 3.8147e-07 49.5
      vertex 50.4921 3.8147e-07 49.6253
    endloop
  endfacet
  facet normal -0.951056 0 -0.309019
    outer loop
      vertex 50.4686 3.8147e-07 49.7487
      vertex 50.4298 8.55 49.8681
      vertex 50.4686 8.55 49.7487
    endloop
  endfacet
  facet normal -0.951056 -0 -0.309019
    outer loop
      vertex 50.4298 8.55 49.8681
      vertex 50.4686 3.8147e-07 49.7487
      vertex 50.4298 3.8147e-07 49.8681
    endloop
  endfacet
  facet normal 0.998027 0 -0.0627887
    outer loop
      vertex -50.4921 3.8147e-07 49.6253
      vertex -50.5 8.55 49.5
      vertex -50.4921 8.55 49.6253
    endloop
  endfacet
  facet normal 0.998027 0 -0.0627887
    outer loop
      vertex -50.5 8.55 49.5
      vertex -50.4921 3.8147e-07 49.6253
      vertex -50.5 3.8147e-07 49.5
    endloop
  endfacet
  facet normal 0.951056 0 -0.309019
    outer loop
      vertex -50.4298 3.8147e-07 49.8681
      vertex -50.4686 8.55 49.7487
      vertex -50.4298 8.55 49.8681
    endloop
  endfacet
  facet normal 0.951056 0 -0.309019
    outer loop
      vertex -50.4686 8.55 49.7487
      vertex -50.4298 3.8147e-07 49.8681
      vertex -50.4686 3.8147e-07 49.7487
    endloop
  endfacet
  facet normal 0.904829 0 -0.425775
    outer loop
      vertex -50.3763 3.8147e-07 49.9818
      vertex -50.4298 8.55 49.8681
      vertex -50.3763 8.55 49.9818
    endloop
  endfacet
  facet normal 0.904829 0 -0.425775
    outer loop
      vertex -50.4298 8.55 49.8681
      vertex -50.3763 3.8147e-07 49.9818
      vertex -50.4298 3.8147e-07 49.8681
    endloop
  endfacet
  facet normal -0.125332 0 -0.992115
    outer loop
      vertex 49.5628 3.8147e-07 50.498
      vertex 49.6874 8.55 50.4823
      vertex 49.6874 3.8147e-07 50.4823
    endloop
  endfacet
  facet normal -0.125332 0 -0.992115
    outer loop
      vertex 49.6874 8.55 50.4823
      vertex 49.5628 3.8147e-07 50.498
      vertex 49.5628 8.55 50.498
    endloop
  endfacet
  facet normal -0.248663 0 -0.96859
    outer loop
      vertex 49.6874 3.8147e-07 50.4823
      vertex 49.809 8.55 50.4511
      vertex 49.809 3.8147e-07 50.4511
    endloop
  endfacet
  facet normal -0.248663 0 -0.96859
    outer loop
      vertex 49.809 8.55 50.4511
      vertex 49.6874 3.8147e-07 50.4823
      vertex 49.6874 8.55 50.4823
    endloop
  endfacet
  facet normal -0.587785 0 -0.809017
    outer loop
      vertex 50.0358 3.8147e-07 50.3443
      vertex 50.1374 8.55 50.2705
      vertex 50.1374 3.8147e-07 50.2705
    endloop
  endfacet
  facet normal -0.587785 0 -0.809017
    outer loop
      vertex 50.1374 8.55 50.2705
      vertex 50.0358 3.8147e-07 50.3443
      vertex 50.0358 8.55 50.3443
    endloop
  endfacet
  facet normal 0.844331 -0 0.535822
    outer loop
      vertex -50.3763 3.8147e-07 -49.9818
      vertex -50.309 8.55 -50.0878
      vertex -50.3763 8.55 -49.9818
    endloop
  endfacet
  facet normal 0.844331 0 0.535822
    outer loop
      vertex -50.309 8.55 -50.0878
      vertex -50.3763 3.8147e-07 -49.9818
      vertex -50.309 3.8147e-07 -50.0878
    endloop
  endfacet
  facet normal 0.248663 0 0.96859
    outer loop
      vertex -49.809 8.55 -50.4511
      vertex -49.6874 3.8147e-07 -50.4823
      vertex -49.6874 8.55 -50.4823
    endloop
  endfacet
  facet normal 0.248663 0 0.96859
    outer loop
      vertex -49.6874 3.8147e-07 -50.4823
      vertex -49.809 8.55 -50.4511
      vertex -49.809 3.8147e-07 -50.4511
    endloop
  endfacet
  facet normal 0.684537 0 0.728978
    outer loop
      vertex -50.229 8.55 -50.1845
      vertex -50.1374 3.8147e-07 -50.2705
      vertex -50.1374 8.55 -50.2705
    endloop
  endfacet
  facet normal 0.684537 0 0.728978
    outer loop
      vertex -50.1374 3.8147e-07 -50.2705
      vertex -50.229 8.55 -50.1845
      vertex -50.229 3.8147e-07 -50.1845
    endloop
  endfacet
  facet normal 0.587785 0 0.809017
    outer loop
      vertex -50.1374 8.55 -50.2705
      vertex -50.0358 3.8147e-07 -50.3443
      vertex -50.0358 8.55 -50.3443
    endloop
  endfacet
  facet normal 0.587785 0 0.809017
    outer loop
      vertex -50.0358 3.8147e-07 -50.3443
      vertex -50.1374 8.55 -50.2705
      vertex -50.1374 3.8147e-07 -50.2705
    endloop
  endfacet
  facet normal -0.982285 0 0.187393
    outer loop
      vertex 50.4686 3.8147e-07 -49.7487
      vertex 50.4921 8.55 -49.6253
      vertex 50.4686 8.55 -49.7487
    endloop
  endfacet
  facet normal -0.982285 0 0.187393
    outer loop
      vertex 50.4921 8.55 -49.6253
      vertex 50.4686 3.8147e-07 -49.7487
      vertex 50.4921 3.8147e-07 -49.6253
    endloop
  endfacet
  facet normal -0.998027 0 0.0627887
    outer loop
      vertex 50.4921 3.8147e-07 -49.6253
      vertex 50.5 8.55 -49.5
      vertex 50.4921 8.55 -49.6253
    endloop
  endfacet
  facet normal -0.998027 0 0.0627887
    outer loop
      vertex 50.5 8.55 -49.5
      vertex 50.4921 3.8147e-07 -49.6253
      vertex 50.5 3.8147e-07 -49.5
    endloop
  endfacet
  facet normal -0.587785 0 0.809017
    outer loop
      vertex 50.0358 8.55 -50.3443
      vertex 50.1374 3.8147e-07 -50.2705
      vertex 50.1374 8.55 -50.2705
    endloop
  endfacet
  facet normal -0.587785 0 0.809017
    outer loop
      vertex 50.1374 3.8147e-07 -50.2705
      vertex 50.0358 8.55 -50.3443
      vertex 50.0358 3.8147e-07 -50.3443
    endloop
  endfacet
  facet normal -0.125332 0 0.992115
    outer loop
      vertex 49.5628 8.55 -50.498
      vertex 49.6874 3.8147e-07 -50.4823
      vertex 49.6874 8.55 -50.4823
    endloop
  endfacet
  facet normal -0.125332 0 0.992115
    outer loop
      vertex 49.6874 3.8147e-07 -50.4823
      vertex 49.5628 8.55 -50.498
      vertex 49.5628 3.8147e-07 -50.498
    endloop
  endfacet
  facet normal -0.248663 0 0.96859
    outer loop
      vertex 49.6874 8.55 -50.4823
      vertex 49.809 3.8147e-07 -50.4511
      vertex 49.809 8.55 -50.4511
    endloop
  endfacet
  facet normal -0.248663 0 0.96859
    outer loop
      vertex 49.809 3.8147e-07 -50.4511
      vertex 49.6874 8.55 -50.4823
      vertex 49.6874 3.8147e-07 -50.4823
    endloop
  endfacet
  facet normal -0.844331 0 -0.535822
    outer loop
      vertex 50.3763 3.8147e-07 49.9818
      vertex 50.309 8.55 50.0878
      vertex 50.3763 8.55 49.9818
    endloop
  endfacet
  facet normal -0.844331 -0 -0.535822
    outer loop
      vertex 50.309 8.55 50.0878
      vertex 50.3763 3.8147e-07 49.9818
      vertex 50.309 3.8147e-07 50.0878
    endloop
  endfacet
  facet normal -0.770522 0 -0.637414
    outer loop
      vertex 50.309 3.8147e-07 50.0878
      vertex 50.229 8.55 50.1845
      vertex 50.309 8.55 50.0878
    endloop
  endfacet
  facet normal -0.770522 -0 -0.637414
    outer loop
      vertex 50.229 8.55 50.1845
      vertex 50.309 3.8147e-07 50.0878
      vertex 50.229 3.8147e-07 50.1845
    endloop
  endfacet
  facet normal 0.982285 0 -0.187393
    outer loop
      vertex -50.4686 3.8147e-07 49.7487
      vertex -50.4921 8.55 49.6253
      vertex -50.4686 8.55 49.7487
    endloop
  endfacet
  facet normal 0.982285 0 -0.187393
    outer loop
      vertex -50.4921 8.55 49.6253
      vertex -50.4686 3.8147e-07 49.7487
      vertex -50.4921 3.8147e-07 49.6253
    endloop
  endfacet
  facet normal 0.844331 0 -0.535822
    outer loop
      vertex -50.309 3.8147e-07 50.0878
      vertex -50.3763 8.55 49.9818
      vertex -50.309 8.55 50.0878
    endloop
  endfacet
  facet normal 0.844331 0 -0.535822
    outer loop
      vertex -50.3763 8.55 49.9818
      vertex -50.309 3.8147e-07 50.0878
      vertex -50.3763 3.8147e-07 49.9818
    endloop
  endfacet
  facet normal 0.684537 0 -0.728978
    outer loop
      vertex -50.229 3.8147e-07 50.1845
      vertex -50.1374 8.55 50.2705
      vertex -50.1374 3.8147e-07 50.2705
    endloop
  endfacet
  facet normal 0.684537 0 -0.728978
    outer loop
      vertex -50.1374 8.55 50.2705
      vertex -50.229 3.8147e-07 50.1845
      vertex -50.229 8.55 50.1845
    endloop
  endfacet
  facet normal 0.368136 0 -0.929772
    outer loop
      vertex -49.9258 3.8147e-07 50.4048
      vertex -49.809 8.55 50.4511
      vertex -49.809 3.8147e-07 50.4511
    endloop
  endfacet
  facet normal 0.368136 0 -0.929772
    outer loop
      vertex -49.809 8.55 50.4511
      vertex -49.9258 3.8147e-07 50.4048
      vertex -49.9258 8.55 50.4048
    endloop
  endfacet
  facet normal 0.587785 0 -0.809017
    outer loop
      vertex -50.1374 3.8147e-07 50.2705
      vertex -50.0358 8.55 50.3443
      vertex -50.0358 3.8147e-07 50.3443
    endloop
  endfacet
  facet normal 0.587785 0 -0.809017
    outer loop
      vertex -50.0358 8.55 50.3443
      vertex -50.1374 3.8147e-07 50.2705
      vertex -50.1374 8.55 50.2705
    endloop
  endfacet
  facet normal 0.125332 0 -0.992115
    outer loop
      vertex -49.6874 3.8147e-07 50.4823
      vertex -49.5628 8.55 50.498
      vertex -49.5628 3.8147e-07 50.498
    endloop
  endfacet
  facet normal 0.125332 0 -0.992115
    outer loop
      vertex -49.5628 8.55 50.498
      vertex -49.6874 3.8147e-07 50.4823
      vertex -49.6874 8.55 50.4823
    endloop
  endfacet
  facet normal 0.248663 0 -0.96859
    outer loop
      vertex -49.809 3.8147e-07 50.4511
      vertex -49.6874 8.55 50.4823
      vertex -49.6874 3.8147e-07 50.4823
    endloop
  endfacet
  facet normal 0.248663 0 -0.96859
    outer loop
      vertex -49.6874 8.55 50.4823
      vertex -49.809 3.8147e-07 50.4511
      vertex -49.809 8.55 50.4511
    endloop
  endfacet
  facet normal 0.481757 0 -0.876305
    outer loop
      vertex -50.0358 3.8147e-07 50.3443
      vertex -49.9258 8.55 50.4048
      vertex -49.9258 3.8147e-07 50.4048
    endloop
  endfacet
  facet normal 0.481757 0 -0.876305
    outer loop
      vertex -49.9258 8.55 50.4048
      vertex -50.0358 3.8147e-07 50.3443
      vertex -50.0358 8.55 50.3443
    endloop
  endfacet
  facet normal -1 0 0
    outer loop
      vertex -64.555 5.22 -13.085
      vertex -64.555 11.02 -2.915
      vertex -64.555 11.02 -13.085
    endloop
  endfacet
  facet normal -1 -0 0
    outer loop
      vertex -64.555 11.02 -2.915
      vertex -64.555 5.22 -13.085
      vertex -64.555 5.22 -2.915
    endloop
  endfacet
  facet normal 0 1 -0
    outer loop
      vertex -58.445 11.02 -13.085
      vertex -64.555 11.02 -2.915
      vertex -58.445 11.02 -2.915
    endloop
  endfacet
  facet normal 0 1 0
    outer loop
      vertex -64.555 11.02 -2.915
      vertex -58.445 11.02 -13.085
      vertex -64.555 11.02 -13.085
    endloop
  endfacet
  facet normal 1 -0 0
    outer loop
      vertex -58.445 9.435 -2.915
      vertex -58.445 11.02 -13.085
      vertex -58.445 11.02 -2.915
    endloop
  endfacet
  facet normal 1 0 0
    outer loop
      vertex -58.445 11.02 -13.085
      vertex -58.445 9.435 -2.915
      vertex -58.445 9.435 -13.085
    endloop
  endfacet
  facet normal 0 -1 0
    outer loop
      vertex -64.555 5.22 -13.085
      vertex -61.555 5.22 -2.915
      vertex -64.555 5.22 -2.915
    endloop
  endfacet
  facet normal 0 -1 -0
    outer loop
      vertex -61.555 5.22 -2.915
      vertex -64.555 5.22 -13.085
      vertex -61.555 5.22 -13.085
    endloop
  endfacet
  facet normal 0 0 1
    outer loop
      vertex -58.445 11.02 -2.915
      vertex -61.555 9.435 -2.915
      vertex -58.445 9.435 -2.915
    endloop
  endfacet
  facet normal -0 0 1
    outer loop
      vertex -64.555 11.02 -2.915
      vertex -61.555 9.435 -2.915
      vertex -58.445 11.02 -2.915
    endloop
  endfacet
  facet normal 0 0 1
    outer loop
      vertex -64.555 5.22 -2.915
      vertex -61.555 9.435 -2.915
      vertex -64.555 11.02 -2.915
    endloop
  endfacet
  facet normal 0 0 1
    outer loop
      vertex -61.555 9.435 -2.915
      vertex -64.555 5.22 -2.915
      vertex -61.555 5.22 -2.915
    endloop
  endfacet
  facet normal 0 0 -1
    outer loop
      vertex -61.555 5.22 -13.085
      vertex -64.555 5.22 -13.085
      vertex -61.555 9.435 -13.085
    endloop
  endfacet
  facet normal 0 0 -1
    outer loop
      vertex -61.555 9.435 -13.085
      vertex -58.445 11.02 -13.085
      vertex -58.445 9.435 -13.085
    endloop
  endfacet
  facet normal 0 0 -1
    outer loop
      vertex -61.555 9.435 -13.085
      vertex -64.555 11.02 -13.085
      vertex -58.445 11.02 -13.085
    endloop
  endfacet
  facet normal 0 0 -1
    outer loop
      vertex -64.555 11.02 -13.085
      vertex -61.555 9.435 -13.085
      vertex -64.555 5.22 -13.085
    endloop
  endfacet
  facet normal 1 -0 0
    outer loop
      vertex -61.555 5.22 -2.915
      vertex -61.555 9.435 -13.085
      vertex -61.555 9.435 -2.915
    endloop
  endfacet
  facet normal 1 0 0
    outer loop
      vertex -61.555 9.435 -13.085
      vertex -61.555 5.22 -2.915
      vertex -61.555 5.22 -13.085
    endloop
  endfacet
  facet normal 0 -1 0
    outer loop
      vertex -61.555 9.435 -13.085
      vertex -58.445 9.435 -2.915
      vertex -61.555 9.435 -2.915
    endloop
  endfacet
  facet normal 0 -1 -0
    outer loop
      vertex -58.445 9.435 -2.915
      vertex -61.555 9.435 -13.085
      vertex -58.445 9.435 -13.085
    endloop
  endfacet
  facet normal 1 -0 0
    outer loop
      vertex 64.555 5.22 -2.915
      vertex 64.555 11.02 -13.085
      vertex 64.555 11.02 -2.915
    endloop
  endfacet
  facet normal 1 0 0
    outer loop
      vertex 64.555 11.02 -13.085
      vertex 64.555 5.22 -2.915
      vertex 64.555 5.22 -13.085
    endloop
  endfacet
  facet normal 0 1 -0
    outer loop
      vertex 64.555 11.02 -13.085
      vertex 58.445 11.02 -2.915
      vertex 64.555 11.02 -2.915
    endloop
  endfacet
  facet normal 0 1 0
    outer loop
      vertex 58.445 11.02 -2.915
      vertex 64.555 11.02 -13.085
      vertex 58.445 11.02 -13.085
    endloop
  endfacet
  facet normal -1 0 0
    outer loop
      vertex 58.445 9.435 -13.085
      vertex 58.445 11.02 -2.915
      vertex 58.445 11.02 -13.085
    endloop
  endfacet
  facet normal -1 -0 0
    outer loop
      vertex 58.445 11.02 -2.915
      vertex 58.445 9.435 -13.085
      vertex 58.445 9.435 -2.915
    endloop
  endfacet
  facet normal 0 -1 0
    outer loop
      vertex 61.555 5.22 -13.085
      vertex 64.555 5.22 -2.915
      vertex 61.555 5.22 -2.915
    endloop
  endfacet
  facet normal 0 -1 -0
    outer loop
      vertex 64.555 5.22 -2.915
      vertex 61.555 5.22 -13.085
      vertex 64.555 5.22 -13.085
    endloop
  endfacet
  facet normal 0 0 -1
    outer loop
      vertex 61.555 9.435 -13.085
      vertex 64.555 5.22 -13.085
      vertex 61.555 5.22 -13.085
    endloop
  endfacet
  facet normal 0 0 -1
    outer loop
      vertex 64.555 5.22 -13.085
      vertex 61.555 9.435 -13.085
      vertex 64.555 11.02 -13.085
    endloop
  endfacet
  facet normal 0 0 -1
    outer loop
      vertex 58.445 11.02 -13.085
      vertex 61.555 9.435 -13.085
      vertex 58.445 9.435 -13.085
    endloop
  endfacet
  facet normal 0 0 -1
    outer loop
      vertex 61.555 9.435 -13.085
      vertex 58.445 11.02 -13.085
      vertex 64.555 11.02 -13.085
    endloop
  endfacet
  facet normal 0 0 1
    outer loop
      vertex 64.555 11.02 -2.915
      vertex 61.555 9.435 -2.915
      vertex 64.555 5.22 -2.915
    endloop
  endfacet
  facet normal -0 0 1
    outer loop
      vertex 58.445 11.02 -2.915
      vertex 61.555 9.435 -2.915
      vertex 64.555 11.02 -2.915
    endloop
  endfacet
  facet normal 0 0 1
    outer loop
      vertex 61.555 9.435 -2.915
      vertex 58.445 11.02 -2.915
      vertex 58.445 9.435 -2.915
    endloop
  endfacet
  facet normal 0 0 1
    outer loop
      vertex 64.555 5.22 -2.915
      vertex 61.555 9.435 -2.915
      vertex 61.555 5.22 -2.915
    endloop
  endfacet
  facet normal -1 0 0
    outer loop
      vertex 61.555 5.22 -13.085
      vertex 61.555 9.435 -2.915
      vertex 61.555 9.435 -13.085
    endloop
  endfacet
  facet normal -1 -0 0
    outer loop
      vertex 61.555 9.435 -2.915
      vertex 61.555 5.22 -13.085
      vertex 61.555 5.22 -2.915
    endloop
  endfacet
  facet normal 0 -1 0
    outer loop
      vertex 58.445 9.435 -13.085
      vertex 61.555 9.435 -2.915
      vertex 58.445 9.435 -2.915
    endloop
  endfacet
  facet normal 0 -1 -0
    outer loop
      vertex 61.555 9.435 -2.915
      vertex 58.445 9.435 -13.085
      vertex 61.555 9.435 -13.085
    endloop
  endfacet
  facet normal 1 -0 0
    outer loop
      vertex 64.555 5.22 13.085
      vertex 64.555 11.02 2.915
      vertex 64.555 11.02 13.085
    endloop
  endfacet
  facet normal 1 0 0
    outer loop
      vertex 64.555 11.02 2.915
      vertex 64.555 5.22 13.085
      vertex 64.555 5.22 2.915
    endloop
  endfacet
  facet normal 0 1 -0
    outer loop
      vertex 64.555 11.02 2.915
      vertex 58.445 11.02 13.085
      vertex 64.555 11.02 13.085
    endloop
  endfacet
  facet normal 0 1 0
    outer loop
      vertex 58.445 11.02 13.085
      vertex 64.555 11.02 2.915
      vertex 58.445 11.02 2.915
    endloop
  endfacet
  facet normal -1 0 0
    outer loop
      vertex 58.445 5.22 2.915
      vertex 58.445 11.02 13.085
      vertex 58.445 11.02 2.915
    endloop
  endfacet
  facet normal -1 -0 0
    outer loop
      vertex 58.445 11.02 13.085
      vertex 58.445 5.22 2.915
      vertex 58.445 5.22 13.085
    endloop
  endfacet
  facet normal 0 -1 0
    outer loop
      vertex 64.5 5.22 2.915
      vertex 64.555 5.22 13.085
      vertex 64.5 5.22 13.085
    endloop
  endfacet
  facet normal 0 -1 -0
    outer loop
      vertex 64.555 5.22 13.085
      vertex 64.5 5.22 2.915
      vertex 64.555 5.22 2.915
    endloop
  endfacet
  facet normal 0 0 -1
    outer loop
      vertex 64.555 5.22 2.915
      vertex 64.5 5.22 2.915
      vertex 64.555 11.02 2.915
    endloop
  endfacet
  facet normal 0 0 -1
    outer loop
      vertex 58.445 5.22 2.915
      vertex 64.555 11.02 2.915
      vertex 64.5 5.22 2.915
    endloop
  endfacet
  facet normal -0 0 -1
    outer loop
      vertex 64.555 11.02 2.915
      vertex 58.445 5.22 2.915
      vertex 58.445 11.02 2.915
    endloop
  endfacet
  facet normal 0 0 1
    outer loop
      vertex 64.555 11.02 13.085
      vertex 64.5 5.22 13.085
      vertex 64.555 5.22 13.085
    endloop
  endfacet
  facet normal -0 0 1
    outer loop
      vertex 58.445 11.02 13.085
      vertex 64.5 5.22 13.085
      vertex 64.555 11.02 13.085
    endloop
  endfacet
  facet normal 0 0 1
    outer loop
      vertex 64.5 5.22 13.085
      vertex 58.445 11.02 13.085
      vertex 58.445 5.22 13.085
    endloop
  endfacet
  facet normal 1 -0 0
    outer loop
      vertex -58.445 5.22 13.085
      vertex -58.445 11.02 2.915
      vertex -58.445 11.02 13.085
    endloop
  endfacet
  facet normal 1 0 0
    outer loop
      vertex -58.445 11.02 2.915
      vertex -58.445 5.22 13.085
      vertex -58.445 5.22 2.915
    endloop
  endfacet
  facet normal 0 1 -0
    outer loop
      vertex -58.445 11.02 2.915
      vertex -64.555 11.02 13.085
      vertex -58.445 11.02 13.085
    endloop
  endfacet
  facet normal 0 1 0
    outer loop
      vertex -64.555 11.02 13.085
      vertex -58.445 11.02 2.915
      vertex -64.555 11.02 2.915
    endloop
  endfacet
  facet normal -1 0 0
    outer loop
      vertex -64.555 5.22 2.915
      vertex -64.555 11.02 13.085
      vertex -64.555 11.02 2.915
    endloop
  endfacet
  facet normal -1 -0 0
    outer loop
      vertex -64.555 11.02 13.085
      vertex -64.555 5.22 2.915
      vertex -64.555 5.22 13.085
    endloop
  endfacet
  facet normal 0 0 1
    outer loop
      vertex -58.445 11.02 13.085
      vertex -64.5 5.22 13.085
      vertex -58.445 5.22 13.085
    endloop
  endfacet
  facet normal -0 0 1
    outer loop
      vertex -64.555 11.02 13.085
      vertex -64.5 5.22 13.085
      vertex -58.445 11.02 13.085
    endloop
  endfacet
  facet normal 0 0 1
    outer loop
      vertex -64.555 5.22 13.085
      vertex -64.5 5.22 13.085
      vertex -64.555 11.02 13.085
    endloop
  endfacet
  facet normal 0 -1 0
    outer loop
      vertex -64.555 5.22 2.915
      vertex -64.5 5.22 13.085
      vertex -64.555 5.22 13.085
    endloop
  endfacet
  facet normal 0 -1 -0
    outer loop
      vertex -64.5 5.22 13.085
      vertex -64.555 5.22 2.915
      vertex -64.5 5.22 2.915
    endloop
  endfacet
  facet normal 0 0 -1
    outer loop
      vertex -64.5 5.22 2.915
      vertex -58.445 11.02 2.915
      vertex -58.445 5.22 2.915
    endloop
  endfacet
  facet normal 0 0 -1
    outer loop
      vertex -64.555 11.02 2.915
      vertex -64.5 5.22 2.915
      vertex -64.555 5.22 2.915
    endloop
  endfacet
  facet normal 0 0 -1
    outer loop
      vertex -64.5 5.22 2.915
      vertex -64.555 11.02 2.915
      vertex -58.445 11.02 2.915
    endloop
  endfacet
  facet normal 1 0 0
    outer loop
      vertex 64.5 5.22 13.085
      vertex 64.5 3.43323e-07 54.2725
      vertex 64.5 5.22 2.915
    endloop
  endfacet
  facet normal 1 -0 0
    outer loop
      vertex 64.5 3.43323e-07 54.2725
      vertex 64.5 5.22 13.085
      vertex 64.5 5.22 54.2725
    endloop
  endfacet
  facet normal 1 0 0
    outer loop
      vertex 64.5 3.43323e-07 -54.2725
      vertex 64.5 5.22 2.915
      vertex 64.5 3.43323e-07 54.2725
    endloop
  endfacet
  facet normal 1 0 0
    outer loop
      vertex 64.5 5.22 2.915
      vertex 64.5 3.43323e-07 -54.2725
      vertex 64.5 5.22 -54.2725
    endloop
  endfacet
  facet normal 0 1 0
    outer loop
      vertex 64.5 5.22 2.915
      vertex 52.75 5.22 -49.75
      vertex 58.445 5.22 2.915
    endloop
  endfacet
  facet normal 0 1 -0
    outer loop
      vertex 64.5 5.22 -54.2725
      vertex 52.75 5.22 -49.75
      vertex 64.5 5.22 2.915
    endloop
  endfacet
  facet normal 0 1 0
    outer loop
      vertex 52.75 5.22 -49.75
      vertex 64.5 5.22 -54.2725
      vertex 52.7263 5.22 -50.126
    endloop
  endfacet
  facet normal 0 1 0
    outer loop
      vertex 49.9384 5.22 -52.7441
      vertex 64.5 5.22 -54.2725
      vertex -49.9384 5.22 -52.7441
    endloop
  endfacet
  facet normal 0 1 0
    outer loop
      vertex 50.3121 5.22 -52.6969
      vertex 64.5 5.22 -54.2725
      vertex 49.9384 5.22 -52.7441
    endloop
  endfacet
  facet normal 0 1 0
    outer loop
      vertex 50.6771 5.22 -52.6032
      vertex 64.5 5.22 -54.2725
      vertex 50.3121 5.22 -52.6969
    endloop
  endfacet
  facet normal 0 1 0
    outer loop
      vertex 51.0273 5.22 -52.4645
      vertex 64.5 5.22 -54.2725
      vertex 50.6771 5.22 -52.6032
    endloop
  endfacet
  facet normal 0 1 0
    outer loop
      vertex 51.3575 5.22 -52.283
      vertex 64.5 5.22 -54.2725
      vertex 51.0273 5.22 -52.4645
    endloop
  endfacet
  facet normal 0 1 0
    outer loop
      vertex 51.6623 5.22 -52.0615
      vertex 64.5 5.22 -54.2725
      vertex 51.3575 5.22 -52.283
    endloop
  endfacet
  facet normal 0 1 0
    outer loop
      vertex 51.9369 5.22 -51.8036
      vertex 64.5 5.22 -54.2725
      vertex 51.6623 5.22 -52.0615
    endloop
  endfacet
  facet normal 0 1 0
    outer loop
      vertex 52.1771 5.22 -51.5134
      vertex 64.5 5.22 -54.2725
      vertex 51.9369 5.22 -51.8036
    endloop
  endfacet
  facet normal 0 1 0
    outer loop
      vertex 52.3789 5.22 -51.1953
      vertex 64.5 5.22 -54.2725
      vertex 52.1771 5.22 -51.5134
    endloop
  endfacet
  facet normal 0 1 0
    outer loop
      vertex 52.5393 5.22 -50.8544
      vertex 64.5 5.22 -54.2725
      vertex 52.3789 5.22 -51.1953
    endloop
  endfacet
  facet normal 0 1 0
    outer loop
      vertex 52.6558 5.22 -50.4961
      vertex 64.5 5.22 -54.2725
      vertex 52.5393 5.22 -50.8544
    endloop
  endfacet
  facet normal 0 1 0
    outer loop
      vertex 52.7263 5.22 -50.126
      vertex 64.5 5.22 -54.2725
      vertex 52.6558 5.22 -50.4961
    endloop
  endfacet
  facet normal 0 1 0
    outer loop
      vertex -52.75 5.22 49.75
      vertex -58.445 5.22 2.915
      vertex -58.445 5.22 13.085
    endloop
  endfacet
  facet normal 0 1 -0
    outer loop
      vertex -52.75 5.22 -49.75
      vertex -58.445 5.22 2.915
      vertex -52.75 5.22 49.75
    endloop
  endfacet
  facet normal 0 1 0
    outer loop
      vertex -52.75 5.22 -49.75
      vertex -64.5 5.22 2.915
      vertex -58.445 5.22 2.915
    endloop
  endfacet
  facet normal 0 1 0
    outer loop
      vertex -64.5 5.22 -54.2725
      vertex -52.75 5.22 -49.75
      vertex -52.7263 5.22 -50.126
    endloop
  endfacet
  facet normal 0 1 0
    outer loop
      vertex -64.5 5.22 -54.2725
      vertex -52.7263 5.22 -50.126
      vertex -52.6558 5.22 -50.4961
    endloop
  endfacet
  facet normal 0 1 0
    outer loop
      vertex -52.75 5.22 -49.75
      vertex -64.5 5.22 -54.2725
      vertex -64.5 5.22 2.915
    endloop
  endfacet
  facet normal 0 1 0
    outer loop
      vertex -52.5393 5.22 -50.8544
      vertex -64.5 5.22 -54.2725
      vertex -52.6558 5.22 -50.4961
    endloop
  endfacet
  facet normal 0 1 0
    outer loop
      vertex -52.3789 5.22 -51.1953
      vertex -64.5 5.22 -54.2725
      vertex -52.5393 5.22 -50.8544
    endloop
  endfacet
  facet normal 0 1 0
    outer loop
      vertex -52.1771 5.22 -51.5134
      vertex -64.5 5.22 -54.2725
      vertex -52.3789 5.22 -51.1953
    endloop
  endfacet
  facet normal 0 1 0
    outer loop
      vertex -51.9369 5.22 -51.8036
      vertex -64.5 5.22 -54.2725
      vertex -52.1771 5.22 -51.5134
    endloop
  endfacet
  facet normal 0 1 0
    outer loop
      vertex -51.6623 5.22 -52.0615
      vertex -64.5 5.22 -54.2725
      vertex -51.9369 5.22 -51.8036
    endloop
  endfacet
  facet normal 0 1 0
    outer loop
      vertex -51.3575 5.22 -52.283
      vertex -64.5 5.22 -54.2725
      vertex -51.6623 5.22 -52.0615
    endloop
  endfacet
  facet normal 0 1 0
    outer loop
      vertex -51.0273 5.22 -52.4645
      vertex -64.5 5.22 -54.2725
      vertex -51.3575 5.22 -52.283
    endloop
  endfacet
  facet normal 0 1 0
    outer loop
      vertex -50.6771 5.22 -52.6032
      vertex -64.5 5.22 -54.2725
      vertex -51.0273 5.22 -52.4645
    endloop
  endfacet
  facet normal 0 1 0
    outer loop
      vertex -50.3121 5.22 -52.6969
      vertex -64.5 5.22 -54.2725
      vertex -50.6771 5.22 -52.6032
    endloop
  endfacet
  facet normal 0 1 0
    outer loop
      vertex -49.9384 5.22 -52.7441
      vertex -64.5 5.22 -54.2725
      vertex -50.3121 5.22 -52.6969
    endloop
  endfacet
  facet normal 0 1 0
    outer loop
      vertex -64.5 5.22 -54.2725
      vertex -49.9384 5.22 -52.7441
      vertex 64.5 5.22 -54.2725
    endloop
  endfacet
  facet normal 0 1 0
    outer loop
      vertex 64.5 5.22 54.2725
      vertex 49.9384 5.22 52.7441
      vertex -64.5 5.22 54.2725
    endloop
  endfacet
  facet normal 0 1 0
    outer loop
      vertex 64.5 5.22 54.2725
      vertex 50.3121 5.22 52.6969
      vertex 49.9384 5.22 52.7441
    endloop
  endfacet
  facet normal 0 1 0
    outer loop
      vertex 64.5 5.22 54.2725
      vertex 50.6771 5.22 52.6032
      vertex 50.3121 5.22 52.6969
    endloop
  endfacet
  facet normal 0 1 0
    outer loop
      vertex 64.5 5.22 54.2725
      vertex 51.0273 5.22 52.4645
      vertex 50.6771 5.22 52.6032
    endloop
  endfacet
  facet normal 0 1 0
    outer loop
      vertex 64.5 5.22 54.2725
      vertex 51.3575 5.22 52.283
      vertex 51.0273 5.22 52.4645
    endloop
  endfacet
  facet normal 0 1 0
    outer loop
      vertex 64.5 5.22 54.2725
      vertex 51.6623 5.22 52.0615
      vertex 51.3575 5.22 52.283
    endloop
  endfacet
  facet normal 0 1 0
    outer loop
      vertex 64.5 5.22 54.2725
      vertex 51.9369 5.22 51.8036
      vertex 51.6623 5.22 52.0615
    endloop
  endfacet
  facet normal 0 1 0
    outer loop
      vertex 64.5 5.22 54.2725
      vertex 52.1771 5.22 51.5134
      vertex 51.9369 5.22 51.8036
    endloop
  endfacet
  facet normal 0 1 0
    outer loop
      vertex 64.5 5.22 54.2725
      vertex 52.3789 5.22 51.1953
      vertex 52.1771 5.22 51.5134
    endloop
  endfacet
  facet normal 0 1 0
    outer loop
      vertex 64.5 5.22 54.2725
      vertex 52.5393 5.22 50.8544
      vertex 52.3789 5.22 51.1953
    endloop
  endfacet
  facet normal 0 1 0
    outer loop
      vertex 64.5 5.22 54.2725
      vertex 52.6558 5.22 50.4961
      vertex 52.5393 5.22 50.8544
    endloop
  endfacet
  facet normal 0 1 0
    outer loop
      vertex 64.5 5.22 54.2725
      vertex 52.7263 5.22 50.126
      vertex 52.6558 5.22 50.4961
    endloop
  endfacet
  facet normal 0 1 0
    outer loop
      vertex 64.5 5.22 54.2725
      vertex 52.75 5.22 49.75
      vertex 52.7263 5.22 50.126
    endloop
  endfacet
  facet normal 0 1 -0
    outer loop
      vertex 64.5 5.22 13.085
      vertex 52.75 5.22 49.75
      vertex 64.5 5.22 54.2725
    endloop
  endfacet
  facet normal 0 1 -0
    outer loop
      vertex 58.445 5.22 13.085
      vertex 52.75 5.22 49.75
      vertex 64.5 5.22 13.085
    endloop
  endfacet
  facet normal 0 1 -0
    outer loop
      vertex 58.445 5.22 2.915
      vertex 52.75 5.22 49.75
      vertex 58.445 5.22 13.085
    endloop
  endfacet
  facet normal 0 1 0
    outer loop
      vertex 52.75 5.22 49.75
      vertex 58.445 5.22 2.915
      vertex 52.75 5.22 -49.75
    endloop
  endfacet
  facet normal 0 1 -0
    outer loop
      vertex -49.9384 5.22 52.7441
      vertex -64.5 5.22 54.2725
      vertex 49.9384 5.22 52.7441
    endloop
  endfacet
  facet normal 0 1 -0
    outer loop
      vertex -50.3121 5.22 52.6969
      vertex -64.5 5.22 54.2725
      vertex -49.9384 5.22 52.7441
    endloop
  endfacet
  facet normal 0 1 -0
    outer loop
      vertex -50.6771 5.22 52.6032
      vertex -64.5 5.22 54.2725
      vertex -50.3121 5.22 52.6969
    endloop
  endfacet
  facet normal 0 1 -0
    outer loop
      vertex -51.0273 5.22 52.4645
      vertex -64.5 5.22 54.2725
      vertex -50.6771 5.22 52.6032
    endloop
  endfacet
  facet normal 0 1 -0
    outer loop
      vertex -51.3575 5.22 52.283
      vertex -64.5 5.22 54.2725
      vertex -51.0273 5.22 52.4645
    endloop
  endfacet
  facet normal 0 1 -0
    outer loop
      vertex -51.6623 5.22 52.0615
      vertex -64.5 5.22 54.2725
      vertex -51.3575 5.22 52.283
    endloop
  endfacet
  facet normal 0 1 -0
    outer loop
      vertex -51.9369 5.22 51.8036
      vertex -64.5 5.22 54.2725
      vertex -51.6623 5.22 52.0615
    endloop
  endfacet
  facet normal 0 1 -0
    outer loop
      vertex -52.1771 5.22 51.5134
      vertex -64.5 5.22 54.2725
      vertex -51.9369 5.22 51.8036
    endloop
  endfacet
  facet normal 0 1 -0
    outer loop
      vertex -52.3789 5.22 51.1953
      vertex -64.5 5.22 54.2725
      vertex -52.1771 5.22 51.5134
    endloop
  endfacet
  facet normal 0 1 -0
    outer loop
      vertex -52.5393 5.22 50.8544
      vertex -64.5 5.22 54.2725
      vertex -52.3789 5.22 51.1953
    endloop
  endfacet
  facet normal 0 1 -0
    outer loop
      vertex -52.6558 5.22 50.4961
      vertex -64.5 5.22 54.2725
      vertex -52.5393 5.22 50.8544
    endloop
  endfacet
  facet normal 0 1 -0
    outer loop
      vertex -52.7263 5.22 50.126
      vertex -64.5 5.22 54.2725
      vertex -52.6558 5.22 50.4961
    endloop
  endfacet
  facet normal 0 1 -0
    outer loop
      vertex -52.75 5.22 49.75
      vertex -64.5 5.22 54.2725
      vertex -52.7263 5.22 50.126
    endloop
  endfacet
  facet normal 0 1 0
    outer loop
      vertex -64.5 5.22 13.085
      vertex -52.75 5.22 49.75
      vertex -58.445 5.22 13.085
    endloop
  endfacet
  facet normal 0 1 0
    outer loop
      vertex -52.75 5.22 49.75
      vertex -64.5 5.22 13.085
      vertex -64.5 5.22 54.2725
    endloop
  endfacet
  facet normal -1 0 0
    outer loop
      vertex -64.5 5.22 2.915
      vertex -64.5 3.43323e-07 54.2725
      vertex -64.5 5.22 13.085
    endloop
  endfacet
  facet normal -1 0 0
    outer loop
      vertex -64.5 3.43323e-07 -54.2725
      vertex -64.5 5.22 2.915
      vertex -64.5 5.22 -54.2725
    endloop
  endfacet
  facet normal -1 -0 0
    outer loop
      vertex -64.5 5.22 2.915
      vertex -64.5 3.43323e-07 -54.2725
      vertex -64.5 3.43323e-07 54.2725
    endloop
  endfacet
  facet normal -1 -0 0
    outer loop
      vertex -64.5 5.22 54.2725
      vertex -64.5 5.22 13.085
      vertex -64.5 3.43323e-07 54.2725
    endloop
  endfacet
  facet normal -0 0 1
    outer loop
      vertex -64.5 5.22 54.2725
      vertex 64.5 3.43323e-07 54.2725
      vertex 64.5 5.22 54.2725
    endloop
  endfacet
  facet normal 0 0 1
    outer loop
      vertex 64.5 3.43323e-07 54.2725
      vertex -64.5 5.22 54.2725
      vertex -64.5 3.43323e-07 54.2725
    endloop
  endfacet
  facet normal 0 -1 0
    outer loop
      vertex -64.5 3.43323e-07 54.2725
      vertex -50.75 3.43323e-07 50.75
      vertex 64.5 3.43323e-07 54.2725
    endloop
  endfacet
  facet normal 7.17352e-17 -1 2.80017e-16
    outer loop
      vertex -64.5 3.43323e-07 54.2725
      vertex -50.75 3.43323e-07 -50.75
      vertex -50.75 3.43323e-07 50.75
    endloop
  endfacet
  facet normal 0 -1 -0
    outer loop
      vertex -50.75 3.43323e-07 -50.75
      vertex -64.5 3.43323e-07 -54.2725
      vertex 50.75 3.43323e-07 -50.75
    endloop
  endfacet
  facet normal -6.70793e-17 -1 2.61843e-16
    outer loop
      vertex -64.5 3.43323e-07 -54.2725
      vertex -50.75 3.43323e-07 -50.75
      vertex -64.5 3.43323e-07 54.2725
    endloop
  endfacet
  facet normal 0 -1 0
    outer loop
      vertex 50.75 3.43323e-07 50.75
      vertex 64.5 3.43323e-07 54.2725
      vertex -50.75 3.43323e-07 50.75
    endloop
  endfacet
  facet normal -7.17352e-17 -1 2.80017e-16
    outer loop
      vertex 50.75 3.43323e-07 -50.75
      vertex 64.5 3.43323e-07 54.2725
      vertex 50.75 3.43323e-07 50.75
    endloop
  endfacet
  facet normal 6.70793e-17 -1 2.61843e-16
    outer loop
      vertex 50.75 3.43323e-07 -50.75
      vertex 64.5 3.43323e-07 -54.2725
      vertex 64.5 3.43323e-07 54.2725
    endloop
  endfacet
  facet normal 0 -1 0
    outer loop
      vertex 64.5 3.43323e-07 -54.2725
      vertex 50.75 3.43323e-07 -50.75
      vertex -64.5 3.43323e-07 -54.2725
    endloop
  endfacet
  facet normal 0 0 -1
    outer loop
      vertex -64.5 3.43323e-07 -54.2725
      vertex 64.5 5.22 -54.2725
      vertex 64.5 3.43323e-07 -54.2725
    endloop
  endfacet
  facet normal -0 0 -1
    outer loop
      vertex 64.5 5.22 -54.2725
      vertex -64.5 3.43323e-07 -54.2725
      vertex -64.5 5.22 -54.2725
    endloop
  endfacet
  facet normal -1 0 0
    outer loop
      vertex 50.75 3.8147e-07 -50.75
      vertex 50.75 3.43323e-07 50.75
      vertex 50.75 3.8147e-07 50.75
    endloop
  endfacet
  facet normal -1 0 -0
    outer loop
      vertex 50.75 3.43323e-07 50.75
      vertex 50.75 3.8147e-07 -50.75
      vertex 50.75 3.43323e-07 -50.75
    endloop
  endfacet
  facet normal 1 -0 0
    outer loop
      vertex -50.75 3.43323e-07 50.75
      vertex -50.75 3.8147e-07 -50.75
      vertex -50.75 3.8147e-07 50.75
    endloop
  endfacet
  facet normal 1 0 0
    outer loop
      vertex -50.75 3.8147e-07 -50.75
      vertex -50.75 3.43323e-07 50.75
      vertex -50.75 3.43323e-07 -50.75
    endloop
  endfacet
  facet normal 0 0 1
    outer loop
      vertex -50.75 3.8147e-07 -50.75
      vertex 50.75 3.43323e-07 -50.75
      vertex 50.75 3.8147e-07 -50.75
    endloop
  endfacet
  facet normal 0 0 1
    outer loop
      vertex 50.75 3.43323e-07 -50.75
      vertex -50.75 3.8147e-07 -50.75
      vertex -50.75 3.43323e-07 -50.75
    endloop
  endfacet
  facet normal 0 0 -1
    outer loop
      vertex -50.75 3.43323e-07 50.75
      vertex 50.75 3.8147e-07 50.75
      vertex 50.75 3.43323e-07 50.75
    endloop
  endfacet
  facet normal -0 0 -1
    outer loop
      vertex 50.75 3.8147e-07 50.75
      vertex -50.75 3.43323e-07 50.75
      vertex -50.75 3.8147e-07 50.75
    endloop
  endfacet
endsolid OpenSCAD_Model
