solid OpenSCAD_Model
  facet normal -1 0 0
    outer loop
      vertex -52.75 -49.75 5.22
      vertex -52.75 0 8.55
      vertex -52.75 0 5.22
    endloop
  endfacet
  facet normal -1 -0 0
    outer loop
      vertex -52.75 0 8.55
      vertex -52.75 -49.75 5.22
      vertex -52.75 -49.75 8.55
    endloop
  endfacet
  facet normal -0 0 1
    outer loop
      vertex -52.75 0 8.55
      vertex -50.5 -49.5 8.55
      vertex -50.5 0 8.55
    endloop
  endfacet
  facet normal 0 -0 1
    outer loop
      vertex -52.7263 -50.126 8.55
      vertex -50.5 -49.5 8.55
      vertex -52.75 -49.75 8.55
    endloop
  endfacet
  facet normal 0 0 1
    outer loop
      vertex -50.5 -49.5 8.55
      vertex -51.0273 -52.4645 8.55
      vertex -50.6771 -52.6032 8.55
    endloop
  endfacet
  facet normal 0 0 1
    outer loop
      vertex -50.5 -49.5 8.55
      vertex -51.3575 -52.283 8.55
      vertex -51.0273 -52.4645 8.55
    endloop
  endfacet
  facet normal 0 0 1
    outer loop
      vertex -50.5 -49.5 8.55
      vertex -51.6623 -52.0615 8.55
      vertex -51.3575 -52.283 8.55
    endloop
  endfacet
  facet normal 0 0 1
    outer loop
      vertex -50.5 -49.5 8.55
      vertex -51.9369 -51.8036 8.55
      vertex -51.6623 -52.0615 8.55
    endloop
  endfacet
  facet normal 0 0 1
    outer loop
      vertex -50.5 -49.5 8.55
      vertex -52.1771 -51.5134 8.55
      vertex -51.9369 -51.8036 8.55
    endloop
  endfacet
  facet normal 0 0 1
    outer loop
      vertex -50.5 -49.5 8.55
      vertex -52.3789 -51.1953 8.55
      vertex -52.1771 -51.5134 8.55
    endloop
  endfacet
  facet normal 0 0 1
    outer loop
      vertex -50.5 -49.5 8.55
      vertex -52.5393 -50.8544 8.55
      vertex -52.3789 -51.1953 8.55
    endloop
  endfacet
  facet normal 0 0 1
    outer loop
      vertex -50.5 -49.5 8.55
      vertex -52.6558 -50.4961 8.55
      vertex -52.5393 -50.8544 8.55
    endloop
  endfacet
  facet normal 0 0 1
    outer loop
      vertex -50.5 -49.5 8.55
      vertex -52.75 0 8.55
      vertex -52.75 -49.75 8.55
    endloop
  endfacet
  facet normal 0 0 1
    outer loop
      vertex -50.5 -49.5 8.55
      vertex -52.7263 -50.126 8.55
      vertex -52.6558 -50.4961 8.55
    endloop
  endfacet
  facet normal -0 0 1
    outer loop
      vertex -49.5628 -50.498 8.55
      vertex -25 -52.7441 8.55
      vertex -25 -50.498 8.55
    endloop
  endfacet
  facet normal 0 0 1
    outer loop
      vertex -49.5628 -50.498 8.55
      vertex -49.9384 -52.7441 8.55
      vertex -25 -52.7441 8.55
    endloop
  endfacet
  facet normal 0 0 1
    outer loop
      vertex -49.6874 -50.4823 8.55
      vertex -49.9384 -52.7441 8.55
      vertex -49.5628 -50.498 8.55
    endloop
  endfacet
  facet normal 0 0 1
    outer loop
      vertex -50.3121 -52.6969 8.55
      vertex -49.6874 -50.4823 8.55
      vertex -49.809 -50.4511 8.55
    endloop
  endfacet
  facet normal 0 0 1
    outer loop
      vertex -50.6771 -52.6032 8.55
      vertex -49.809 -50.4511 8.55
      vertex -49.9258 -50.4048 8.55
    endloop
  endfacet
  facet normal 0 0 1
    outer loop
      vertex -50.6771 -52.6032 8.55
      vertex -49.9258 -50.4048 8.55
      vertex -50.0358 -50.3443 8.55
    endloop
  endfacet
  facet normal 0 0 1
    outer loop
      vertex -50.6771 -52.6032 8.55
      vertex -50.0358 -50.3443 8.55
      vertex -50.1374 -50.2705 8.55
    endloop
  endfacet
  facet normal 0 0 1
    outer loop
      vertex -50.6771 -52.6032 8.55
      vertex -50.1374 -50.2705 8.55
      vertex -50.229 -50.1845 8.55
    endloop
  endfacet
  facet normal 0 0 1
    outer loop
      vertex -50.6771 -52.6032 8.55
      vertex -50.229 -50.1845 8.55
      vertex -50.309 -50.0878 8.55
    endloop
  endfacet
  facet normal 0 0 1
    outer loop
      vertex -49.6874 -50.4823 8.55
      vertex -50.3121 -52.6969 8.55
      vertex -49.9384 -52.7441 8.55
    endloop
  endfacet
  facet normal 0 0 1
    outer loop
      vertex -50.6771 -52.6032 8.55
      vertex -50.309 -50.0878 8.55
      vertex -50.3763 -49.9818 8.55
    endloop
  endfacet
  facet normal 0 0 1
    outer loop
      vertex -50.6771 -52.6032 8.55
      vertex -50.3763 -49.9818 8.55
      vertex -50.4298 -49.8681 8.55
    endloop
  endfacet
  facet normal 0 0 1
    outer loop
      vertex -50.6771 -52.6032 8.55
      vertex -50.4298 -49.8681 8.55
      vertex -50.4686 -49.7487 8.55
    endloop
  endfacet
  facet normal 0 0 1
    outer loop
      vertex -50.6771 -52.6032 8.55
      vertex -50.4686 -49.7487 8.55
      vertex -50.4921 -49.6253 8.55
    endloop
  endfacet
  facet normal 0 0 1
    outer loop
      vertex -50.6771 -52.6032 8.55
      vertex -50.4921 -49.6253 8.55
      vertex -50.5 -49.5 8.55
    endloop
  endfacet
  facet normal 0 0 1
    outer loop
      vertex -49.809 -50.4511 8.55
      vertex -50.6771 -52.6032 8.55
      vertex -50.3121 -52.6969 8.55
    endloop
  endfacet
  facet normal -0.368124 -0.929777 0
    outer loop
      vertex -51.0273 -52.4645 5.22
      vertex -50.6771 -52.6032 8.55
      vertex -51.0273 -52.4645 8.55
    endloop
  endfacet
  facet normal -0.368124 -0.929777 -0
    outer loop
      vertex -50.6771 -52.6032 8.55
      vertex -51.0273 -52.4645 5.22
      vertex -50.6771 -52.6032 5.22
    endloop
  endfacet
  facet normal 0 -1 0
    outer loop
      vertex -49.9384 -52.7441 5.22
      vertex -25 -52.7441 8.55
      vertex -49.9384 -52.7441 8.55
    endloop
  endfacet
  facet normal 0 -1 -0
    outer loop
      vertex -25 -52.7441 8.55
      vertex -49.9384 -52.7441 5.22
      vertex -25 -52.7441 5.22
    endloop
  endfacet
  facet normal -0.904827 -0.425779 0
    outer loop
      vertex -52.3789 -51.1953 5.22
      vertex -52.5393 -50.8544 8.55
      vertex -52.5393 -50.8544 5.22
    endloop
  endfacet
  facet normal -0.904827 -0.425779 0
    outer loop
      vertex -52.5393 -50.8544 8.55
      vertex -52.3789 -51.1953 5.22
      vertex -52.3789 -51.1953 8.55
    endloop
  endfacet
  facet normal -0.770513 -0.637425 0
    outer loop
      vertex -51.9369 -51.8036 5.22
      vertex -52.1771 -51.5134 8.55
      vertex -52.1771 -51.5134 5.22
    endloop
  endfacet
  facet normal -0.770513 -0.637425 0
    outer loop
      vertex -52.1771 -51.5134 8.55
      vertex -51.9369 -51.8036 5.22
      vertex -51.9369 -51.8036 8.55
    endloop
  endfacet
  facet normal -0.684542 -0.728973 0
    outer loop
      vertex -51.9369 -51.8036 5.22
      vertex -51.6623 -52.0615 8.55
      vertex -51.9369 -51.8036 8.55
    endloop
  endfacet
  facet normal -0.684542 -0.728973 -0
    outer loop
      vertex -51.6623 -52.0615 8.55
      vertex -51.9369 -51.8036 5.22
      vertex -51.6623 -52.0615 5.22
    endloop
  endfacet
  facet normal -0.248689 -0.968583 0
    outer loop
      vertex -50.6771 -52.6032 5.22
      vertex -50.3121 -52.6969 8.55
      vertex -50.6771 -52.6032 8.55
    endloop
  endfacet
  facet normal -0.248689 -0.968583 -0
    outer loop
      vertex -50.3121 -52.6969 8.55
      vertex -50.6771 -52.6032 5.22
      vertex -50.3121 -52.6969 5.22
    endloop
  endfacet
  facet normal -0.951056 -0.309019 0
    outer loop
      vertex -52.5393 -50.8544 5.22
      vertex -52.6558 -50.4961 8.55
      vertex -52.6558 -50.4961 5.22
    endloop
  endfacet
  facet normal -0.951056 -0.309019 0
    outer loop
      vertex -52.6558 -50.4961 8.55
      vertex -52.5393 -50.8544 5.22
      vertex -52.5393 -50.8544 8.55
    endloop
  endfacet
  facet normal 0 0 -1
    outer loop
      vertex -25 -50.75 3.8147e-07
      vertex -49.5628 -50.498 3.8147e-07
      vertex -25 -50.498 3.8147e-07
    endloop
  endfacet
  facet normal 0 0 -1
    outer loop
      vertex -50.75 -50.75 3.8147e-07
      vertex -49.5628 -50.498 3.8147e-07
      vertex -25 -50.75 3.8147e-07
    endloop
  endfacet
  facet normal 0 0 -1
    outer loop
      vertex -50.75 -50.75 3.8147e-07
      vertex -49.6874 -50.4823 3.8147e-07
      vertex -49.5628 -50.498 3.8147e-07
    endloop
  endfacet
  facet normal 0 0 -1
    outer loop
      vertex -50.75 -50.75 3.8147e-07
      vertex -49.809 -50.4511 3.8147e-07
      vertex -49.6874 -50.4823 3.8147e-07
    endloop
  endfacet
  facet normal 0 0 -1
    outer loop
      vertex -50.75 -50.75 3.8147e-07
      vertex -49.9258 -50.4048 3.8147e-07
      vertex -49.809 -50.4511 3.8147e-07
    endloop
  endfacet
  facet normal 0 0 -1
    outer loop
      vertex -50.75 -50.75 3.8147e-07
      vertex -50.0358 -50.3443 3.8147e-07
      vertex -49.9258 -50.4048 3.8147e-07
    endloop
  endfacet
  facet normal 0 0 -1
    outer loop
      vertex -50.75 -50.75 3.8147e-07
      vertex -50.1374 -50.2705 3.8147e-07
      vertex -50.0358 -50.3443 3.8147e-07
    endloop
  endfacet
  facet normal 0 0 -1
    outer loop
      vertex -50.75 -50.75 3.8147e-07
      vertex -50.229 -50.1845 3.8147e-07
      vertex -50.1374 -50.2705 3.8147e-07
    endloop
  endfacet
  facet normal 0 0 -1
    outer loop
      vertex -50.75 -50.75 3.8147e-07
      vertex -50.309 -50.0878 3.8147e-07
      vertex -50.229 -50.1845 3.8147e-07
    endloop
  endfacet
  facet normal 0 0 -1
    outer loop
      vertex -50.75 -50.75 3.8147e-07
      vertex -50.3763 -49.9818 3.8147e-07
      vertex -50.309 -50.0878 3.8147e-07
    endloop
  endfacet
  facet normal 0 0 -1
    outer loop
      vertex -50.75 -50.75 3.8147e-07
      vertex -50.4298 -49.8681 3.8147e-07
      vertex -50.3763 -49.9818 3.8147e-07
    endloop
  endfacet
  facet normal 0 0 -1
    outer loop
      vertex -50.75 -50.75 3.8147e-07
      vertex -50.4686 -49.7487 3.8147e-07
      vertex -50.4298 -49.8681 3.8147e-07
    endloop
  endfacet
  facet normal 0 0 -1
    outer loop
      vertex -50.75 -50.75 3.8147e-07
      vertex -50.4921 -49.6253 3.8147e-07
      vertex -50.4686 -49.7487 3.8147e-07
    endloop
  endfacet
  facet normal 0 0 -1
    outer loop
      vertex -50.75 -50.75 3.8147e-07
      vertex -50.5 -49.5 3.8147e-07
      vertex -50.4921 -49.6253 3.8147e-07
    endloop
  endfacet
  facet normal 0 0 -1
    outer loop
      vertex -50.75 0 3.8147e-07
      vertex -50.5 -49.5 3.8147e-07
      vertex -50.75 -50.75 3.8147e-07
    endloop
  endfacet
  facet normal 0 0 -1
    outer loop
      vertex -50.5 -49.5 3.8147e-07
      vertex -50.75 0 3.8147e-07
      vertex -50.5 0 3.8147e-07
    endloop
  endfacet
  facet normal -0.844328 -0.535827 0
    outer loop
      vertex -52.1771 -51.5134 5.22
      vertex -52.3789 -51.1953 8.55
      vertex -52.3789 -51.1953 5.22
    endloop
  endfacet
  facet normal -0.844328 -0.535827 0
    outer loop
      vertex -52.3789 -51.1953 8.55
      vertex -52.1771 -51.5134 5.22
      vertex -52.1771 -51.5134 8.55
    endloop
  endfacet
  facet normal -0.481757 -0.876305 0
    outer loop
      vertex -51.3575 -52.283 5.22
      vertex -51.0273 -52.4645 8.55
      vertex -51.3575 -52.283 8.55
    endloop
  endfacet
  facet normal -0.481757 -0.876305 -0
    outer loop
      vertex -51.0273 -52.4645 8.55
      vertex -51.3575 -52.283 5.22
      vertex -51.0273 -52.4645 5.22
    endloop
  endfacet
  facet normal -0.587785 -0.809017 0
    outer loop
      vertex -51.6623 -52.0615 5.22
      vertex -51.3575 -52.283 8.55
      vertex -51.6623 -52.0615 8.55
    endloop
  endfacet
  facet normal -0.587785 -0.809017 -0
    outer loop
      vertex -51.3575 -52.283 8.55
      vertex -51.6623 -52.0615 5.22
      vertex -51.3575 -52.283 5.22
    endloop
  endfacet
  facet normal -0.125333 -0.992115 0
    outer loop
      vertex -50.3121 -52.6969 5.22
      vertex -49.9384 -52.7441 8.55
      vertex -50.3121 -52.6969 8.55
    endloop
  endfacet
  facet normal -0.125333 -0.992115 -0
    outer loop
      vertex -49.9384 -52.7441 8.55
      vertex -50.3121 -52.6969 5.22
      vertex -49.9384 -52.7441 5.22
    endloop
  endfacet
  facet normal -0.982289 -0.187371 0
    outer loop
      vertex -52.6558 -50.4961 5.22
      vertex -52.7263 -50.126 8.55
      vertex -52.7263 -50.126 5.22
    endloop
  endfacet
  facet normal -0.982289 -0.187371 0
    outer loop
      vertex -52.7263 -50.126 8.55
      vertex -52.6558 -50.4961 5.22
      vertex -52.6558 -50.4961 8.55
    endloop
  endfacet
  facet normal -0.998026 -0.0627981 0
    outer loop
      vertex -52.7263 -50.126 5.22
      vertex -52.75 -49.75 8.55
      vertex -52.75 -49.75 5.22
    endloop
  endfacet
  facet normal -0.998026 -0.0627981 0
    outer loop
      vertex -52.75 -49.75 8.55
      vertex -52.7263 -50.126 5.22
      vertex -52.7263 -50.126 8.55
    endloop
  endfacet
  facet normal 0.998027 0.0627887 0
    outer loop
      vertex -50.4921 -49.6253 8.55
      vertex -50.5 -49.5 3.8147e-07
      vertex -50.5 -49.5 8.55
    endloop
  endfacet
  facet normal 0.998027 0.0627887 0
    outer loop
      vertex -50.5 -49.5 3.8147e-07
      vertex -50.4921 -49.6253 8.55
      vertex -50.4921 -49.6253 3.8147e-07
    endloop
  endfacet
  facet normal 1 -0 0
    outer loop
      vertex -50.5 -49.5 8.55
      vertex -50.5 0 3.8147e-07
      vertex -50.5 0 8.55
    endloop
  endfacet
  facet normal 1 0 0
    outer loop
      vertex -50.5 0 3.8147e-07
      vertex -50.5 -49.5 8.55
      vertex -50.5 -49.5 3.8147e-07
    endloop
  endfacet
  facet normal 0.368136 0.929772 -0
    outer loop
      vertex -49.809 -50.4511 3.8147e-07
      vertex -49.9258 -50.4048 8.55
      vertex -49.809 -50.4511 8.55
    endloop
  endfacet
  facet normal 0.368136 0.929772 0
    outer loop
      vertex -49.9258 -50.4048 8.55
      vertex -49.809 -50.4511 3.8147e-07
      vertex -49.9258 -50.4048 3.8147e-07
    endloop
  endfacet
  facet normal 0 1 -0
    outer loop
      vertex -25 -50.498 3.8147e-07
      vertex -49.5628 -50.498 8.55
      vertex -25 -50.498 8.55
    endloop
  endfacet
  facet normal 0 1 0
    outer loop
      vertex -49.5628 -50.498 8.55
      vertex -25 -50.498 3.8147e-07
      vertex -49.5628 -50.498 3.8147e-07
    endloop
  endfacet
  facet normal 0.904824 0.425787 0
    outer loop
      vertex -50.3763 -49.9818 8.55
      vertex -50.4298 -49.8681 3.8147e-07
      vertex -50.4298 -49.8681 8.55
    endloop
  endfacet
  facet normal 0.904824 0.425787 0
    outer loop
      vertex -50.4298 -49.8681 3.8147e-07
      vertex -50.3763 -49.9818 8.55
      vertex -50.3763 -49.9818 3.8147e-07
    endloop
  endfacet
  facet normal 0.770522 0.637414 0
    outer loop
      vertex -50.229 -50.1845 8.55
      vertex -50.309 -50.0878 3.8147e-07
      vertex -50.309 -50.0878 8.55
    endloop
  endfacet
  facet normal 0.770522 0.637414 0
    outer loop
      vertex -50.309 -50.0878 3.8147e-07
      vertex -50.229 -50.1845 8.55
      vertex -50.229 -50.1845 3.8147e-07
    endloop
  endfacet
  facet normal 0.481757 0.876305 -0
    outer loop
      vertex -49.9258 -50.4048 3.8147e-07
      vertex -50.0358 -50.3443 8.55
      vertex -49.9258 -50.4048 8.55
    endloop
  endfacet
  facet normal 0.481757 0.876305 0
    outer loop
      vertex -50.0358 -50.3443 8.55
      vertex -49.9258 -50.4048 3.8147e-07
      vertex -50.0358 -50.3443 3.8147e-07
    endloop
  endfacet
  facet normal 0.951059 0.309011 0
    outer loop
      vertex -50.4298 -49.8681 8.55
      vertex -50.4686 -49.7487 3.8147e-07
      vertex -50.4686 -49.7487 8.55
    endloop
  endfacet
  facet normal 0.951059 0.309011 0
    outer loop
      vertex -50.4686 -49.7487 3.8147e-07
      vertex -50.4298 -49.8681 8.55
      vertex -50.4298 -49.8681 3.8147e-07
    endloop
  endfacet
  facet normal 0.844331 0.535822 0
    outer loop
      vertex -50.309 -50.0878 8.55
      vertex -50.3763 -49.9818 3.8147e-07
      vertex -50.3763 -49.9818 8.55
    endloop
  endfacet
  facet normal 0.844331 0.535822 0
    outer loop
      vertex -50.3763 -49.9818 3.8147e-07
      vertex -50.309 -50.0878 8.55
      vertex -50.309 -50.0878 3.8147e-07
    endloop
  endfacet
  facet normal 0.982285 0.187393 0
    outer loop
      vertex -50.4686 -49.7487 8.55
      vertex -50.4921 -49.6253 3.8147e-07
      vertex -50.4921 -49.6253 8.55
    endloop
  endfacet
  facet normal 0.982285 0.187393 0
    outer loop
      vertex -50.4921 -49.6253 3.8147e-07
      vertex -50.4686 -49.7487 8.55
      vertex -50.4686 -49.7487 3.8147e-07
    endloop
  endfacet
  facet normal 0.587785 0.809017 -0
    outer loop
      vertex -50.0358 -50.3443 3.8147e-07
      vertex -50.1374 -50.2705 8.55
      vertex -50.0358 -50.3443 8.55
    endloop
  endfacet
  facet normal 0.587785 0.809017 0
    outer loop
      vertex -50.1374 -50.2705 8.55
      vertex -50.0358 -50.3443 3.8147e-07
      vertex -50.1374 -50.2705 3.8147e-07
    endloop
  endfacet
  facet normal 0.684537 0.728978 -0
    outer loop
      vertex -50.1374 -50.2705 3.8147e-07
      vertex -50.229 -50.1845 8.55
      vertex -50.1374 -50.2705 8.55
    endloop
  endfacet
  facet normal 0.684537 0.728978 0
    outer loop
      vertex -50.229 -50.1845 8.55
      vertex -50.1374 -50.2705 3.8147e-07
      vertex -50.229 -50.1845 3.8147e-07
    endloop
  endfacet
  facet normal 0.125332 0.992115 -0
    outer loop
      vertex -49.5628 -50.498 3.8147e-07
      vertex -49.6874 -50.4823 8.55
      vertex -49.5628 -50.498 8.55
    endloop
  endfacet
  facet normal 0.125332 0.992115 0
    outer loop
      vertex -49.6874 -50.4823 8.55
      vertex -49.5628 -50.498 3.8147e-07
      vertex -49.6874 -50.4823 3.8147e-07
    endloop
  endfacet
  facet normal 0.248663 0.96859 -0
    outer loop
      vertex -49.6874 -50.4823 3.8147e-07
      vertex -49.809 -50.4511 8.55
      vertex -49.6874 -50.4823 8.55
    endloop
  endfacet
  facet normal 0.248663 0.96859 0
    outer loop
      vertex -49.809 -50.4511 8.55
      vertex -49.6874 -50.4823 3.8147e-07
      vertex -49.809 -50.4511 3.8147e-07
    endloop
  endfacet
  facet normal -1 0 0
    outer loop
      vertex -73 -54.2725 3.43323e-07
      vertex -73 0 5.22
      vertex -73 0 3.43323e-07
    endloop
  endfacet
  facet normal -1 -0 0
    outer loop
      vertex -73 0 5.22
      vertex -73 -54.2725 3.43323e-07
      vertex -73 -54.2725 5.22
    endloop
  endfacet
  facet normal 0 0 1
    outer loop
      vertex -52.75 0 5.22
      vertex -53.29 -20.0825 5.22
      vertex -52.75 -49.75 5.22
    endloop
  endfacet
  facet normal 0 0 1
    outer loop
      vertex -52.75 0 5.22
      vertex -59.05 -20.0825 5.22
      vertex -53.29 -20.0825 5.22
    endloop
  endfacet
  facet normal -0 0 1
    outer loop
      vertex -73 0 5.22
      vertex -59.05 -20.0825 5.22
      vertex -52.75 0 5.22
    endloop
  endfacet
  facet normal 0 0 1
    outer loop
      vertex -73 -54.2725 5.22
      vertex -59.05 -20.0825 5.22
      vertex -73 0 5.22
    endloop
  endfacet
  facet normal 0 0 1
    outer loop
      vertex -59.05 -20.0825 5.22
      vertex -73 -54.2725 5.22
      vertex -59.05 -54.2725 5.22
    endloop
  endfacet
  facet normal -0 0 1
    outer loop
      vertex -49.9384 -52.7441 5.22
      vertex -25 -54.2725 5.22
      vertex -25 -52.7441 5.22
    endloop
  endfacet
  facet normal 0 0 1
    outer loop
      vertex -49.9384 -52.7441 5.22
      vertex -53.29 -54.2725 5.22
      vertex -25 -54.2725 5.22
    endloop
  endfacet
  facet normal 0 0 1
    outer loop
      vertex -50.3121 -52.6969 5.22
      vertex -53.29 -54.2725 5.22
      vertex -49.9384 -52.7441 5.22
    endloop
  endfacet
  facet normal 0 0 1
    outer loop
      vertex -50.6771 -52.6032 5.22
      vertex -53.29 -54.2725 5.22
      vertex -50.3121 -52.6969 5.22
    endloop
  endfacet
  facet normal 0 0 1
    outer loop
      vertex -51.0273 -52.4645 5.22
      vertex -53.29 -54.2725 5.22
      vertex -50.6771 -52.6032 5.22
    endloop
  endfacet
  facet normal 0 0 1
    outer loop
      vertex -51.3575 -52.283 5.22
      vertex -53.29 -54.2725 5.22
      vertex -51.0273 -52.4645 5.22
    endloop
  endfacet
  facet normal 0 0 1
    outer loop
      vertex -51.6623 -52.0615 5.22
      vertex -53.29 -54.2725 5.22
      vertex -51.3575 -52.283 5.22
    endloop
  endfacet
  facet normal 0 0 1
    outer loop
      vertex -51.9369 -51.8036 5.22
      vertex -53.29 -54.2725 5.22
      vertex -51.6623 -52.0615 5.22
    endloop
  endfacet
  facet normal 0 0 1
    outer loop
      vertex -52.1771 -51.5134 5.22
      vertex -53.29 -54.2725 5.22
      vertex -51.9369 -51.8036 5.22
    endloop
  endfacet
  facet normal 0 0 1
    outer loop
      vertex -52.3789 -51.1953 5.22
      vertex -53.29 -54.2725 5.22
      vertex -52.1771 -51.5134 5.22
    endloop
  endfacet
  facet normal 0 0 1
    outer loop
      vertex -52.5393 -50.8544 5.22
      vertex -53.29 -54.2725 5.22
      vertex -52.3789 -51.1953 5.22
    endloop
  endfacet
  facet normal 0 0 1
    outer loop
      vertex -52.6558 -50.4961 5.22
      vertex -53.29 -54.2725 5.22
      vertex -52.5393 -50.8544 5.22
    endloop
  endfacet
  facet normal 0 0 1
    outer loop
      vertex -52.7263 -50.126 5.22
      vertex -53.29 -54.2725 5.22
      vertex -52.6558 -50.4961 5.22
    endloop
  endfacet
  facet normal 0 0 1
    outer loop
      vertex -52.75 -49.75 5.22
      vertex -53.29 -54.2725 5.22
      vertex -52.7263 -50.126 5.22
    endloop
  endfacet
  facet normal 0 0 1
    outer loop
      vertex -53.29 -54.2725 5.22
      vertex -52.75 -49.75 5.22
      vertex -53.29 -20.0825 5.22
    endloop
  endfacet
  facet normal 0 0 -1
    outer loop
      vertex -25 -54.2725 3.43323e-07
      vertex -50.75 -50.75 3.43323e-07
      vertex -25 -50.75 3.43323e-07
    endloop
  endfacet
  facet normal 0 0 -1
    outer loop
      vertex -73 -54.2725 3.43323e-07
      vertex -50.75 -50.75 3.43323e-07
      vertex -25 -54.2725 3.43323e-07
    endloop
  endfacet
  facet normal 0 0 -1
    outer loop
      vertex -73 0 3.43323e-07
      vertex -50.75 -50.75 3.43323e-07
      vertex -73 -54.2725 3.43323e-07
    endloop
  endfacet
  facet normal 0 0 -1
    outer loop
      vertex -50.75 -50.75 3.43323e-07
      vertex -73 0 3.43323e-07
      vertex -50.75 0 3.43323e-07
    endloop
  endfacet
  facet normal 0 -1 0
    outer loop
      vertex -73 -54.2725 3.43323e-07
      vertex -59.05 -54.2725 5.22
      vertex -73 -54.2725 5.22
    endloop
  endfacet
  facet normal 0 -1 -0
    outer loop
      vertex -59.05 -54.2725 5.22
      vertex -73 -54.2725 3.43323e-07
      vertex -53.29 -54.2725 5.22
    endloop
  endfacet
  facet normal 0 -1 0
    outer loop
      vertex -25 -54.2725 3.43323e-07
      vertex -53.29 -54.2725 5.22
      vertex -73 -54.2725 3.43323e-07
    endloop
  endfacet
  facet normal 0 -1 0
    outer loop
      vertex -53.29 -54.2725 5.22
      vertex -25 -54.2725 3.43323e-07
      vertex -25 -54.2725 5.22
    endloop
  endfacet
  facet normal 0 -1 0
    outer loop
      vertex -59.05 -54.2725 5.22
      vertex -53.29 -54.2725 5.37
      vertex -59.05 -54.2725 5.37
    endloop
  endfacet
  facet normal 0 -1 -0
    outer loop
      vertex -53.29 -54.2725 5.37
      vertex -59.05 -54.2725 5.22
      vertex -53.29 -54.2725 5.22
    endloop
  endfacet
  facet normal 1 -0 0
    outer loop
      vertex -50.75 -50.75 3.8147e-07
      vertex -50.75 0 3.43323e-07
      vertex -50.75 0 3.8147e-07
    endloop
  endfacet
  facet normal 1 0 0
    outer loop
      vertex -50.75 0 3.43323e-07
      vertex -50.75 -50.75 3.8147e-07
      vertex -50.75 -50.75 3.43323e-07
    endloop
  endfacet
  facet normal 0 1 -0
    outer loop
      vertex -25 -50.75 3.43323e-07
      vertex -50.75 -50.75 3.8147e-07
      vertex -25 -50.75 3.8147e-07
    endloop
  endfacet
  facet normal 0 1 0
    outer loop
      vertex -50.75 -50.75 3.8147e-07
      vertex -25 -50.75 3.43323e-07
      vertex -50.75 -50.75 3.43323e-07
    endloop
  endfacet
  facet normal -1 0 0
    outer loop
      vertex -59.05 -54.2725 5.22
      vertex -59.05 -20.0825 5.37
      vertex -59.05 -20.0825 5.22
    endloop
  endfacet
  facet normal -1 -0 0
    outer loop
      vertex -59.05 -20.0825 5.37
      vertex -59.05 -54.2725 5.22
      vertex -59.05 -54.2725 5.37
    endloop
  endfacet
  facet normal -0 0 1
    outer loop
      vertex -59.05 -20.0825 5.37
      vertex -53.29 -54.2725 5.37
      vertex -53.29 -20.0825 5.37
    endloop
  endfacet
  facet normal 0 0 1
    outer loop
      vertex -53.29 -54.2725 5.37
      vertex -59.05 -20.0825 5.37
      vertex -59.05 -54.2725 5.37
    endloop
  endfacet
  facet normal 1 -0 0
    outer loop
      vertex -53.29 -54.2725 5.37
      vertex -53.29 -20.0825 5.22
      vertex -53.29 -20.0825 5.37
    endloop
  endfacet
  facet normal 1 0 0
    outer loop
      vertex -53.29 -20.0825 5.22
      vertex -53.29 -54.2725 5.37
      vertex -53.29 -54.2725 5.22
    endloop
  endfacet
  facet normal 0 1 -0
    outer loop
      vertex -53.29 -20.0825 5.22
      vertex -59.05 -20.0825 5.37
      vertex -53.29 -20.0825 5.37
    endloop
  endfacet
  facet normal 0 1 0
    outer loop
      vertex -59.05 -20.0825 5.37
      vertex -53.29 -20.0825 5.22
      vertex -59.05 -20.0825 5.22
    endloop
  endfacet
  facet normal -1 0 0
    outer loop
      vertex -64.555 -13.085 5.22
      vertex -64.555 -2.915 11.02
      vertex -64.555 -2.915 5.22
    endloop
  endfacet
  facet normal -1 -0 0
    outer loop
      vertex -64.555 -2.915 11.02
      vertex -64.555 -13.085 5.22
      vertex -64.555 -13.085 11.02
    endloop
  endfacet
  facet normal -0 0 1
    outer loop
      vertex -64.555 -2.915 11.02
      vertex -58.445 -13.085 11.02
      vertex -58.445 -2.915 11.02
    endloop
  endfacet
  facet normal 0 0 1
    outer loop
      vertex -58.445 -13.085 11.02
      vertex -64.555 -2.915 11.02
      vertex -64.555 -13.085 11.02
    endloop
  endfacet
  facet normal 1 -0 0
    outer loop
      vertex -58.445 -13.085 11.02
      vertex -58.445 -2.915 9.435
      vertex -58.445 -2.915 11.02
    endloop
  endfacet
  facet normal 1 0 0
    outer loop
      vertex -58.445 -2.915 9.435
      vertex -58.445 -13.085 11.02
      vertex -58.445 -13.085 9.435
    endloop
  endfacet
  facet normal 0 1 0
    outer loop
      vertex -61.555 -2.915 9.435
      vertex -58.445 -2.915 11.02
      vertex -58.445 -2.915 9.435
    endloop
  endfacet
  facet normal 0 1 0
    outer loop
      vertex -58.445 -2.915 11.02
      vertex -61.555 -2.915 9.435
      vertex -64.555 -2.915 11.02
    endloop
  endfacet
  facet normal 0 1 0
    outer loop
      vertex -64.555 -2.915 5.22
      vertex -61.555 -2.915 9.435
      vertex -61.555 -2.915 5.22
    endloop
  endfacet
  facet normal 0 1 0
    outer loop
      vertex -61.555 -2.915 9.435
      vertex -64.555 -2.915 5.22
      vertex -64.555 -2.915 11.02
    endloop
  endfacet
  facet normal 0 0 -1
    outer loop
      vertex -64.555 -13.085 5.22
      vertex -61.555 -2.915 5.22
      vertex -61.555 -13.085 5.22
    endloop
  endfacet
  facet normal -0 0 -1
    outer loop
      vertex -61.555 -2.915 5.22
      vertex -64.555 -13.085 5.22
      vertex -64.555 -2.915 5.22
    endloop
  endfacet
  facet normal 0 -1 0
    outer loop
      vertex -64.555 -13.085 11.02
      vertex -61.555 -13.085 9.435
      vertex -58.445 -13.085 11.02
    endloop
  endfacet
  facet normal 0 -1 0
    outer loop
      vertex -64.555 -13.085 5.22
      vertex -61.555 -13.085 9.435
      vertex -64.555 -13.085 11.02
    endloop
  endfacet
  facet normal 0 -1 -0
    outer loop
      vertex -61.555 -13.085 9.435
      vertex -64.555 -13.085 5.22
      vertex -61.555 -13.085 5.22
    endloop
  endfacet
  facet normal 0 -1 -0
    outer loop
      vertex -58.445 -13.085 11.02
      vertex -61.555 -13.085 9.435
      vertex -58.445 -13.085 9.435
    endloop
  endfacet
  facet normal 1 -0 0
    outer loop
      vertex -61.555 -13.085 9.435
      vertex -61.555 -2.915 5.22
      vertex -61.555 -2.915 9.435
    endloop
  endfacet
  facet normal 1 0 0
    outer loop
      vertex -61.555 -2.915 5.22
      vertex -61.555 -13.085 9.435
      vertex -61.555 -13.085 5.22
    endloop
  endfacet
  facet normal 0 0 -1
    outer loop
      vertex -61.555 -13.085 9.435
      vertex -58.445 -2.915 9.435
      vertex -58.445 -13.085 9.435
    endloop
  endfacet
  facet normal -0 0 -1
    outer loop
      vertex -58.445 -2.915 9.435
      vertex -61.555 -13.085 9.435
      vertex -61.555 -2.915 9.435
    endloop
  endfacet
  facet normal 0 1 0
    outer loop
      vertex -50.5 0 8.55
      vertex -52.75 0 5.22
      vertex -52.75 0 8.55
    endloop
  endfacet
  facet normal 0 1 -0
    outer loop
      vertex -50.5 0 3.8147e-07
      vertex -52.75 0 5.22
      vertex -50.5 0 8.55
    endloop
  endfacet
  facet normal 0 1 -0
    outer loop
      vertex -50.75 0 3.8147e-07
      vertex -52.75 0 5.22
      vertex -50.5 0 3.8147e-07
    endloop
  endfacet
  facet normal 0 1 -0
    outer loop
      vertex -50.75 0 3.43323e-07
      vertex -52.75 0 5.22
      vertex -50.75 0 3.8147e-07
    endloop
  endfacet
  facet normal 0 1 0
    outer loop
      vertex -52.75 0 5.22
      vertex -50.75 0 3.43323e-07
      vertex -73 0 3.43323e-07
    endloop
  endfacet
  facet normal 0 1 0
    outer loop
      vertex -52.75 0 5.22
      vertex -73 0 3.43323e-07
      vertex -73 0 5.22
    endloop
  endfacet
  facet normal 1 -0 0
    outer loop
      vertex -25 -52.7441 5.22
      vertex -25 -50.498 3.8147e-07
      vertex -25 -50.498 8.55
    endloop
  endfacet
  facet normal 1 0 0
    outer loop
      vertex -25 -52.7441 5.22
      vertex -25 -50.498 8.55
      vertex -25 -52.7441 8.55
    endloop
  endfacet
  facet normal 1 0 0
    outer loop
      vertex -25 -50.498 3.8147e-07
      vertex -25 -52.7441 5.22
      vertex -25 -50.75 3.8147e-07
    endloop
  endfacet
  facet normal 1 0 0
    outer loop
      vertex -25 -54.2725 3.43323e-07
      vertex -25 -50.75 3.8147e-07
      vertex -25 -52.7441 5.22
    endloop
  endfacet
  facet normal 1 0 0
    outer loop
      vertex -25 -54.2725 3.43323e-07
      vertex -25 -52.7441 5.22
      vertex -25 -54.2725 5.22
    endloop
  endfacet
  facet normal 1 0 0
    outer loop
      vertex -25 -50.75 3.8147e-07
      vertex -25 -54.2725 3.43323e-07
      vertex -25 -50.75 3.43323e-07
    endloop
  endfacet
endsolid OpenSCAD_Model
