solid OpenSCAD_Model
  facet normal 0 -1 0
    outer loop
      vertex 57.809 18.8289 2.61
      vertex 60.809 18.8289 3.23
      vertex 57.809 18.8289 3.23
    endloop
  endfacet
  facet normal 0 -1 -0
    outer loop
      vertex 60.809 18.8289 3.23
      vertex 57.809 18.8289 2.61
      vertex 60.809 18.8289 2.61
    endloop
  endfacet
  facet normal 0.809017 -0.587786 0
    outer loop
      vertex 60.809 18.8289 3.23
      vertex 61.5 19.78 2.61
      vertex 61.5 19.78 3.23
    endloop
  endfacet
  facet normal 0.809017 -0.587786 0
    outer loop
      vertex 61.5 19.78 2.61
      vertex 60.809 18.8289 3.23
      vertex 60.809 18.8289 2.61
    endloop
  endfacet
  facet normal -0.309017 -0.951056 0
    outer loop
      vertex 56.691 19.1922 2.61
      vertex 57.809 18.8289 3.23
      vertex 56.691 19.1922 3.23
    endloop
  endfacet
  facet normal -0.309017 -0.951056 -0
    outer loop
      vertex 57.809 18.8289 3.23
      vertex 56.691 19.1922 2.61
      vertex 57.809 18.8289 2.61
    endloop
  endfacet
  facet normal 0 1 -0
    outer loop
      vertex 60.809 53.7311 2.61
      vertex 57.809 53.7311 3.23
      vertex 60.809 53.7311 3.23
    endloop
  endfacet
  facet normal 0 1 0
    outer loop
      vertex 57.809 53.7311 3.23
      vertex 60.809 53.7311 2.61
      vertex 57.809 53.7311 2.61
    endloop
  endfacet
  facet normal -0.309019 0.951056 0
    outer loop
      vertex 57.809 53.7311 2.61
      vertex 56.691 53.3678 3.23
      vertex 57.809 53.7311 3.23
    endloop
  endfacet
  facet normal -0.309019 0.951056 0
    outer loop
      vertex 56.691 53.3678 3.23
      vertex 57.809 53.7311 2.61
      vertex 56.691 53.3678 2.61
    endloop
  endfacet
  facet normal -1 0 0
    outer loop
      vertex 56.691 19.1922 2.61
      vertex 56.691 53.3678 3.23
      vertex 56.691 53.3678 2.61
    endloop
  endfacet
  facet normal -1 -0 0
    outer loop
      vertex 56.691 53.3678 3.23
      vertex 56.691 19.1922 2.61
      vertex 56.691 19.1922 3.23
    endloop
  endfacet
  facet normal -0 0 1
    outer loop
      vertex 57.809 53.7311 3.23
      vertex 61.5 52.78 3.23
      vertex 60.809 53.7311 3.23
    endloop
  endfacet
  facet normal 0 0 1
    outer loop
      vertex 61.5 52.78 3.23
      vertex 56.691 53.3678 3.23
      vertex 61.5 19.78 3.23
    endloop
  endfacet
  facet normal 0 0 1
    outer loop
      vertex 61.5 52.78 3.23
      vertex 57.809 53.7311 3.23
      vertex 56.691 53.3678 3.23
    endloop
  endfacet
  facet normal 0 0 1
    outer loop
      vertex 56.691 19.1922 3.23
      vertex 61.5 19.78 3.23
      vertex 56.691 53.3678 3.23
    endloop
  endfacet
  facet normal 0 -0 1
    outer loop
      vertex 57.809 18.8289 3.23
      vertex 61.5 19.78 3.23
      vertex 56.691 19.1922 3.23
    endloop
  endfacet
  facet normal 0 0 1
    outer loop
      vertex 61.5 19.78 3.23
      vertex 57.809 18.8289 3.23
      vertex 60.809 18.8289 3.23
    endloop
  endfacet
  facet normal 0.809017 0.587785 0
    outer loop
      vertex 61.5 52.78 3.23
      vertex 60.809 53.7311 2.61
      vertex 60.809 53.7311 3.23
    endloop
  endfacet
  facet normal 0.809017 0.587785 0
    outer loop
      vertex 60.809 53.7311 2.61
      vertex 61.5 52.78 3.23
      vertex 61.5 52.78 2.61
    endloop
  endfacet
  facet normal 1 -0 0
    outer loop
      vertex 61.5 19.78 3.23
      vertex 61.5 52.78 2.61
      vertex 61.5 52.78 3.23
    endloop
  endfacet
  facet normal 1 0 0
    outer loop
      vertex 61.5 52.78 2.61
      vertex 61.5 19.78 3.23
      vertex 61.5 19.78 2.61
    endloop
  endfacet
  facet normal 0 -1 0
    outer loop
      vertex 57.809 -53.7311 2.61
      vertex 60.809 -53.7311 3.23
      vertex 57.809 -53.7311 3.23
    endloop
  endfacet
  facet normal 0 -1 -0
    outer loop
      vertex 60.809 -53.7311 3.23
      vertex 57.809 -53.7311 2.61
      vertex 60.809 -53.7311 2.61
    endloop
  endfacet
  facet normal 0.809017 -0.587785 0
    outer loop
      vertex 60.809 -53.7311 3.23
      vertex 61.5 -52.78 2.61
      vertex 61.5 -52.78 3.23
    endloop
  endfacet
  facet normal 0.809017 -0.587785 0
    outer loop
      vertex 61.5 -52.78 2.61
      vertex 60.809 -53.7311 3.23
      vertex 60.809 -53.7311 2.61
    endloop
  endfacet
  facet normal -0.309019 -0.951056 0
    outer loop
      vertex 56.691 -53.3678 2.61
      vertex 57.809 -53.7311 3.23
      vertex 56.691 -53.3678 3.23
    endloop
  endfacet
  facet normal -0.309019 -0.951056 -0
    outer loop
      vertex 57.809 -53.7311 3.23
      vertex 56.691 -53.3678 2.61
      vertex 57.809 -53.7311 2.61
    endloop
  endfacet
  facet normal 1 -0 0
    outer loop
      vertex 61.5 -52.78 3.23
      vertex 61.5 -19.78 2.61
      vertex 61.5 -19.78 3.23
    endloop
  endfacet
  facet normal 1 0 0
    outer loop
      vertex 61.5 -19.78 2.61
      vertex 61.5 -52.78 3.23
      vertex 61.5 -52.78 2.61
    endloop
  endfacet
  facet normal 0 1 -0
    outer loop
      vertex 60.809 -18.8289 2.61
      vertex 57.809 -18.8289 3.23
      vertex 60.809 -18.8289 3.23
    endloop
  endfacet
  facet normal 0 1 0
    outer loop
      vertex 57.809 -18.8289 3.23
      vertex 60.809 -18.8289 2.61
      vertex 57.809 -18.8289 2.61
    endloop
  endfacet
  facet normal -0.309017 0.951056 0
    outer loop
      vertex 57.809 -18.8289 2.61
      vertex 56.691 -19.1922 3.23
      vertex 57.809 -18.8289 3.23
    endloop
  endfacet
  facet normal -0.309017 0.951056 0
    outer loop
      vertex 56.691 -19.1922 3.23
      vertex 57.809 -18.8289 2.61
      vertex 56.691 -19.1922 2.61
    endloop
  endfacet
  facet normal -1 0 0
    outer loop
      vertex 56.691 -53.3678 2.61
      vertex 56.691 -19.1922 3.23
      vertex 56.691 -19.1922 2.61
    endloop
  endfacet
  facet normal -1 -0 0
    outer loop
      vertex 56.691 -19.1922 3.23
      vertex 56.691 -53.3678 2.61
      vertex 56.691 -53.3678 3.23
    endloop
  endfacet
  facet normal -0 0 1
    outer loop
      vertex 57.809 -18.8289 3.23
      vertex 61.5 -19.78 3.23
      vertex 60.809 -18.8289 3.23
    endloop
  endfacet
  facet normal 0 0 1
    outer loop
      vertex 61.5 -19.78 3.23
      vertex 56.691 -19.1922 3.23
      vertex 61.5 -52.78 3.23
    endloop
  endfacet
  facet normal 0 0 1
    outer loop
      vertex 61.5 -19.78 3.23
      vertex 57.809 -18.8289 3.23
      vertex 56.691 -19.1922 3.23
    endloop
  endfacet
  facet normal 0 0 1
    outer loop
      vertex 56.691 -53.3678 3.23
      vertex 61.5 -52.78 3.23
      vertex 56.691 -19.1922 3.23
    endloop
  endfacet
  facet normal 0 -0 1
    outer loop
      vertex 57.809 -53.7311 3.23
      vertex 61.5 -52.78 3.23
      vertex 56.691 -53.3678 3.23
    endloop
  endfacet
  facet normal 0 0 1
    outer loop
      vertex 61.5 -52.78 3.23
      vertex 57.809 -53.7311 3.23
      vertex 60.809 -53.7311 3.23
    endloop
  endfacet
  facet normal 0.809017 0.587786 0
    outer loop
      vertex 61.5 -19.78 3.23
      vertex 60.809 -18.8289 2.61
      vertex 60.809 -18.8289 3.23
    endloop
  endfacet
  facet normal 0.809017 0.587786 0
    outer loop
      vertex 60.809 -18.8289 2.61
      vertex 61.5 -19.78 3.23
      vertex 61.5 -19.78 2.61
    endloop
  endfacet
  facet normal 0 -1 0
    outer loop
      vertex -60.191 18.8289 2.61
      vertex -57.191 18.8289 3.23
      vertex -60.191 18.8289 3.23
    endloop
  endfacet
  facet normal 0 -1 -0
    outer loop
      vertex -57.191 18.8289 3.23
      vertex -60.191 18.8289 2.61
      vertex -57.191 18.8289 2.61
    endloop
  endfacet
  facet normal 0.809017 -0.587786 0
    outer loop
      vertex -57.191 18.8289 3.23
      vertex -56.5 19.78 2.61
      vertex -56.5 19.78 3.23
    endloop
  endfacet
  facet normal 0.809017 -0.587786 0
    outer loop
      vertex -56.5 19.78 2.61
      vertex -57.191 18.8289 3.23
      vertex -57.191 18.8289 2.61
    endloop
  endfacet
  facet normal -0.309017 -0.951056 0
    outer loop
      vertex -61.309 19.1922 2.61
      vertex -60.191 18.8289 3.23
      vertex -61.309 19.1922 3.23
    endloop
  endfacet
  facet normal -0.309017 -0.951056 -0
    outer loop
      vertex -60.191 18.8289 3.23
      vertex -61.309 19.1922 2.61
      vertex -60.191 18.8289 2.61
    endloop
  endfacet
  facet normal 0 1 -0
    outer loop
      vertex -57.191 53.7311 2.61
      vertex -60.191 53.7311 3.23
      vertex -57.191 53.7311 3.23
    endloop
  endfacet
  facet normal 0 1 0
    outer loop
      vertex -60.191 53.7311 3.23
      vertex -57.191 53.7311 2.61
      vertex -60.191 53.7311 2.61
    endloop
  endfacet
  facet normal -0.309019 0.951056 0
    outer loop
      vertex -60.191 53.7311 2.61
      vertex -61.309 53.3678 3.23
      vertex -60.191 53.7311 3.23
    endloop
  endfacet
  facet normal -0.309019 0.951056 0
    outer loop
      vertex -61.309 53.3678 3.23
      vertex -60.191 53.7311 2.61
      vertex -61.309 53.3678 2.61
    endloop
  endfacet
  facet normal -1 0 0
    outer loop
      vertex -61.309 19.1922 2.61
      vertex -61.309 53.3678 3.23
      vertex -61.309 53.3678 2.61
    endloop
  endfacet
  facet normal -1 -0 0
    outer loop
      vertex -61.309 53.3678 3.23
      vertex -61.309 19.1922 2.61
      vertex -61.309 19.1922 3.23
    endloop
  endfacet
  facet normal -0 0 1
    outer loop
      vertex -60.191 53.7311 3.23
      vertex -56.5 52.78 3.23
      vertex -57.191 53.7311 3.23
    endloop
  endfacet
  facet normal 0 0 1
    outer loop
      vertex -56.5 52.78 3.23
      vertex -61.309 53.3678 3.23
      vertex -56.5 19.78 3.23
    endloop
  endfacet
  facet normal 0 0 1
    outer loop
      vertex -56.5 52.78 3.23
      vertex -60.191 53.7311 3.23
      vertex -61.309 53.3678 3.23
    endloop
  endfacet
  facet normal 0 0 1
    outer loop
      vertex -61.309 19.1922 3.23
      vertex -56.5 19.78 3.23
      vertex -61.309 53.3678 3.23
    endloop
  endfacet
  facet normal 0 -0 1
    outer loop
      vertex -60.191 18.8289 3.23
      vertex -56.5 19.78 3.23
      vertex -61.309 19.1922 3.23
    endloop
  endfacet
  facet normal 0 0 1
    outer loop
      vertex -56.5 19.78 3.23
      vertex -60.191 18.8289 3.23
      vertex -57.191 18.8289 3.23
    endloop
  endfacet
  facet normal 0.809017 0.587785 0
    outer loop
      vertex -56.5 52.78 3.23
      vertex -57.191 53.7311 2.61
      vertex -57.191 53.7311 3.23
    endloop
  endfacet
  facet normal 0.809017 0.587785 0
    outer loop
      vertex -57.191 53.7311 2.61
      vertex -56.5 52.78 3.23
      vertex -56.5 52.78 2.61
    endloop
  endfacet
  facet normal 1 -0 0
    outer loop
      vertex -56.5 19.78 3.23
      vertex -56.5 52.78 2.61
      vertex -56.5 52.78 3.23
    endloop
  endfacet
  facet normal 1 0 0
    outer loop
      vertex -56.5 52.78 2.61
      vertex -56.5 19.78 3.23
      vertex -56.5 19.78 2.61
    endloop
  endfacet
  facet normal 0 -1 0
    outer loop
      vertex -60.191 -53.7311 2.61
      vertex -57.191 -53.7311 3.23
      vertex -60.191 -53.7311 3.23
    endloop
  endfacet
  facet normal 0 -1 -0
    outer loop
      vertex -57.191 -53.7311 3.23
      vertex -60.191 -53.7311 2.61
      vertex -57.191 -53.7311 2.61
    endloop
  endfacet
  facet normal 0.809017 -0.587785 0
    outer loop
      vertex -57.191 -53.7311 3.23
      vertex -56.5 -52.78 2.61
      vertex -56.5 -52.78 3.23
    endloop
  endfacet
  facet normal 0.809017 -0.587785 0
    outer loop
      vertex -56.5 -52.78 2.61
      vertex -57.191 -53.7311 3.23
      vertex -57.191 -53.7311 2.61
    endloop
  endfacet
  facet normal -0.309019 -0.951056 0
    outer loop
      vertex -61.309 -53.3678 2.61
      vertex -60.191 -53.7311 3.23
      vertex -61.309 -53.3678 3.23
    endloop
  endfacet
  facet normal -0.309019 -0.951056 -0
    outer loop
      vertex -60.191 -53.7311 3.23
      vertex -61.309 -53.3678 2.61
      vertex -60.191 -53.7311 2.61
    endloop
  endfacet
  facet normal 1 -0 0
    outer loop
      vertex -56.5 -52.78 3.23
      vertex -56.5 -19.78 2.61
      vertex -56.5 -19.78 3.23
    endloop
  endfacet
  facet normal 1 0 0
    outer loop
      vertex -56.5 -19.78 2.61
      vertex -56.5 -52.78 3.23
      vertex -56.5 -52.78 2.61
    endloop
  endfacet
  facet normal 0 1 -0
    outer loop
      vertex -57.191 -18.8289 2.61
      vertex -60.191 -18.8289 3.23
      vertex -57.191 -18.8289 3.23
    endloop
  endfacet
  facet normal 0 1 0
    outer loop
      vertex -60.191 -18.8289 3.23
      vertex -57.191 -18.8289 2.61
      vertex -60.191 -18.8289 2.61
    endloop
  endfacet
  facet normal -0.309017 0.951056 0
    outer loop
      vertex -60.191 -18.8289 2.61
      vertex -61.309 -19.1922 3.23
      vertex -60.191 -18.8289 3.23
    endloop
  endfacet
  facet normal -0.309017 0.951056 0
    outer loop
      vertex -61.309 -19.1922 3.23
      vertex -60.191 -18.8289 2.61
      vertex -61.309 -19.1922 2.61
    endloop
  endfacet
  facet normal -1 0 0
    outer loop
      vertex -61.309 -53.3678 2.61
      vertex -61.309 -19.1922 3.23
      vertex -61.309 -19.1922 2.61
    endloop
  endfacet
  facet normal -1 -0 0
    outer loop
      vertex -61.309 -19.1922 3.23
      vertex -61.309 -53.3678 2.61
      vertex -61.309 -53.3678 3.23
    endloop
  endfacet
  facet normal -0 0 1
    outer loop
      vertex -60.191 -18.8289 3.23
      vertex -56.5 -19.78 3.23
      vertex -57.191 -18.8289 3.23
    endloop
  endfacet
  facet normal 0 0 1
    outer loop
      vertex -56.5 -19.78 3.23
      vertex -61.309 -19.1922 3.23
      vertex -56.5 -52.78 3.23
    endloop
  endfacet
  facet normal 0 0 1
    outer loop
      vertex -56.5 -19.78 3.23
      vertex -60.191 -18.8289 3.23
      vertex -61.309 -19.1922 3.23
    endloop
  endfacet
  facet normal 0 0 1
    outer loop
      vertex -61.309 -53.3678 3.23
      vertex -56.5 -52.78 3.23
      vertex -61.309 -19.1922 3.23
    endloop
  endfacet
  facet normal 0 -0 1
    outer loop
      vertex -60.191 -53.7311 3.23
      vertex -56.5 -52.78 3.23
      vertex -61.309 -53.3678 3.23
    endloop
  endfacet
  facet normal 0 0 1
    outer loop
      vertex -56.5 -52.78 3.23
      vertex -60.191 -53.7311 3.23
      vertex -57.191 -53.7311 3.23
    endloop
  endfacet
  facet normal 0.809017 0.587786 0
    outer loop
      vertex -56.5 -19.78 3.23
      vertex -57.191 -18.8289 2.61
      vertex -57.191 -18.8289 3.23
    endloop
  endfacet
  facet normal 0.809017 0.587786 0
    outer loop
      vertex -57.191 -18.8289 2.61
      vertex -56.5 -19.78 3.23
      vertex -56.5 -19.78 2.61
    endloop
  endfacet
  facet normal -1 0 0
    outer loop
      vertex -73 -54.28 -2.61
      vertex -73 54.28 2.61
      vertex -73 54.28 -2.61
    endloop
  endfacet
  facet normal -1 -0 0
    outer loop
      vertex -73 54.28 2.61
      vertex -73 -54.28 -2.61
      vertex -73 -54.28 2.61
    endloop
  endfacet
  facet normal -0 0 1
    outer loop
      vertex -57.191 18.8289 2.61
      vertex -56.5 -19.78 2.61
      vertex -56.5 19.78 2.61
    endloop
  endfacet
  facet normal 0 0 1
    outer loop
      vertex -57.191 18.8289 2.61
      vertex -57.191 -18.8289 2.61
      vertex -56.5 -19.78 2.61
    endloop
  endfacet
  facet normal -0 0 1
    outer loop
      vertex -60.191 18.8289 2.61
      vertex -57.191 -18.8289 2.61
      vertex -57.191 18.8289 2.61
    endloop
  endfacet
  facet normal 0 0 1
    outer loop
      vertex -60.191 18.8289 2.61
      vertex -60.191 -18.8289 2.61
      vertex -57.191 -18.8289 2.61
    endloop
  endfacet
  facet normal 0 0 1
    outer loop
      vertex -61.309 19.1922 2.61
      vertex -60.191 -18.8289 2.61
      vertex -60.191 18.8289 2.61
    endloop
  endfacet
  facet normal 0 0 1
    outer loop
      vertex -60.191 -18.8289 2.61
      vertex -61.309 19.1922 2.61
      vertex -61.309 -19.1922 2.61
    endloop
  endfacet
  facet normal -0 0 1
    outer loop
      vertex 60.809 18.8289 2.61
      vertex 61.5 -19.78 2.61
      vertex 61.5 19.78 2.61
    endloop
  endfacet
  facet normal 0 0 1
    outer loop
      vertex 60.809 18.8289 2.61
      vertex 60.809 -18.8289 2.61
      vertex 61.5 -19.78 2.61
    endloop
  endfacet
  facet normal -0 0 1
    outer loop
      vertex 57.809 18.8289 2.61
      vertex 60.809 -18.8289 2.61
      vertex 60.809 18.8289 2.61
    endloop
  endfacet
  facet normal 0 0 1
    outer loop
      vertex 57.809 18.8289 2.61
      vertex 57.809 -18.8289 2.61
      vertex 60.809 -18.8289 2.61
    endloop
  endfacet
  facet normal 0 0 1
    outer loop
      vertex 56.691 19.1922 2.61
      vertex 57.809 -18.8289 2.61
      vertex 57.809 18.8289 2.61
    endloop
  endfacet
  facet normal 0 0 1
    outer loop
      vertex 57.809 -18.8289 2.61
      vertex 56.691 19.1922 2.61
      vertex 56.691 -19.1922 2.61
    endloop
  endfacet
  facet normal 0 0 1
    outer loop
      vertex 61.5 19.78 2.61
      vertex 73 54.28 2.61
      vertex 61.5 52.78 2.61
    endloop
  endfacet
  facet normal 0 0 1
    outer loop
      vertex 73 54.28 2.61
      vertex 60.809 53.7311 2.61
      vertex 61.5 52.78 2.61
    endloop
  endfacet
  facet normal 0 0 1
    outer loop
      vertex 73 54.28 2.61
      vertex 57.809 53.7311 2.61
      vertex 60.809 53.7311 2.61
    endloop
  endfacet
  facet normal -0 0 1
    outer loop
      vertex 49.67 49.67 2.61
      vertex 56.691 19.1922 2.61
      vertex 56.691 53.3678 2.61
    endloop
  endfacet
  facet normal 0 0 1
    outer loop
      vertex 56.691 19.1922 2.61
      vertex 49.67 49.67 2.61
      vertex 56.691 -19.1922 2.61
    endloop
  endfacet
  facet normal 0 0 1
    outer loop
      vertex 49.67 -49.67 2.61
      vertex 56.691 -19.1922 2.61
      vertex 49.67 49.67 2.61
    endloop
  endfacet
  facet normal 0 0 1
    outer loop
      vertex 56.691 53.3678 2.61
      vertex -49.67 49.67 2.61
      vertex 49.67 49.67 2.61
    endloop
  endfacet
  facet normal -0 0 1
    outer loop
      vertex -57.191 53.7311 2.61
      vertex 56.691 53.3678 2.61
      vertex 57.809 53.7311 2.61
    endloop
  endfacet
  facet normal 0 0 1
    outer loop
      vertex -56.5 19.78 2.61
      vertex -49.67 49.67 2.61
      vertex -56.5 52.78 2.61
    endloop
  endfacet
  facet normal 0 0 1
    outer loop
      vertex 56.691 53.3678 2.61
      vertex -57.191 53.7311 2.61
      vertex -49.67 49.67 2.61
    endloop
  endfacet
  facet normal 0 0 1
    outer loop
      vertex -57.191 53.7311 2.61
      vertex 57.809 53.7311 2.61
      vertex 73 54.28 2.61
    endloop
  endfacet
  facet normal 0 0 1
    outer loop
      vertex -49.67 49.67 2.61
      vertex -57.191 53.7311 2.61
      vertex -56.5 52.78 2.61
    endloop
  endfacet
  facet normal -0 0 1
    outer loop
      vertex -73 54.28 2.61
      vertex -57.191 53.7311 2.61
      vertex 73 54.28 2.61
    endloop
  endfacet
  facet normal 0 0 1
    outer loop
      vertex -73 54.28 2.61
      vertex -61.309 19.1922 2.61
      vertex -61.309 53.3678 2.61
    endloop
  endfacet
  facet normal 0 0 1
    outer loop
      vertex -61.309 19.1922 2.61
      vertex -73 54.28 2.61
      vertex -61.309 -19.1922 2.61
    endloop
  endfacet
  facet normal 0 0 1
    outer loop
      vertex -73 -54.28 2.61
      vertex -61.309 -19.1922 2.61
      vertex -73 54.28 2.61
    endloop
  endfacet
  facet normal 0 0 1
    outer loop
      vertex -60.191 53.7311 2.61
      vertex -73 54.28 2.61
      vertex -61.309 53.3678 2.61
    endloop
  endfacet
  facet normal 0 0 1
    outer loop
      vertex -57.191 53.7311 2.61
      vertex -73 54.28 2.61
      vertex -60.191 53.7311 2.61
    endloop
  endfacet
  facet normal 0 0 1
    outer loop
      vertex 73 54.28 2.61
      vertex 61.5 19.78 2.61
      vertex 73 -54.28 2.61
    endloop
  endfacet
  facet normal -0 0 1
    outer loop
      vertex 61.5 -19.78 2.61
      vertex 73 -54.28 2.61
      vertex 61.5 19.78 2.61
    endloop
  endfacet
  facet normal -0 0 1
    outer loop
      vertex 61.5 -52.78 2.61
      vertex 73 -54.28 2.61
      vertex 61.5 -19.78 2.61
    endloop
  endfacet
  facet normal -0 0 1
    outer loop
      vertex 60.809 -53.7311 2.61
      vertex 73 -54.28 2.61
      vertex 61.5 -52.78 2.61
    endloop
  endfacet
  facet normal -0 0 1
    outer loop
      vertex 57.809 -53.7311 2.61
      vertex 73 -54.28 2.61
      vertex 60.809 -53.7311 2.61
    endloop
  endfacet
  facet normal 0 0 1
    outer loop
      vertex 56.691 -19.1922 2.61
      vertex 49.67 -49.67 2.61
      vertex 56.691 -53.3678 2.61
    endloop
  endfacet
  facet normal -0 0 1
    outer loop
      vertex -49.67 -49.67 2.61
      vertex 56.691 -53.3678 2.61
      vertex 49.67 -49.67 2.61
    endloop
  endfacet
  facet normal 0 0 1
    outer loop
      vertex -57.191 -53.7311 2.61
      vertex 56.691 -53.3678 2.61
      vertex -49.67 -49.67 2.61
    endloop
  endfacet
  facet normal 0 0 1
    outer loop
      vertex -49.67 49.67 2.61
      vertex -56.5 19.78 2.61
      vertex -49.67 -49.67 2.61
    endloop
  endfacet
  facet normal -0 0 1
    outer loop
      vertex -56.5 -19.78 2.61
      vertex -49.67 -49.67 2.61
      vertex -56.5 19.78 2.61
    endloop
  endfacet
  facet normal 0 0 1
    outer loop
      vertex -56.5 -52.78 2.61
      vertex -49.67 -49.67 2.61
      vertex -56.5 -19.78 2.61
    endloop
  endfacet
  facet normal 0 0 1
    outer loop
      vertex -57.191 -53.7311 2.61
      vertex -49.67 -49.67 2.61
      vertex -56.5 -52.78 2.61
    endloop
  endfacet
  facet normal 0 0 1
    outer loop
      vertex 56.691 -53.3678 2.61
      vertex -57.191 -53.7311 2.61
      vertex 57.809 -53.7311 2.61
    endloop
  endfacet
  facet normal 0 0 1
    outer loop
      vertex 57.809 -53.7311 2.61
      vertex -57.191 -53.7311 2.61
      vertex 73 -54.28 2.61
    endloop
  endfacet
  facet normal 0 0 1
    outer loop
      vertex -73 -54.28 2.61
      vertex -57.191 -53.7311 2.61
      vertex -60.191 -53.7311 2.61
    endloop
  endfacet
  facet normal 0 0 1
    outer loop
      vertex -57.191 -53.7311 2.61
      vertex -73 -54.28 2.61
      vertex 73 -54.28 2.61
    endloop
  endfacet
  facet normal 0 0 1
    outer loop
      vertex -61.309 -53.3678 2.61
      vertex -73 -54.28 2.61
      vertex -60.191 -53.7311 2.61
    endloop
  endfacet
  facet normal 0 0 1
    outer loop
      vertex -61.309 -19.1922 2.61
      vertex -73 -54.28 2.61
      vertex -61.309 -53.3678 2.61
    endloop
  endfacet
  facet normal 1 -0 0
    outer loop
      vertex 73 -54.28 2.61
      vertex 73 54.28 -2.61
      vertex 73 54.28 2.61
    endloop
  endfacet
  facet normal 1 0 0
    outer loop
      vertex 73 54.28 -2.61
      vertex 73 -54.28 2.61
      vertex 73 -54.28 -2.61
    endloop
  endfacet
  facet normal 0 0 -1
    outer loop
      vertex 73 -54.28 -2.61
      vertex 49.67 -49.67 -2.61
      vertex 73 54.28 -2.61
    endloop
  endfacet
  facet normal 0 0 -1
    outer loop
      vertex 73 -54.28 -2.61
      vertex -49.67 -49.67 -2.61
      vertex 49.67 -49.67 -2.61
    endloop
  endfacet
  facet normal -0 0 -1
    outer loop
      vertex -49.67 -49.67 -2.61
      vertex -73 -54.28 -2.61
      vertex -49.67 49.67 -2.61
    endloop
  endfacet
  facet normal 0 0 -1
    outer loop
      vertex -73 -54.28 -2.61
      vertex -49.67 -49.67 -2.61
      vertex 73 -54.28 -2.61
    endloop
  endfacet
  facet normal 0 0 -1
    outer loop
      vertex 49.67 49.67 -2.61
      vertex 73 54.28 -2.61
      vertex 49.67 -49.67 -2.61
    endloop
  endfacet
  facet normal 0 0 -1
    outer loop
      vertex -49.67 49.67 -2.61
      vertex 73 54.28 -2.61
      vertex 49.67 49.67 -2.61
    endloop
  endfacet
  facet normal 0 0 -1
    outer loop
      vertex -49.67 49.67 -2.61
      vertex -73 54.28 -2.61
      vertex 73 54.28 -2.61
    endloop
  endfacet
  facet normal 0 0 -1
    outer loop
      vertex -73 54.28 -2.61
      vertex -49.67 49.67 -2.61
      vertex -73 -54.28 -2.61
    endloop
  endfacet
  facet normal 0 -1 0
    outer loop
      vertex -73 -54.28 -2.61
      vertex 73 -54.28 2.61
      vertex -73 -54.28 2.61
    endloop
  endfacet
  facet normal 0 -1 -0
    outer loop
      vertex 73 -54.28 2.61
      vertex -73 -54.28 -2.61
      vertex 73 -54.28 -2.61
    endloop
  endfacet
  facet normal 0 1 -0
    outer loop
      vertex 73 54.28 -2.61
      vertex -73 54.28 2.61
      vertex 73 54.28 2.61
    endloop
  endfacet
  facet normal 0 1 0
    outer loop
      vertex -73 54.28 2.61
      vertex 73 54.28 -2.61
      vertex -73 54.28 -2.61
    endloop
  endfacet
  facet normal -1 0 0
    outer loop
      vertex -51.675 -51.675 2.72
      vertex -51.675 51.675 5.72
      vertex -51.675 51.675 2.72
    endloop
  endfacet
  facet normal -1 -0 0
    outer loop
      vertex -51.675 51.675 5.72
      vertex -51.675 -51.675 2.72
      vertex -51.675 -51.675 5.72
    endloop
  endfacet
  facet normal 0 0 1
    outer loop
      vertex 51.675 51.675 5.72
      vertex 49.67 49.67 5.72
      vertex 51.675 -51.675 5.72
    endloop
  endfacet
  facet normal 0 0 1
    outer loop
      vertex 51.675 51.675 5.72
      vertex -49.67 49.67 5.72
      vertex 49.67 49.67 5.72
    endloop
  endfacet
  facet normal 0 0 1
    outer loop
      vertex -49.67 49.67 5.72
      vertex -51.675 51.675 5.72
      vertex -49.67 -49.67 5.72
    endloop
  endfacet
  facet normal -0 0 1
    outer loop
      vertex -51.675 51.675 5.72
      vertex -49.67 49.67 5.72
      vertex 51.675 51.675 5.72
    endloop
  endfacet
  facet normal -0 0 1
    outer loop
      vertex 49.67 -49.67 5.72
      vertex 51.675 -51.675 5.72
      vertex 49.67 49.67 5.72
    endloop
  endfacet
  facet normal -0 0 1
    outer loop
      vertex -49.67 -49.67 5.72
      vertex 51.675 -51.675 5.72
      vertex 49.67 -49.67 5.72
    endloop
  endfacet
  facet normal 0 0 1
    outer loop
      vertex -49.67 -49.67 5.72
      vertex -51.675 -51.675 5.72
      vertex 51.675 -51.675 5.72
    endloop
  endfacet
  facet normal 0 0 1
    outer loop
      vertex -51.675 -51.675 5.72
      vertex -49.67 -49.67 5.72
      vertex -51.675 51.675 5.72
    endloop
  endfacet
  facet normal 1 -0 0
    outer loop
      vertex 51.675 -51.675 5.72
      vertex 51.675 51.675 2.72
      vertex 51.675 51.675 5.72
    endloop
  endfacet
  facet normal 1 0 0
    outer loop
      vertex 51.675 51.675 2.72
      vertex 51.675 -51.675 5.72
      vertex 51.675 -51.675 2.72
    endloop
  endfacet
  facet normal 0 1 -0
    outer loop
      vertex 51.675 51.675 2.72
      vertex -51.675 51.675 5.72
      vertex 51.675 51.675 5.72
    endloop
  endfacet
  facet normal 0 1 0
    outer loop
      vertex -51.675 51.675 5.72
      vertex 51.675 51.675 2.72
      vertex -51.675 51.675 2.72
    endloop
  endfacet
  facet normal 0 0 -1
    outer loop
      vertex 51.675 -51.675 2.72
      vertex 49.67 -49.67 2.72
      vertex 51.675 51.675 2.72
    endloop
  endfacet
  facet normal 0 0 -1
    outer loop
      vertex 51.675 -51.675 2.72
      vertex -49.67 -49.67 2.72
      vertex 49.67 -49.67 2.72
    endloop
  endfacet
  facet normal -0 0 -1
    outer loop
      vertex -49.67 -49.67 2.72
      vertex -51.675 -51.675 2.72
      vertex -49.67 49.67 2.72
    endloop
  endfacet
  facet normal 0 0 -1
    outer loop
      vertex -51.675 -51.675 2.72
      vertex -49.67 -49.67 2.72
      vertex 51.675 -51.675 2.72
    endloop
  endfacet
  facet normal 0 0 -1
    outer loop
      vertex 49.67 49.67 2.72
      vertex 51.675 51.675 2.72
      vertex 49.67 -49.67 2.72
    endloop
  endfacet
  facet normal 0 0 -1
    outer loop
      vertex -49.67 49.67 2.72
      vertex 51.675 51.675 2.72
      vertex 49.67 49.67 2.72
    endloop
  endfacet
  facet normal 0 0 -1
    outer loop
      vertex -49.67 49.67 2.72
      vertex -51.675 51.675 2.72
      vertex 51.675 51.675 2.72
    endloop
  endfacet
  facet normal 0 0 -1
    outer loop
      vertex -51.675 51.675 2.72
      vertex -49.67 49.67 2.72
      vertex -51.675 -51.675 2.72
    endloop
  endfacet
  facet normal 0 -1 0
    outer loop
      vertex -51.675 -51.675 2.72
      vertex 51.675 -51.675 5.72
      vertex -51.675 -51.675 5.72
    endloop
  endfacet
  facet normal 0 -1 -0
    outer loop
      vertex 51.675 -51.675 5.72
      vertex -51.675 -51.675 2.72
      vertex 51.675 -51.675 2.72
    endloop
  endfacet
  facet normal 1 -0 0
    outer loop
      vertex -49.67 -49.67 2.61
      vertex -49.67 49.67 -2.61
      vertex -49.67 49.67 2.61
    endloop
  endfacet
  facet normal 1 0 0
    outer loop
      vertex -49.67 49.67 -2.61
      vertex -49.67 -49.67 2.61
      vertex -49.67 -49.67 -2.61
    endloop
  endfacet
  facet normal 1 -0 0
    outer loop
      vertex -49.67 -49.67 5.72
      vertex -49.67 49.67 2.72
      vertex -49.67 49.67 5.72
    endloop
  endfacet
  facet normal 1 0 0
    outer loop
      vertex -49.67 49.67 2.72
      vertex -49.67 -49.67 5.72
      vertex -49.67 -49.67 2.72
    endloop
  endfacet
  facet normal -1 0 0
    outer loop
      vertex 49.67 -49.67 -2.61
      vertex 49.67 49.67 2.61
      vertex 49.67 49.67 -2.61
    endloop
  endfacet
  facet normal -1 -0 0
    outer loop
      vertex 49.67 49.67 2.61
      vertex 49.67 -49.67 -2.61
      vertex 49.67 -49.67 2.61
    endloop
  endfacet
  facet normal -1 0 0
    outer loop
      vertex 49.67 -49.67 2.72
      vertex 49.67 49.67 5.72
      vertex 49.67 49.67 2.72
    endloop
  endfacet
  facet normal -1 -0 0
    outer loop
      vertex 49.67 49.67 5.72
      vertex 49.67 -49.67 2.72
      vertex 49.67 -49.67 5.72
    endloop
  endfacet
  facet normal 0 -1 0
    outer loop
      vertex -49.67 49.67 -2.61
      vertex 49.67 49.67 2.61
      vertex -49.67 49.67 2.61
    endloop
  endfacet
  facet normal 0 -1 -0
    outer loop
      vertex 49.67 49.67 2.61
      vertex -49.67 49.67 -2.61
      vertex 49.67 49.67 -2.61
    endloop
  endfacet
  facet normal 0 -1 0
    outer loop
      vertex -49.67 49.67 2.72
      vertex 49.67 49.67 5.72
      vertex -49.67 49.67 5.72
    endloop
  endfacet
  facet normal 0 -1 -0
    outer loop
      vertex 49.67 49.67 5.72
      vertex -49.67 49.67 2.72
      vertex 49.67 49.67 2.72
    endloop
  endfacet
  facet normal 0 1 -0
    outer loop
      vertex 49.67 -49.67 -2.61
      vertex -49.67 -49.67 2.61
      vertex 49.67 -49.67 2.61
    endloop
  endfacet
  facet normal 0 1 0
    outer loop
      vertex -49.67 -49.67 2.61
      vertex 49.67 -49.67 -2.61
      vertex -49.67 -49.67 -2.61
    endloop
  endfacet
  facet normal 0 1 -0
    outer loop
      vertex 49.67 -49.67 2.72
      vertex -49.67 -49.67 5.72
      vertex 49.67 -49.67 5.72
    endloop
  endfacet
  facet normal 0 1 0
    outer loop
      vertex -49.67 -49.67 5.72
      vertex 49.67 -49.67 2.72
      vertex -49.67 -49.67 2.72
    endloop
  endfacet
  facet normal 0 1 0
    outer loop
      vertex 63.5 13.13 9
      vertex 60.5 13.13 7
      vertex 58.5 13.13 9
    endloop
  endfacet
  facet normal 0 1 -0
    outer loop
      vertex 63.5 13.13 3
      vertex 60.5 13.13 7
      vertex 63.5 13.13 9
    endloop
  endfacet
  facet normal 0 1 0
    outer loop
      vertex 60.5 13.13 7
      vertex 63.5 13.13 3
      vertex 60.5 13.13 3
    endloop
  endfacet
  facet normal 0 1 0
    outer loop
      vertex 58.5 13.13 9
      vertex 60.5 13.13 7
      vertex 58.5 13.13 7
    endloop
  endfacet
  facet normal -0 0 1
    outer loop
      vertex 58.5 13.13 9
      vertex 63.5 2.87 9
      vertex 63.5 13.13 9
    endloop
  endfacet
  facet normal 0 0 1
    outer loop
      vertex 63.5 2.87 9
      vertex 58.5 13.13 9
      vertex 58.5 2.87 9
    endloop
  endfacet
  facet normal 0 -1 0
    outer loop
      vertex 60.5 2.87 7
      vertex 58.5 2.87 9
      vertex 58.5 2.87 7
    endloop
  endfacet
  facet normal 0 -1 0
    outer loop
      vertex 58.5 2.87 9
      vertex 60.5 2.87 7
      vertex 63.5 2.87 9
    endloop
  endfacet
  facet normal 0 -1 0
    outer loop
      vertex 63.5 2.87 3
      vertex 60.5 2.87 7
      vertex 60.5 2.87 3
    endloop
  endfacet
  facet normal 0 -1 0
    outer loop
      vertex 60.5 2.87 7
      vertex 63.5 2.87 3
      vertex 63.5 2.87 9
    endloop
  endfacet
  facet normal 1 -0 0
    outer loop
      vertex 63.5 2.87 9
      vertex 63.5 13.13 3
      vertex 63.5 13.13 9
    endloop
  endfacet
  facet normal 1 0 0
    outer loop
      vertex 63.5 13.13 3
      vertex 63.5 2.87 9
      vertex 63.5 2.87 3
    endloop
  endfacet
  facet normal 0 0 -1
    outer loop
      vertex 60.5 2.87 3
      vertex 63.5 13.13 3
      vertex 63.5 2.87 3
    endloop
  endfacet
  facet normal -0 0 -1
    outer loop
      vertex 63.5 13.13 3
      vertex 60.5 2.87 3
      vertex 60.5 13.13 3
    endloop
  endfacet
  facet normal -1 0 0
    outer loop
      vertex 58.5 2.87 7
      vertex 58.5 13.13 9
      vertex 58.5 13.13 7
    endloop
  endfacet
  facet normal -1 -0 0
    outer loop
      vertex 58.5 13.13 9
      vertex 58.5 2.87 7
      vertex 58.5 2.87 9
    endloop
  endfacet
  facet normal 0 0 -1
    outer loop
      vertex 58.5 2.87 7
      vertex 60.5 13.13 7
      vertex 60.5 2.87 7
    endloop
  endfacet
  facet normal -0 0 -1
    outer loop
      vertex 60.5 13.13 7
      vertex 58.5 2.87 7
      vertex 58.5 13.13 7
    endloop
  endfacet
  facet normal -1 0 0
    outer loop
      vertex 60.5 2.87 3
      vertex 60.5 13.13 7
      vertex 60.5 13.13 3
    endloop
  endfacet
  facet normal -1 -0 0
    outer loop
      vertex 60.5 13.13 7
      vertex 60.5 2.87 3
      vertex 60.5 2.87 7
    endloop
  endfacet
  facet normal 0 1 0
    outer loop
      vertex 63.5 -2.87 9
      vertex 60.5 -2.87 7
      vertex 58.5 -2.87 9
    endloop
  endfacet
  facet normal 0 1 -0
    outer loop
      vertex 63.5 -2.87 3
      vertex 60.5 -2.87 7
      vertex 63.5 -2.87 9
    endloop
  endfacet
  facet normal 0 1 0
    outer loop
      vertex 60.5 -2.87 7
      vertex 63.5 -2.87 3
      vertex 60.5 -2.87 3
    endloop
  endfacet
  facet normal 0 1 0
    outer loop
      vertex 58.5 -2.87 9
      vertex 60.5 -2.87 7
      vertex 58.5 -2.87 7
    endloop
  endfacet
  facet normal -0 0 1
    outer loop
      vertex 58.5 -2.87 9
      vertex 63.5 -13.13 9
      vertex 63.5 -2.87 9
    endloop
  endfacet
  facet normal 0 0 1
    outer loop
      vertex 63.5 -13.13 9
      vertex 58.5 -2.87 9
      vertex 58.5 -13.13 9
    endloop
  endfacet
  facet normal 0 -1 0
    outer loop
      vertex 60.5 -13.13 7
      vertex 58.5 -13.13 9
      vertex 58.5 -13.13 7
    endloop
  endfacet
  facet normal 0 -1 0
    outer loop
      vertex 58.5 -13.13 9
      vertex 60.5 -13.13 7
      vertex 63.5 -13.13 9
    endloop
  endfacet
  facet normal 0 -1 0
    outer loop
      vertex 63.5 -13.13 3
      vertex 60.5 -13.13 7
      vertex 60.5 -13.13 3
    endloop
  endfacet
  facet normal 0 -1 0
    outer loop
      vertex 60.5 -13.13 7
      vertex 63.5 -13.13 3
      vertex 63.5 -13.13 9
    endloop
  endfacet
  facet normal 1 -0 0
    outer loop
      vertex 63.5 -13.13 9
      vertex 63.5 -2.87 3
      vertex 63.5 -2.87 9
    endloop
  endfacet
  facet normal 1 0 0
    outer loop
      vertex 63.5 -2.87 3
      vertex 63.5 -13.13 9
      vertex 63.5 -13.13 3
    endloop
  endfacet
  facet normal 0 0 -1
    outer loop
      vertex 60.5 -13.13 3
      vertex 63.5 -2.87 3
      vertex 63.5 -13.13 3
    endloop
  endfacet
  facet normal -0 0 -1
    outer loop
      vertex 63.5 -2.87 3
      vertex 60.5 -13.13 3
      vertex 60.5 -2.87 3
    endloop
  endfacet
  facet normal -1 0 0
    outer loop
      vertex 58.5 -13.13 7
      vertex 58.5 -2.87 9
      vertex 58.5 -2.87 7
    endloop
  endfacet
  facet normal -1 -0 0
    outer loop
      vertex 58.5 -2.87 9
      vertex 58.5 -13.13 7
      vertex 58.5 -13.13 9
    endloop
  endfacet
  facet normal 0 0 -1
    outer loop
      vertex 58.5 -13.13 7
      vertex 60.5 -2.87 7
      vertex 60.5 -13.13 7
    endloop
  endfacet
  facet normal -0 0 -1
    outer loop
      vertex 60.5 -2.87 7
      vertex 58.5 -13.13 7
      vertex 58.5 -2.87 7
    endloop
  endfacet
  facet normal -1 0 0
    outer loop
      vertex 60.5 -13.13 3
      vertex 60.5 -2.87 7
      vertex 60.5 -2.87 3
    endloop
  endfacet
  facet normal -1 -0 0
    outer loop
      vertex 60.5 -2.87 7
      vertex 60.5 -13.13 3
      vertex 60.5 -13.13 7
    endloop
  endfacet
  facet normal 0 -1 0
    outer loop
      vertex -63.5 2.87 9
      vertex -60.5 2.87 7
      vertex -58.5 2.87 9
    endloop
  endfacet
  facet normal 0 -1 0
    outer loop
      vertex -63.5 2.87 3
      vertex -60.5 2.87 7
      vertex -63.5 2.87 9
    endloop
  endfacet
  facet normal 0 -1 -0
    outer loop
      vertex -60.5 2.87 7
      vertex -63.5 2.87 3
      vertex -60.5 2.87 3
    endloop
  endfacet
  facet normal 0 -1 -0
    outer loop
      vertex -58.5 2.87 9
      vertex -60.5 2.87 7
      vertex -58.5 2.87 7
    endloop
  endfacet
  facet normal -0 0 1
    outer loop
      vertex -63.5 13.13 9
      vertex -58.5 2.87 9
      vertex -58.5 13.13 9
    endloop
  endfacet
  facet normal 0 0 1
    outer loop
      vertex -58.5 2.87 9
      vertex -63.5 13.13 9
      vertex -63.5 2.87 9
    endloop
  endfacet
  facet normal 0 1 0
    outer loop
      vertex -60.5 13.13 7
      vertex -58.5 13.13 9
      vertex -58.5 13.13 7
    endloop
  endfacet
  facet normal 0 1 0
    outer loop
      vertex -58.5 13.13 9
      vertex -60.5 13.13 7
      vertex -63.5 13.13 9
    endloop
  endfacet
  facet normal 0 1 0
    outer loop
      vertex -63.5 13.13 3
      vertex -60.5 13.13 7
      vertex -60.5 13.13 3
    endloop
  endfacet
  facet normal 0 1 0
    outer loop
      vertex -60.5 13.13 7
      vertex -63.5 13.13 3
      vertex -63.5 13.13 9
    endloop
  endfacet
  facet normal -1 0 0
    outer loop
      vertex -63.5 2.87 3
      vertex -63.5 13.13 9
      vertex -63.5 13.13 3
    endloop
  endfacet
  facet normal -1 -0 0
    outer loop
      vertex -63.5 13.13 9
      vertex -63.5 2.87 3
      vertex -63.5 2.87 9
    endloop
  endfacet
  facet normal 0 0 -1
    outer loop
      vertex -63.5 2.87 3
      vertex -60.5 13.13 3
      vertex -60.5 2.87 3
    endloop
  endfacet
  facet normal -0 0 -1
    outer loop
      vertex -60.5 13.13 3
      vertex -63.5 2.87 3
      vertex -63.5 13.13 3
    endloop
  endfacet
  facet normal 1 -0 0
    outer loop
      vertex -58.5 2.87 9
      vertex -58.5 13.13 7
      vertex -58.5 13.13 9
    endloop
  endfacet
  facet normal 1 0 0
    outer loop
      vertex -58.5 13.13 7
      vertex -58.5 2.87 9
      vertex -58.5 2.87 7
    endloop
  endfacet
  facet normal 0 0 -1
    outer loop
      vertex -60.5 2.87 7
      vertex -58.5 13.13 7
      vertex -58.5 2.87 7
    endloop
  endfacet
  facet normal -0 0 -1
    outer loop
      vertex -58.5 13.13 7
      vertex -60.5 2.87 7
      vertex -60.5 13.13 7
    endloop
  endfacet
  facet normal 1 -0 0
    outer loop
      vertex -60.5 2.87 7
      vertex -60.5 13.13 3
      vertex -60.5 13.13 7
    endloop
  endfacet
  facet normal 1 0 0
    outer loop
      vertex -60.5 13.13 3
      vertex -60.5 2.87 7
      vertex -60.5 2.87 3
    endloop
  endfacet
  facet normal 0 -1 0
    outer loop
      vertex -63.5 -13.13 9
      vertex -60.5 -13.13 7
      vertex -58.5 -13.13 9
    endloop
  endfacet
  facet normal 0 -1 0
    outer loop
      vertex -63.5 -13.13 3
      vertex -60.5 -13.13 7
      vertex -63.5 -13.13 9
    endloop
  endfacet
  facet normal 0 -1 -0
    outer loop
      vertex -60.5 -13.13 7
      vertex -63.5 -13.13 3
      vertex -60.5 -13.13 3
    endloop
  endfacet
  facet normal 0 -1 -0
    outer loop
      vertex -58.5 -13.13 9
      vertex -60.5 -13.13 7
      vertex -58.5 -13.13 7
    endloop
  endfacet
  facet normal -0 0 1
    outer loop
      vertex -63.5 -2.87 9
      vertex -58.5 -13.13 9
      vertex -58.5 -2.87 9
    endloop
  endfacet
  facet normal 0 0 1
    outer loop
      vertex -58.5 -13.13 9
      vertex -63.5 -2.87 9
      vertex -63.5 -13.13 9
    endloop
  endfacet
  facet normal 0 1 0
    outer loop
      vertex -60.5 -2.87 7
      vertex -58.5 -2.87 9
      vertex -58.5 -2.87 7
    endloop
  endfacet
  facet normal 0 1 0
    outer loop
      vertex -58.5 -2.87 9
      vertex -60.5 -2.87 7
      vertex -63.5 -2.87 9
    endloop
  endfacet
  facet normal 0 1 0
    outer loop
      vertex -63.5 -2.87 3
      vertex -60.5 -2.87 7
      vertex -60.5 -2.87 3
    endloop
  endfacet
  facet normal 0 1 0
    outer loop
      vertex -60.5 -2.87 7
      vertex -63.5 -2.87 3
      vertex -63.5 -2.87 9
    endloop
  endfacet
  facet normal -1 0 0
    outer loop
      vertex -63.5 -13.13 3
      vertex -63.5 -2.87 9
      vertex -63.5 -2.87 3
    endloop
  endfacet
  facet normal -1 -0 0
    outer loop
      vertex -63.5 -2.87 9
      vertex -63.5 -13.13 3
      vertex -63.5 -13.13 9
    endloop
  endfacet
  facet normal 0 0 -1
    outer loop
      vertex -63.5 -13.13 3
      vertex -60.5 -2.87 3
      vertex -60.5 -13.13 3
    endloop
  endfacet
  facet normal -0 0 -1
    outer loop
      vertex -60.5 -2.87 3
      vertex -63.5 -13.13 3
      vertex -63.5 -2.87 3
    endloop
  endfacet
  facet normal 1 -0 0
    outer loop
      vertex -58.5 -13.13 9
      vertex -58.5 -2.87 7
      vertex -58.5 -2.87 9
    endloop
  endfacet
  facet normal 1 0 0
    outer loop
      vertex -58.5 -2.87 7
      vertex -58.5 -13.13 9
      vertex -58.5 -13.13 7
    endloop
  endfacet
  facet normal 0 0 -1
    outer loop
      vertex -60.5 -13.13 7
      vertex -58.5 -2.87 7
      vertex -58.5 -13.13 7
    endloop
  endfacet
  facet normal -0 0 -1
    outer loop
      vertex -58.5 -2.87 7
      vertex -60.5 -13.13 7
      vertex -60.5 -2.87 7
    endloop
  endfacet
  facet normal 1 -0 0
    outer loop
      vertex -60.5 -13.13 7
      vertex -60.5 -2.87 3
      vertex -60.5 -2.87 7
    endloop
  endfacet
  facet normal 1 0 0
    outer loop
      vertex -60.5 -2.87 3
      vertex -60.5 -13.13 7
      vertex -60.5 -13.13 3
    endloop
  endfacet
endsolid OpenSCAD_Model
